<svg width="224" height="86" viewBox="0 0 224 86" fill="none" xmlns="http://www.w3.org/2000/svg">
<g id="Icon">
<g id="Rectangle 1">
<path d="M121.03 1.13204L113.024 1.0323C92.315 0.774307 75.3178 17.3532 75.0598 38.0622L74.961 45.9966C74.703 66.7057 91.2818 83.7029 111.991 83.9608L119.997 84.0606C140.706 84.3186 157.703 67.7397 157.961 47.0306L158.06 39.0963C158.318 18.3872 141.739 1.39003 121.03 1.13204Z" fill="#017BFF"/>
<path d="M121.03 1.13204L113.024 1.0323C92.315 0.774307 75.3178 17.3532 75.0598 38.0622L74.961 45.9966C74.703 66.7057 91.2818 83.7029 111.991 83.9608L119.997 84.0606C140.706 84.3186 157.703 67.7397 157.961 47.0306L158.06 39.0963C158.318 18.3872 141.739 1.39003 121.03 1.13204Z" fill="url(#paint0_diamond)" fill-opacity="0.2"/>
<path d="M121.03 1.13204L113.024 1.0323C92.315 0.774307 75.3178 17.3532 75.0598 38.0622L74.961 45.9966C74.703 66.7057 91.2818 83.7029 111.991 83.9608L119.997 84.0606C140.706 84.3186 157.703 67.7397 157.961 47.0306L158.06 39.0963C158.318 18.3872 141.739 1.39003 121.03 1.13204Z" stroke="white"/>
</g>
<g id="MD DEV">
<path id="M" d="M97.6157 65.6238C96.677 65.6238 95.909 65.4958 95.3117 65.2398C95.3117 58.0718 95.9303 47.8531 97.1677 34.5838L97.7437 27.9918C97.1463 27.2664 96.5703 26.1571 96.0157 24.6638C95.5037 23.1704 95.2477 22.1251 95.2477 21.5278L95.3117 21.3358C95.4397 21.1651 96.5063 21.0158 98.5117 20.8878C100.517 20.7598 102.714 20.6958 105.104 20.6958C107.536 20.6958 108.858 20.8024 109.072 21.0158C109.285 21.2291 110.309 23.9171 112.144 29.0798C113.978 34.1998 115.344 38.1678 116.24 40.9838C116.325 41.1971 116.432 41.3038 116.56 41.3038C116.688 41.3038 116.901 40.8558 117.2 39.9598C117.498 39.0211 118.736 35.8211 120.912 30.3598C123.088 24.8558 124.538 21.7411 125.264 21.0158C125.648 20.6318 127.717 20.4398 131.472 20.4398C135.226 20.4398 137.104 20.5464 137.104 20.7598C137.104 21.4851 136.805 22.7438 136.208 24.5358C135.653 26.3278 135.184 27.5864 134.8 28.3118C136.293 41.8371 137.04 53.8051 137.04 64.2158C137.04 64.6424 136.165 65.0264 134.416 65.3678C132.709 65.7518 131.301 65.9438 130.192 65.9438C129.082 65.9438 128.528 65.8584 128.528 65.6878C128.656 63.9384 128.72 61.1224 128.72 57.2398C128.72 53.3144 128.613 48.6638 128.4 43.2878C128.186 36.5891 127.93 33.2398 127.632 33.2398L127.248 33.6238C126.394 35.2024 125.285 37.8691 123.92 41.6238C122.597 45.3784 121.488 48.7491 120.592 51.7358L119.248 56.1518C119.034 56.6211 118.394 56.8558 117.328 56.8558C116.304 56.8558 115.45 56.7918 114.768 56.6638C114.128 56.5358 113.786 56.4078 113.744 56.2798C113.616 55.8104 112.293 52.0771 109.776 45.0798C107.258 38.0398 105.808 34.2851 105.424 33.8158C105.296 33.5598 105.189 33.4318 105.104 33.4318C105.018 33.4318 104.954 33.5811 104.912 33.8798C104.144 37.7624 103.76 43.4798 103.76 51.0318C103.76 58.5411 103.866 62.8931 104.08 64.0878C103.013 65.1118 100.858 65.6238 97.6157 65.6238Z" fill="white"/>
</g>
</g>
<defs>
<radialGradient id="paint0_diamond" cx="0" cy="0" r="1" gradientUnits="userSpaceOnUse" gradientTransform="translate(116.51 42.5464) rotate(90.7138) scale(40.9675 41.0031)">
<stop offset="0.807057" stop-color="white"/>
<stop offset="1" stop-color="white" stop-opacity="0"/>
</radialGradient>
</defs>
</svg>
