<svg width="314" height="72" viewBox="0 0 314 72" fill="none" xmlns="http://www.w3.org/2000/svg">
<g id="Contact1">
<g id="Get In Touch">
<path d="M22.7322 38.4431L18.8299 38.6677C18.6593 38.6691 18.5716 38.3925 18.567 37.8378C18.5624 37.2832 18.7465 36.3429 19.1195 35.0171C19.4924 33.6913 19.9751 32.7272 20.5674 32.1249C21.1597 31.5226 26.1917 31.182 35.6634 31.1029C38.0953 31.0826 39.3121 31.1791 39.3139 31.3925C39.3221 32.3738 39.056 33.72 38.5156 35.4313C38.0175 37.0995 37.5788 38.2125 37.1994 38.7704C37.2525 50.2476 37.1529 56.2007 36.9005 56.6295C36.6907 57.0579 35.9266 57.5336 34.6083 58.0567C33.2903 58.6223 32.162 58.9091 31.2234 58.9169C30.3274 58.9244 29.8789 58.8642 29.8778 58.7362C29.8586 56.4322 29.7403 55.0465 29.5231 54.579L29.394 54.452L29.2031 54.5816C26.7069 57.1199 23.4321 58.4059 19.379 58.4398C13.8325 58.4861 9.63634 56.729 6.79053 53.1686C3.98738 49.6079 2.56213 44.9903 2.51477 39.3158C2.47489 34.5373 3.31338 30.1995 5.03025 26.3024C6.11925 23.8612 7.50958 21.7375 9.20123 19.9314C10.9355 18.1248 13.3123 16.6116 16.3316 15.3917C19.3935 14.1714 22.9297 13.5446 26.9403 13.5111C27.8362 13.5036 29.0744 13.6 30.6548 13.8001C32.2352 14.0003 33.0686 14.164 33.155 14.2913C33.2841 14.4182 33.352 14.887 33.3587 15.6976C33.3655 16.5082 33.2681 17.6184 33.0665 19.0282C32.8649 20.4379 32.6372 21.2718 32.3834 21.5299C31.0551 20.8583 28.8123 20.5357 25.6551 20.5621C21.1326 20.5998 17.54 22.1445 14.8774 25.1962C12.2147 28.2478 10.9078 32.6962 10.9566 38.5414C10.9879 42.2959 11.781 45.2974 13.3358 47.5458C14.8906 49.7943 17.0547 50.9069 19.8279 50.8838C22.6012 50.8606 24.8354 50.1593 26.5306 48.7797C28.2685 47.3999 29.1335 46.2406 29.1257 45.302L29.1086 43.254C29.0868 40.6515 28.9469 39.2232 28.6888 38.9694C28.3869 38.5879 26.4014 38.4125 22.7322 38.4431ZM58.6067 35.8396C58.5964 34.6023 57.9299 33.9892 56.6073 34.0002C54.858 34.0148 53.3296 34.9236 52.0219 36.7266C50.7142 38.5296 50.0709 40.6897 50.0919 43.2069C50.0969 43.8042 50.1847 44.1022 50.3554 44.1008C51.891 44.0453 53.6543 43.1559 55.6453 41.4325C57.636 39.6665 58.6231 37.8022 58.6067 35.8396ZM64.3444 56.1444C62.9019 57.1378 60.0688 57.6522 55.8449 57.6874C51.6211 57.7227 48.368 56.4911 46.0858 53.9927C43.8035 51.4944 42.6449 48.1546 42.61 43.9734C42.5748 39.7495 43.8883 36.0904 46.5506 32.9961C49.2551 29.8588 53.0607 28.2696 57.9672 28.2287C59.9724 28.2119 61.8115 28.7299 63.4843 29.7827C65.1998 30.8351 66.0688 32.7052 66.0912 35.3931C66.1133 38.0384 64.9619 40.6721 62.6371 43.2942C60.3549 45.916 57.2142 47.9263 53.2151 49.3251C53.2193 49.837 53.7349 50.2594 54.7617 50.5922C55.8308 50.882 56.8774 51.0226 57.9013 51.014C61.1439 50.987 63.699 50.3896 65.5666 49.222C65.6089 49.179 65.6728 49.1571 65.7581 49.1564C65.8434 49.1557 65.8895 49.5606 65.8962 50.3713C65.9169 52.8459 65.3996 54.7702 64.3444 56.1444ZM78.2075 14.1073C78.1304 15.0893 78.0462 17.7781 77.9548 22.1737C81.1547 22.1469 82.7552 22.1976 82.7563 22.3256C82.7684 23.7762 82.5659 25.0793 82.1489 26.2348C81.7315 27.3476 81.3308 27.9057 80.9468 27.9089L77.9389 27.934C77.9063 34.2491 77.9065 39.3907 77.9396 43.3585C77.9724 47.2837 78.0583 49.9071 78.1973 51.2286C78.4718 53.4451 79.3616 55.2511 80.8666 56.6466C80.8706 57.1159 80.0443 57.8055 78.3878 58.7153C76.774 59.6248 75.2418 60.0856 73.7912 60.0977C73.6632 60.0988 73.4054 59.8876 73.0179 59.4642C72.673 59.0404 72.2831 58.3396 71.8483 57.3618C71.4561 56.3837 71.1921 55.4259 71.0563 54.4884C70.9631 53.5504 70.8925 50.2016 70.8444 44.4418C70.7964 38.682 70.815 33.2416 70.9002 28.1207L67.3169 28.2146C67.1018 28.0031 66.9875 27.0867 66.9739 25.4654C66.96 23.8015 67.1437 22.7972 67.5248 22.4527C68.4631 22.4022 69.5934 22.3501 70.9156 22.2964C70.895 19.8218 70.8176 18.2224 70.6836 17.4982C70.5495 16.7739 70.482 16.3478 70.4809 16.2198C70.4773 15.7932 71.1985 15.2965 72.6445 14.7297C74.1332 14.1626 75.4322 13.8744 76.5414 13.8652C77.6507 13.8559 78.2061 13.9366 78.2075 14.1073ZM111.38 50.0557C111.551 50.0542 111.645 51.1202 111.663 53.2534C111.68 55.344 111.561 56.3904 111.305 56.3925C105.119 56.4442 100.684 56.7798 98.001 57.3996C97.873 57.4007 97.8012 56.4626 97.7855 54.5853C97.7699 52.708 97.9097 51.5761 98.2052 51.1897C98.715 50.9294 99.5459 50.7945 100.698 50.7848C100.6 49.3349 100.515 44.1728 100.441 35.2985C100.366 26.3814 100.43 21.2821 100.633 20.0003L100.505 20.0014C99.353 20.011 98.3941 20.147 97.6283 20.4094C97.543 20.4101 97.4923 19.4505 97.4763 17.5306C97.4599 15.568 97.5786 14.4576 97.8325 14.1995C98.0863 13.9414 99.791 13.6925 102.946 13.4528C106.102 13.2131 108.746 13.0844 110.879 13.0666C111.007 13.0655 111.074 13.4063 111.08 14.0889L110.928 18.8264C110.929 18.997 110.866 19.0829 110.738 19.084C109.287 19.0961 108.519 19.1451 108.435 19.2312C108.35 19.2746 108.293 20.1497 108.265 21.8567C108.15 28.5992 108.114 34.4451 108.155 39.3942C108.196 44.3007 108.397 47.8832 108.757 50.1416C109.311 50.0943 110.186 50.0656 111.38 50.0557ZM125.364 41.2347L125.448 43.602L125.488 48.4659C125.527 53.0311 125.461 55.3997 125.292 55.5718C124.742 56.131 123.785 56.5657 122.422 56.8758C121.06 57.1858 119.93 57.3446 119.034 57.352C118.181 57.3592 117.754 57.2987 117.753 57.1707C118.035 55.2483 118.158 52.0898 118.122 47.6953L117.81 33.2974C117.787 30.6522 117.882 29.222 118.094 29.0069C118.559 28.5337 119.366 28.1216 120.516 27.7707C121.664 27.3771 122.729 27.1762 123.711 27.168C124.735 27.1594 125.247 27.2618 125.249 27.4751C125.13 28.5002 125.074 29.5247 125.083 30.5486C125.091 31.5726 125.16 32.084 125.288 32.083L125.479 31.9534C125.689 31.6529 126.006 31.2876 126.429 30.8574C126.852 30.3845 127.743 29.7797 129.102 29.043C130.504 28.2633 131.823 27.8683 133.061 27.858C134.341 27.8473 135.409 28.073 136.266 28.5352C137.166 28.9544 137.896 29.4817 138.456 30.117C139.016 30.7524 139.493 31.6658 139.887 32.8572C140.323 34.0482 140.653 35.1549 140.874 36.177C141.096 37.1992 141.278 38.5631 141.421 40.2686C141.568 42.6141 141.657 45.6002 141.687 49.2267L141.558 56.7161C141.56 57.0147 140.859 57.2979 139.453 57.5657C138.047 57.8761 136.918 58.0348 136.065 58.0419L133.95 57.7396C134.345 53.8962 134.527 50.1825 134.497 46.5986C134.467 42.9721 134.21 40.2648 133.725 38.4768C133.241 36.6461 132.294 35.7366 130.886 35.7484C129.479 35.7601 128.33 36.1537 127.44 36.9292C126.593 37.7043 126.045 38.4769 125.795 39.247L125.357 40.3387L125.364 41.2347ZM167.427 50.1639L167.652 23.5371C167.634 21.3612 167.561 20.2311 167.432 20.1468C167.346 20.0196 167.004 19.9584 166.406 19.9634C165.084 19.9744 162.739 20.2073 159.372 20.6621L157.646 20.9325L157.44 19.2702C157.423 17.2223 157.75 15.4275 158.419 13.8858L158.797 13.1147C162.125 13.0442 165.878 12.8849 170.057 12.6367C174.279 12.3454 178.075 12.1857 181.446 12.1576C184.859 12.1291 186.566 12.2002 186.568 12.3709C186.578 13.6082 186.484 15.1023 186.285 16.8534C186.086 18.5618 185.839 19.5665 185.542 19.8677C184.559 19.6626 182.745 19.571 180.1 19.5931C177.455 19.6152 176.069 19.6908 175.942 19.8198C175.645 20.121 175.543 25.69 175.633 36.527C175.723 47.3639 176.418 53.9504 177.718 56.2863L177.719 56.3503C177.722 56.7343 176.893 57.1038 175.232 57.4591C173.571 57.8143 172.249 57.996 171.268 58.0042C169.903 58.0155 168.792 57.8328 167.935 57.4559C167.634 57.1171 167.464 54.6864 167.427 50.1639ZM216.169 41.5649C216.203 45.618 214.995 49.1483 212.546 52.1555C210.138 55.1197 206.823 56.6194 202.599 56.6546C198.418 56.6895 195.122 55.4157 192.711 52.833C190.3 50.2504 189.077 46.8898 189.042 42.7513C189.008 38.5701 190.449 34.8673 193.366 31.6428C196.325 28.3753 200.322 26.7206 205.357 26.6786C207.406 26.7468 208.516 26.8655 208.688 27.0348C208.86 27.204 208.949 27.6086 208.954 28.2486C208.959 28.8886 208.901 29.5931 208.78 30.3621C209.42 30.3568 210.234 30.734 211.221 31.4938C212.251 32.2106 213.089 32.9503 213.736 33.7129C214.382 34.4755 214.946 35.5589 215.427 36.9629C215.908 38.3243 216.155 39.8582 216.169 41.5649ZM206.788 37.163C205.802 36.5312 204.839 36.2192 203.901 36.2271L203.389 36.2313C203.302 36.0614 203.256 35.6991 203.251 35.1444C203.247 34.5898 203.306 34.0559 203.43 33.5429C201.681 33.5575 200.045 34.3605 198.522 35.9519C197.042 37.543 196.314 39.7465 196.337 42.5624C196.365 45.8903 197.451 48.1853 199.595 49.4475C200.41 49.9527 201.521 50.1994 202.929 50.1877C204.38 50.1755 205.718 49.503 206.944 48.1701C208.213 46.8368 208.837 44.8688 208.815 42.2663C208.793 39.6637 208.118 37.9626 206.788 37.163ZM237.148 52.2702L237.072 50.9267L237.007 50.7993C235.996 52.3864 234.706 53.6559 233.135 54.6077C231.607 55.5592 230.096 56.0411 228.603 56.0536C224.123 56.091 221.534 52.6351 220.836 45.6861C220.741 44.5775 220.675 41.7193 220.636 37.1114C220.598 32.5036 220.767 29.7714 221.144 28.9149C222.246 28.0097 224.034 27.5467 226.509 27.5261C227.49 27.5179 228.088 27.6196 228.303 27.8311C228.304 27.8738 228.287 28.4499 228.254 29.5596C228.067 32.8039 227.982 35.3007 227.996 37.05C228.011 38.7993 228.043 40.1004 228.093 40.9533C228.142 41.7636 228.168 42.2967 228.17 42.5527C228.215 42.7657 228.282 43.1705 228.372 43.7671C228.505 44.3633 228.68 44.8739 228.897 45.2988C229.547 46.5307 230.534 47.1412 231.856 47.1301C233.222 47.1187 234.411 46.4475 235.424 45.1163C236.479 43.7421 236.983 42.7779 236.936 42.2236L236.918 40.0476C236.852 32.2399 236.945 28.0363 237.196 27.4369C237.406 27.0511 238.064 26.6403 239.17 26.2044C240.318 25.7681 241.447 25.5453 242.557 25.5361C243.666 25.5268 244.307 25.6068 244.479 25.776L244.376 28.785C244.171 34.8883 244.082 39.6038 244.11 42.9317C244.138 46.2596 244.241 48.3708 244.419 49.2654C244.735 51.3961 245.325 53.0979 246.189 54.3708C246.193 54.7974 245.324 55.4874 243.583 56.4406C241.841 57.3938 240.352 57.8756 239.114 57.8859C238.773 57.8888 238.384 57.252 237.947 55.9756C237.509 54.6992 237.243 53.4641 237.148 52.2702ZM262.494 56.3468C257.631 56.3874 254.015 55.1802 251.648 52.7252C249.281 50.2702 248.081 47.1654 248.05 43.4109C248.006 38.163 249.721 33.9673 253.193 30.8235C256.708 27.6794 261.005 26.0861 266.082 26.0438C267.063 26.0356 267.639 26.0521 267.81 26.0933C268.068 26.3045 268.204 27.3274 268.22 29.162C268.235 30.9966 267.988 32.1081 267.48 32.4963L267.032 32.5001C263.746 32.5275 261.086 33.3177 259.051 34.8708C258.203 35.5178 257.465 36.5267 256.836 37.8973C256.208 39.268 255.901 40.9132 255.917 42.8332C255.933 44.7531 256.523 46.3483 257.685 47.6186C258.848 48.8463 260.709 49.4494 263.269 49.4281C265.274 49.4113 267.041 49.0126 268.571 48.2318C268.741 48.145 268.847 48.1015 268.89 48.1011C269.234 48.4396 269.414 49.5901 269.431 51.5527C269.447 53.5153 269.222 54.6906 268.756 55.0785C267.355 55.9009 265.268 56.3236 262.494 56.3468ZM273.878 41.9793L273.501 19.7736C273.467 15.6351 273.555 13.4583 273.767 13.2432C274.274 12.7269 275.102 12.2293 276.25 11.7504C277.398 11.2715 278.506 11.0276 279.572 11.0187C280.639 11.0098 281.173 11.0906 281.174 11.2613C281.135 11.6456 281.073 14.4409 280.988 19.6471C280.904 24.8534 280.868 28.2671 280.882 29.8884L280.887 30.4644C280.888 30.6777 280.953 30.7838 281.081 30.7828L282.351 29.4921C282.816 29.0615 283.75 28.4777 285.152 27.7407C286.596 26.9606 287.937 26.5654 289.174 26.5551C290.454 26.5444 291.501 26.749 292.315 27.1689C293.172 27.5884 293.881 28.0945 294.44 28.6872C295 29.2799 295.476 30.1506 295.87 31.2994C296.263 32.4054 296.549 33.4484 296.728 34.4283C296.949 35.3652 297.131 36.665 297.273 38.3279C297.42 40.5881 297.508 43.4461 297.536 46.902L297.351 55.4158C297.226 55.7582 296.503 56.0629 295.183 56.33C293.862 56.597 292.776 56.7341 291.922 56.7412L289.808 56.4388C290.202 52.5954 290.385 48.9031 290.355 45.3619C290.326 41.8207 290.047 39.1349 289.52 37.3046C288.993 35.4742 287.94 34.5656 286.361 34.5788C285.337 34.5874 284.381 35.0007 283.491 35.8188C282.602 36.6369 281.99 37.4527 281.656 38.2662L281.09 39.487C281.2 42.4302 281.269 45.587 281.297 48.9576C281.325 52.3281 281.233 54.0996 281.021 54.2721C279.751 55.4347 277.409 56.0303 273.996 56.0588C273.655 56.0616 273.483 55.999 273.482 55.871C273.808 53.9909 273.94 49.3603 273.878 41.9793Z" fill="#017BFF"/>
<path d="M22.7322 38.4431L22.7238 37.4431L22.6993 37.4433L22.6747 37.4447L22.7322 38.4431ZM18.8299 38.6677L18.8383 39.6676L18.8628 39.6674L18.8874 39.666L18.8299 38.6677ZM19.1195 35.0171L18.1568 34.7463L18.1568 34.7463L19.1195 35.0171ZM38.5156 35.4313L37.562 35.1301L37.5597 35.1376L37.5574 35.1452L38.5156 35.4313ZM37.1994 38.7704L36.3725 38.208L36.198 38.4647L36.1994 38.775L37.1994 38.7704ZM36.9005 56.6295L36.0387 56.1222L36.0192 56.1552L36.0023 56.1897L36.9005 56.6295ZM34.6083 58.0567L34.2395 57.1271L34.2266 57.1322L34.2139 57.1377L34.6083 58.0567ZM29.5231 54.579L30.43 54.1576L30.3536 53.9931L30.2243 53.866L29.5231 54.579ZM29.394 54.452L30.0952 53.7391L29.5107 53.1642L28.8324 53.6247L29.394 54.452ZM29.2031 54.5816L28.6415 53.7543L28.5595 53.8099L28.4901 53.8805L29.2031 54.5816ZM6.79053 53.1686L6.00477 53.7872L6.00939 53.793L6.79053 53.1686ZM5.03025 26.3024L4.11699 25.895L4.11512 25.8992L5.03025 26.3024ZM9.20123 19.9314L8.47979 19.2388L8.47136 19.2478L9.20123 19.9314ZM16.3316 15.3917L15.9614 14.4627L15.957 14.4645L16.3316 15.3917ZM30.6548 13.8001L30.5292 14.7922L30.5292 14.7922L30.6548 13.8001ZM33.155 14.2913L32.3276 14.8529L32.3832 14.9348L32.4538 15.0042L33.155 14.2913ZM33.0665 19.0282L32.0766 18.8866L32.0766 18.8866L33.0665 19.0282ZM32.3834 21.5299L31.9322 22.4224L32.5841 22.752L33.0964 22.2311L32.3834 21.5299ZM14.8774 25.1962L15.6309 25.8536L15.6309 25.8536L14.8774 25.1962ZM13.3358 47.5458L12.5133 48.1146L12.5133 48.1146L13.3358 47.5458ZM26.5306 48.7797L25.9087 47.9965L25.8994 48.0041L26.5306 48.7797ZM28.6888 38.9694L27.9046 39.5899L27.9432 39.6387L27.9876 39.6824L28.6888 38.9694ZM22.6747 37.4447L18.7725 37.6693L18.8874 39.666L22.7896 39.4414L22.6747 37.4447ZM18.8216 37.6677C18.9402 37.6667 19.0648 37.6908 19.1833 37.7447C19.2997 37.7975 19.3863 37.868 19.4466 37.9322C19.5569 38.0497 19.5882 38.1551 19.5895 38.1592C19.5919 38.1669 19.5691 38.0804 19.567 37.8295L17.567 37.8462C17.5696 38.1498 17.5928 38.479 17.6829 38.7633C17.7531 38.9847 18.0422 39.6743 18.8383 39.6676L18.8216 37.6677ZM19.567 37.8295C19.5637 37.4333 19.708 36.6179 20.0821 35.2879L18.1568 34.7463C17.7851 36.0679 17.5611 37.1331 17.567 37.8462L19.567 37.8295ZM20.0821 35.2879C20.4351 34.0331 20.8584 33.2552 21.2804 32.8261L19.8544 31.4237C19.0917 32.1993 18.5498 33.3495 18.1568 34.7463L20.0821 35.2879ZM21.2804 32.8261C21.1695 32.9388 21.1046 32.9261 21.2984 32.865C21.4487 32.8176 21.6801 32.7637 22.0094 32.7085C22.6646 32.5987 23.6072 32.4998 24.8532 32.4154C27.3393 32.2471 30.9417 32.1424 35.6717 32.1029L35.655 30.1029C30.9134 30.1425 27.264 30.2476 24.7181 30.42C23.4481 30.506 22.4297 30.6101 21.6787 30.736C21.305 30.7987 20.9721 30.8708 20.6968 30.9576C20.465 31.0307 20.1133 31.1605 19.8544 31.4237L21.2804 32.8261ZM35.6717 32.1029C36.8811 32.0928 37.7577 32.1123 38.3209 32.1569C38.6108 32.1799 38.7706 32.2063 38.8384 32.2235C38.8801 32.2341 38.8264 32.2264 38.7402 32.1744C38.6858 32.1417 38.3182 31.908 38.314 31.4008L40.3139 31.3841C40.3092 30.8236 39.9032 30.5402 39.7724 30.4614C39.6098 30.3634 39.4417 30.3133 39.3312 30.2852C39.0943 30.225 38.7976 30.1885 38.479 30.1632C37.8254 30.1114 36.8776 30.0927 35.655 30.1029L35.6717 32.1029ZM38.314 31.4008C38.3208 32.2237 38.0924 33.4506 37.562 35.1301L39.4692 35.7324C40.0196 33.9895 40.3234 32.5238 40.3139 31.3841L38.314 31.4008ZM37.5574 35.1452C37.0565 36.8226 36.6539 37.7942 36.3725 38.208L38.0263 39.3327C38.5037 38.6308 38.9785 37.3763 39.4738 35.7174L37.5574 35.1452ZM36.1994 38.775C36.226 44.5117 36.2143 48.8608 36.1647 51.8264C36.1398 53.3107 36.1056 54.4386 36.0627 55.217C36.0411 55.608 36.0181 55.8965 35.9949 56.0922C35.9832 56.1911 35.9732 56.2506 35.967 56.2803C35.9534 56.3458 35.9635 56.2499 36.0387 56.1222L37.7622 57.1368C37.869 56.9555 37.9095 56.7628 37.925 56.6884C37.9479 56.5782 37.966 56.4546 37.981 56.3273C38.0114 56.0705 38.0372 55.7339 38.0596 55.3272C38.1047 54.5101 38.1394 53.352 38.1644 51.8598C38.2144 48.8724 38.226 44.5063 38.1994 38.7657L36.1994 38.775ZM36.0023 56.1897C36.0252 56.1431 35.9836 56.2457 35.6415 56.4587C35.3305 56.6523 34.8709 56.8766 34.2395 57.1271L34.9771 58.9862C35.664 58.7136 36.2456 58.4386 36.6986 58.1565C37.1206 57.8938 37.566 57.5443 37.7986 57.0692L36.0023 56.1897ZM34.2139 57.1377C32.96 57.6759 31.9697 57.9107 31.215 57.917L31.2317 59.9169C32.3543 59.9075 33.6206 59.5688 35.0027 58.9756L34.2139 57.1377ZM31.215 57.917C30.778 57.9206 30.4996 57.9066 30.3481 57.8863C30.2623 57.8747 30.2821 57.8692 30.3487 57.8971C30.3814 57.9107 30.4884 57.9579 30.6004 58.068C30.7277 58.1933 30.8752 58.4186 30.8778 58.7278L28.8778 58.7445C28.8837 59.4482 29.4929 59.707 29.5763 59.7419C29.7552 59.8168 29.9435 59.8499 30.0818 59.8684C30.3789 59.9083 30.7728 59.9207 31.2317 59.9169L31.215 57.917ZM30.8778 58.7278C30.8681 57.5645 30.8333 56.6133 30.7711 55.8839C30.7135 55.2087 30.6234 54.5739 30.43 54.1576L28.6162 55.0004C28.6129 54.9933 28.6213 55.0102 28.636 55.0635C28.6501 55.1145 28.6663 55.1854 28.6835 55.2799C28.7179 55.47 28.7503 55.7255 28.7783 56.0539C28.8343 56.7102 28.8683 57.6039 28.8778 58.7445L30.8778 58.7278ZM30.2243 53.866L30.0952 53.7391L28.6928 55.165L28.8219 55.292L30.2243 53.866ZM28.8324 53.6247L28.6415 53.7543L29.7647 55.409L29.9557 55.2794L28.8324 53.6247ZM28.4901 53.8805C26.2061 56.2029 23.1986 57.4079 19.3706 57.4398L19.3873 59.4397C23.6657 59.404 27.2076 58.0369 29.9161 55.2828L28.4901 53.8805ZM19.3706 57.4398C14.0571 57.4841 10.1841 55.8126 7.57166 52.5443L6.00939 53.793C9.08862 57.6454 13.6078 59.488 19.3873 59.4397L19.3706 57.4398ZM7.57626 52.5501C4.94161 49.2034 3.56072 44.8173 3.51473 39.3075L1.5148 39.3242C1.56354 45.1633 3.03315 50.0124 6.00479 53.7872L7.57626 52.5501ZM3.51473 39.3075C3.47589 34.6533 4.29222 30.4581 5.94538 26.7055L4.11512 25.8992C2.33455 29.941 1.47389 34.4214 1.5148 39.3242L3.51473 39.3075ZM5.9435 26.7098C6.9908 24.3621 8.32139 22.3336 9.9311 20.6149L8.47136 19.2478C6.69777 21.1414 5.2477 23.3603 4.117 25.895L5.9435 26.7098ZM9.92261 20.6239C11.5345 18.9449 13.7802 17.5011 16.7062 16.3189L15.957 14.4645C12.8445 15.7221 10.3366 17.3048 8.47985 19.2388L9.92261 20.6239ZM16.7018 16.3206C19.6266 15.155 23.036 14.5437 26.9486 14.5111L26.9319 12.5111C22.8235 12.5454 19.1605 13.1878 15.9614 14.4627L16.7018 16.3206ZM26.9486 14.5111C27.7781 14.5041 28.9647 14.5941 30.5292 14.7922L30.7805 12.808C29.1841 12.6059 27.8943 12.5031 26.9319 12.5111L26.9486 14.5111ZM30.5292 14.7922C31.3127 14.8914 31.8894 14.979 32.2724 15.0543C32.4671 15.0925 32.5863 15.1227 32.6485 15.1424C32.6812 15.1527 32.6722 15.1521 32.6408 15.1365C32.6244 15.1283 32.5863 15.1083 32.5387 15.0734C32.4955 15.0417 32.4082 14.9715 32.3276 14.8529L33.9824 13.7296C33.8198 13.4901 33.5984 13.3792 33.5343 13.3471C33.4347 13.2974 33.3341 13.2616 33.2518 13.2355C33.084 13.1825 32.8799 13.1354 32.6579 13.0918C32.2075 13.0033 31.5773 12.909 30.7805 12.808L30.5292 14.7922ZM32.4538 15.0042C32.3788 14.9304 32.3377 14.8619 32.319 14.8271C32.2994 14.7904 32.2916 14.7665 32.2909 14.7645C32.2904 14.763 32.3007 14.7961 32.3131 14.8814C32.3376 15.0506 32.3555 15.3189 32.3588 15.706L34.3587 15.6893C34.3552 15.2657 34.3358 14.8942 34.2924 14.5947C34.2708 14.4456 34.2395 14.287 34.1898 14.1366C34.1469 14.0069 34.0565 13.7753 33.8562 13.5783L32.4538 15.0042ZM32.3588 15.706C32.3649 16.4426 32.2755 17.4954 32.0766 18.8866L34.0565 19.1697C34.2607 17.7415 34.3661 16.5739 34.3587 15.6893L32.3588 15.706ZM32.0766 18.8866C31.9784 19.573 31.8781 20.0878 31.7799 20.4475C31.7308 20.6273 31.6874 20.749 31.6539 20.8249C31.615 20.913 31.6118 20.8884 31.6704 20.8288L33.0964 22.2311C33.2819 22.0425 33.4023 21.8168 33.4839 21.6319C33.5708 21.4348 33.6445 21.2114 33.7092 20.9743C33.8387 20.5001 33.953 19.8931 34.0565 19.1697L32.0766 18.8866ZM32.8346 20.6375C31.2765 19.8498 28.8229 19.5356 25.6467 19.5621L25.6634 21.562C28.8017 21.5358 30.8336 21.8669 31.9322 22.4224L32.8346 20.6375ZM25.6467 19.5621C20.8755 19.6019 16.9976 21.2451 14.1239 24.5387L15.6309 25.8536C18.0823 23.044 21.3896 21.5977 25.6634 21.562L25.6467 19.5621ZM14.1239 24.5387C11.2418 27.8419 9.9067 32.5669 9.95664 38.5497L11.9566 38.533C11.9089 32.8256 13.1877 28.6538 15.6309 25.8536L14.1239 24.5387ZM9.95664 38.5497C9.98904 42.4319 10.8092 45.6502 12.5133 48.1146L14.1583 46.9771C12.7528 44.9445 11.9868 42.1599 11.9566 38.533L9.95664 38.5497ZM12.5133 48.1146C14.2598 50.6402 16.7375 51.9096 19.8363 51.8837L19.8196 49.8838C17.3718 49.9042 15.5215 48.9483 14.1583 46.9771L12.5133 48.1146ZM19.8363 51.8837C22.7744 51.8592 25.2476 51.1131 27.1618 49.5554L25.8994 48.0041C24.4231 49.2055 22.4279 49.862 19.8196 49.8838L19.8363 51.8837ZM27.1524 49.5629C28.0571 48.8446 28.7804 48.1487 29.2842 47.4734C29.7808 46.8079 30.1321 46.0712 30.1256 45.2936L28.1257 45.3103C28.127 45.4714 28.0497 45.7836 27.6813 46.2773C27.3201 46.7614 26.742 47.335 25.9088 47.9966L27.1524 49.5629ZM30.1256 45.2936L30.1085 43.2457L28.1086 43.2624L28.1257 45.3103L30.1256 45.2936ZM30.1085 43.2457C30.0976 41.9344 30.0569 40.8919 29.9826 40.1334C29.9457 39.7567 29.898 39.4227 29.8333 39.1497C29.8011 39.0132 29.7595 38.87 29.7028 38.7343C29.6516 38.6116 29.5588 38.4224 29.39 38.2564L27.9876 39.6824C27.9304 39.6261 27.897 39.576 27.8811 39.5499C27.8645 39.5226 27.8575 39.5054 27.8573 39.5049C27.8567 39.5037 27.8599 39.5113 27.8658 39.5304C27.8716 39.5491 27.8788 39.5753 27.8871 39.6103C27.922 39.7577 27.959 39.9911 27.9921 40.3284C28.0577 40.9982 28.0978 41.9711 28.1086 43.2624L30.1085 43.2457ZM29.473 38.3489C29.2936 38.1222 29.0656 37.9964 28.912 37.9263C28.7439 37.8496 28.5613 37.7936 28.3833 37.7503C28.0265 37.6634 27.5785 37.6013 27.0613 37.5556C26.0203 37.4636 24.5687 37.4277 22.7238 37.4431L22.7405 39.443C24.5649 39.4278 25.9407 39.4644 26.8852 39.5478C27.3608 39.5898 27.695 39.6412 27.9101 39.6935C28.018 39.7198 28.0688 39.7399 28.0814 39.7457C28.1085 39.758 28.0085 39.7212 27.9046 39.5899L29.473 38.3489ZM50.3554 44.1008L50.3637 45.1007L50.3776 45.1006L50.3915 45.1001L50.3554 44.1008ZM55.6453 41.4325L56.2998 42.1887L56.3089 42.1806L55.6453 41.4325ZM64.3444 56.1444L64.9116 56.968L65.0415 56.8786L65.1375 56.7535L64.3444 56.1444ZM46.5506 32.9961L45.7931 32.3432L45.7925 32.3439L46.5506 32.9961ZM63.4843 29.7827L62.9517 30.6291L62.9614 30.6351L63.4843 29.7827ZM62.6371 43.2942L61.8888 42.6308L61.8828 42.6377L62.6371 43.2942ZM53.2151 49.3251L52.8849 48.3811L52.2091 48.6175L52.2151 49.3334L53.2151 49.3251ZM54.7617 50.5922L54.4534 51.5435L54.4766 51.551L54.5001 51.5574L54.7617 50.5922ZM65.5666 49.222L66.0967 50.0699L66.1968 50.0073L66.2796 49.9232L65.5666 49.222ZM59.6067 35.8313C59.6001 35.0408 59.3792 34.2706 58.7762 33.7158C58.1857 33.1727 57.3984 32.9936 56.5989 33.0003L56.6156 35.0002C57.1388 34.9958 57.346 35.1178 57.4221 35.1877C57.4855 35.2461 57.603 35.4011 57.6067 35.8479L59.6067 35.8313ZM56.5989 33.0003C54.4472 33.0182 52.6501 34.1571 51.2124 36.1395L52.8314 37.3137C54.009 35.6901 55.2688 35.0114 56.6156 35.0002L56.5989 33.0003ZM51.2124 36.1395C49.7632 38.1376 49.0694 40.5134 49.0919 43.2153L51.0919 43.1986C51.0724 40.866 51.6653 38.9215 52.8314 37.3137L51.2124 36.1395ZM49.0919 43.2153C49.0946 43.538 49.118 43.8749 49.2023 44.1611C49.2439 44.3023 49.3231 44.5124 49.4891 44.7028C49.6807 44.9226 49.983 45.1039 50.3637 45.1007L50.347 43.1008C50.4774 43.0997 50.6111 43.1285 50.735 43.1891C50.8553 43.248 50.9406 43.3243 50.9967 43.3886C51.0513 43.4512 51.0821 43.5068 51.0976 43.5386C51.1134 43.5711 51.1197 43.5923 51.1207 43.5956C51.1218 43.5995 51.1137 43.5712 51.1058 43.4957C51.0984 43.4235 51.0929 43.3258 51.0919 43.1986L49.0919 43.2153ZM50.3915 45.1001C52.2681 45.0323 54.2479 43.9646 56.2997 42.1886L54.9908 40.6764C53.0606 42.3471 51.5138 43.0582 50.3193 43.1014L50.3915 45.1001ZM56.3089 42.1806C58.435 40.2945 59.6262 38.1755 59.6067 35.8313L57.6067 35.8479C57.6199 37.4289 56.8369 39.0385 54.9817 40.6845L56.3089 42.1806ZM63.7772 55.3208C63.2242 55.7016 62.3149 56.0452 60.9591 56.2913C59.6181 56.5348 57.9152 56.6701 55.8366 56.6874L55.8533 58.6874C57.9985 58.6695 59.8242 58.53 61.3163 58.2591C62.7936 57.991 64.0221 57.5806 64.9116 56.968L63.7772 55.3208ZM55.8366 56.6874C51.8208 56.721 48.8692 55.557 46.8241 53.3183L45.3475 54.6672C47.8669 57.4252 51.4214 58.7244 55.8533 58.6874L55.8366 56.6874ZM46.8241 53.3183C44.745 51.0424 43.6433 47.9602 43.61 43.965L41.6101 43.9817C41.6465 48.349 42.862 51.9463 45.3475 54.6672L46.8241 53.3183ZM43.61 43.965C43.5767 39.9742 44.8102 36.5521 47.3086 33.6483L45.7925 32.3439C42.9664 35.6287 41.5729 39.5249 41.6101 43.9817L43.61 43.965ZM47.308 33.6491C49.7895 30.7705 53.2987 29.2677 57.9755 29.2286L57.9588 27.2287C52.8227 27.2716 48.7208 28.9471 45.7931 32.3432L47.308 33.6491ZM57.9755 29.2286C59.7924 29.2135 61.4433 29.6798 62.9517 30.629L64.017 28.9363C62.1797 27.7801 60.1524 27.2104 57.9588 27.2287L57.9755 29.2286ZM62.9614 30.6351C64.2873 31.4484 65.0706 32.9286 65.0913 35.4015L67.0912 35.3848C67.067 32.4818 66.1124 30.2217 64.0072 28.9303L62.9614 30.6351ZM65.0913 35.4015C65.1107 37.7281 64.1039 40.1324 61.8888 42.6308L63.3853 43.9576C65.8199 41.2117 67.1159 38.3486 67.0912 35.3848L65.0913 35.4015ZM61.8828 42.6377C59.7371 45.1026 56.7558 47.0272 52.8849 48.3811L53.5452 50.269C57.6726 48.8254 60.9726 46.7294 63.3913 43.9508L61.8828 42.6377ZM52.2151 49.3334C52.2204 49.9705 52.5582 50.461 52.9712 50.7994C53.3667 51.1234 53.8857 51.3595 54.4534 51.5435L55.07 49.6409C54.6109 49.4921 54.3587 49.3507 54.2387 49.2523C54.1361 49.1683 54.214 49.1916 54.215 49.3167L52.2151 49.3334ZM54.5001 51.5574C55.6501 51.869 56.7875 52.0233 57.9097 52.014L57.893 50.0141C56.9673 50.0218 56.0116 49.8949 55.0233 49.627L54.5001 51.5574ZM57.9097 52.014C61.2551 51.9861 64.0153 51.3712 66.0967 50.0699L65.0365 48.3741C63.3827 49.408 61.0326 49.9878 57.893 50.0141L57.9097 52.014ZM66.2796 49.9232C66.0704 50.1359 65.8353 50.1558 65.7664 50.1563L65.7498 48.1564C65.5103 48.1584 65.1475 48.222 64.8537 48.5208L66.2796 49.9232ZM65.7664 50.1563C65.329 50.16 65.0746 49.8902 64.9882 49.775C64.9016 49.6596 64.8694 49.5587 64.8637 49.541C64.8483 49.4937 64.8535 49.4891 64.863 49.5726C64.8799 49.7211 64.893 49.9822 64.8963 50.3796L66.8962 50.3629C66.8928 49.9497 66.8794 49.603 66.8502 49.3466C66.8367 49.2276 66.814 49.0712 66.7658 48.9228C66.7436 48.8546 66.6938 48.7159 66.5883 48.5752C66.4831 48.4349 66.2086 48.1526 65.7498 48.1564L65.7664 50.1563ZM64.8963 50.3796C64.9158 52.7241 64.4231 54.4 63.5512 55.5354L65.1375 56.7535C66.3761 55.1405 66.9179 52.9676 66.8962 50.3629L64.8963 50.3796ZM78.2075 14.1073L79.2045 14.1856L79.2079 14.1423L79.2075 14.0989L78.2075 14.1073ZM77.9548 22.1737L76.9551 22.1529L76.9337 23.1822L77.9632 23.1736L77.9548 22.1737ZM82.1489 26.2348L83.0853 26.586L83.0895 26.5743L82.1489 26.2348ZM77.9389 27.934L77.9306 26.934L76.944 26.9423L76.9389 27.9288L77.9389 27.934ZM78.1973 51.2286L77.2028 51.3333L77.2038 51.3424L77.2049 51.3516L78.1973 51.2286ZM80.8666 56.6466L81.8666 56.6382L81.863 56.2067L81.5466 55.9133L80.8666 56.6466ZM78.3878 58.7153L77.9064 57.8388L77.8968 57.8441L78.3878 58.7153ZM73.0179 59.4642L72.2422 60.0953L72.2606 60.1179L72.2802 60.1393L73.0179 59.4642ZM71.8483 57.3618L70.9201 57.734L70.927 57.7512L70.9346 57.7682L71.8483 57.3618ZM71.0563 54.4884L70.0612 54.5872L70.0634 54.6095L70.0666 54.6317L71.0563 54.4884ZM70.9002 28.1207L71.9001 28.1374L71.9175 27.0937L70.874 27.1211L70.9002 28.1207ZM67.3169 28.2146L66.6157 28.9276L66.9185 29.2254L67.3431 29.2143L67.3169 28.2146ZM67.5248 22.4527L67.4711 21.4542L67.1171 21.4732L66.8542 21.7109L67.5248 22.4527ZM70.9156 22.2964L70.9562 23.2956L71.9237 23.2563L71.9156 22.2881L70.9156 22.2964ZM70.6836 17.4982L71.6669 17.3162L71.6669 17.3162L70.6836 17.4982ZM72.6445 14.7297L72.2885 13.7952L72.2796 13.7987L72.6445 14.7297ZM77.2106 14.029C77.1307 15.0467 77.0461 17.7702 76.9551 22.1529L78.9546 22.1944C79.0462 17.786 79.1301 15.1318 79.2045 14.1856L77.2106 14.029ZM77.9632 23.1736C79.5602 23.1603 80.744 23.1664 81.5235 23.1911C81.9175 23.2036 82.1854 23.2202 82.3447 23.2379C82.4318 23.2476 82.4453 23.2534 82.4193 23.2464C82.4141 23.245 82.332 23.2243 82.23 23.1643C82.1858 23.1383 81.761 22.8905 81.7563 22.3339L83.7562 22.3172C83.7515 21.7447 83.3139 21.4815 83.2447 21.4407C83.1175 21.3659 82.9978 21.331 82.9425 21.316C82.8163 21.2818 82.6795 21.2629 82.5664 21.2503C82.3254 21.2234 81.9929 21.205 81.5867 21.1921C80.7658 21.1661 79.5494 21.1603 77.9465 21.1737L77.9632 23.1736ZM81.7563 22.3339C81.7676 23.687 81.5785 24.8695 81.2083 25.8953L83.0895 26.5743C83.5533 25.2891 83.7692 23.8654 83.7562 22.3172L81.7563 22.3339ZM81.2126 25.8836C81.0158 26.4082 80.8479 26.7308 80.723 26.9047C80.6619 26.9899 80.6364 27.0032 80.6562 26.9891C80.6823 26.9704 80.7813 26.9102 80.9385 26.9089L80.9552 28.9088C81.649 28.9031 82.1026 28.4124 82.3476 28.0712C82.6234 27.6871 82.8645 27.1742 83.0852 26.586L81.2126 25.8836ZM80.9385 26.9089L77.9306 26.934L77.9473 28.934L80.9552 28.9088L80.9385 26.9089ZM76.9389 27.9288C76.9063 34.2462 76.9065 39.3927 76.9397 43.3669L78.9396 43.3502C78.9065 39.3886 78.9063 34.2521 78.9389 27.9392L76.9389 27.9288ZM76.9397 43.3669C76.9724 47.2845 77.0579 49.9559 77.2028 51.3333L79.1918 51.124C79.0587 49.8583 78.9724 47.2829 78.9396 43.3502L76.9397 43.3669ZM77.2049 51.3516C77.5056 53.7798 78.4931 55.8095 80.1867 57.3798L81.5466 55.9133C80.2301 54.6926 79.438 53.1104 79.1897 51.1057L77.2049 51.3516ZM79.8667 56.6549C79.8652 56.479 79.9385 56.4046 79.8984 56.4611C79.864 56.5096 79.7797 56.6056 79.6091 56.748C79.269 57.0318 78.7136 57.3954 77.9064 57.8388L78.8692 59.5918C79.7185 59.1253 80.4044 58.6893 80.8906 58.2835C81.1331 58.0811 81.3582 57.8598 81.5294 57.6185C81.6949 57.3853 81.87 57.0487 81.8666 56.6382L79.8667 56.6549ZM77.8968 57.8441C76.3905 58.6931 75.0237 59.0874 73.7828 59.0978L73.7995 61.0977C75.4599 61.0838 77.1575 60.5566 78.8788 59.5865L77.8968 57.8441ZM73.7828 59.0978C73.9023 59.0968 73.9937 59.1201 74.0454 59.1369C74.0987 59.1542 74.1343 59.1724 74.1492 59.1805C74.1763 59.1953 74.1737 59.1978 74.1356 59.1666C74.0608 59.1053 73.9365 58.9868 73.7556 58.789L72.2802 60.1393C72.4868 60.365 72.6852 60.5638 72.8681 60.7137C72.9589 60.788 73.0689 60.8696 73.1925 60.9369C73.2967 60.9937 73.5161 61.1001 73.7995 61.0977L73.7828 59.0978ZM73.7935 58.833C73.535 58.5153 73.1883 57.914 72.762 56.9555L70.9346 57.7682C71.378 58.7651 71.811 59.5654 72.2422 60.0953L73.7935 58.833ZM72.7765 56.9897C72.4105 56.077 72.1692 55.1959 72.0459 54.345L70.0666 54.6317C70.215 55.6559 70.5017 56.6905 70.9201 57.734L72.7765 56.9897ZM72.0514 54.3895C71.964 53.5094 71.8927 50.2221 71.8444 44.4334L69.8445 44.4501C69.8923 50.181 69.9623 53.5915 70.0612 54.5872L72.0514 54.3895ZM71.8444 44.4334C71.7964 38.681 71.815 33.249 71.9001 28.1374L69.9004 28.1041C69.8149 33.2343 69.7963 38.683 69.8445 44.4501L71.8444 44.4334ZM70.874 27.1211L67.2907 27.215L67.3431 29.2143L70.9264 29.1204L70.874 27.1211ZM68.0181 27.5017C68.1549 27.6362 68.165 27.7486 68.1343 27.6435C68.1141 27.5741 68.0874 27.4473 68.0621 27.2449C68.012 26.8432 67.9805 26.2532 67.9739 25.4571L65.974 25.4738C65.9808 26.2989 66.0133 26.9778 66.0775 27.4925C66.1094 27.7482 66.1525 27.9916 66.2145 28.2042C66.2662 28.3811 66.3713 28.6873 66.6157 28.9276L68.0181 27.5017ZM67.9739 25.4571C67.9672 24.6541 68.0093 24.0578 68.0849 23.6441C68.17 23.1788 68.2656 23.1311 68.1954 23.1945L66.8542 21.7109C66.4029 22.1188 66.2161 22.7456 66.1175 23.2844C66.0096 23.875 65.9668 24.6127 65.974 25.4738L67.9739 25.4571ZM67.5785 23.4513C68.5111 23.4011 69.6367 23.3492 70.9562 23.2956L70.875 21.2972C69.55 21.351 68.4151 21.4033 67.4711 21.4542L67.5785 23.4513ZM71.9156 22.2881C71.8951 19.8357 71.8199 18.1432 71.6669 17.3162L69.7003 17.6802C69.8153 18.3017 69.8948 19.8079 69.9157 22.3048L71.9156 22.2881ZM71.6669 17.3162C71.6005 16.9575 71.5518 16.6795 71.52 16.4788C71.5041 16.3782 71.4932 16.3025 71.4866 16.2488C71.4785 16.184 71.4806 16.182 71.4809 16.2115L69.4809 16.2282C69.4822 16.3812 69.5139 16.5977 69.5447 16.792C69.5804 17.0174 69.6326 17.3146 69.7003 17.6802L71.6669 17.3162ZM71.4809 16.2115C71.4816 16.303 71.4623 16.3773 71.442 16.4279C71.4228 16.476 71.404 16.4999 71.4037 16.5004C71.4032 16.5009 71.4146 16.4864 71.4464 16.4583C71.4777 16.4305 71.5231 16.3945 71.5863 16.3509C71.8533 16.167 72.312 15.9341 73.0094 15.6607L72.2796 13.7987C71.531 14.0921 70.9062 14.3909 70.4519 14.7037C70.2248 14.8601 70.0001 15.0471 69.8245 15.273C69.6473 15.501 69.4776 15.8258 69.4809 16.2282L71.4809 16.2115ZM73.0005 15.6642C74.4224 15.1225 75.599 14.8731 76.5498 14.8651L76.5331 12.8652C75.2653 12.8758 73.8439 13.2027 72.2885 13.7952L73.0005 15.6642ZM76.5498 14.8651C77.0926 14.8606 77.4466 14.8793 77.6461 14.9083C77.756 14.9243 77.7501 14.9342 77.6911 14.9076C77.6607 14.8938 77.5591 14.8454 77.4539 14.734C77.3338 14.6068 77.2099 14.3942 77.2076 14.1156L79.2075 14.0989C79.2019 13.4237 78.6459 13.1442 78.5141 13.0847C78.3159 12.9952 78.1015 12.9535 77.9337 12.9291C77.5779 12.8774 77.0996 12.8605 76.5331 12.8652L76.5498 14.8651ZM98.001 57.3996L98.0094 58.3996L98.1191 58.3986L98.2261 58.3739L98.001 57.3996ZM98.2052 51.1897L97.7505 50.299L97.5485 50.4021L97.4107 50.5823L98.2052 51.1897ZM100.698 50.7848L100.706 51.7848L101.767 51.776L101.696 50.7178L100.698 50.7848ZM100.633 20.0003L101.621 20.1565L101.805 18.9905L100.625 19.0004L100.633 20.0003ZM97.6283 20.4094L97.6366 21.4094L97.7989 21.408L97.9524 21.3554L97.6283 20.4094ZM102.946 13.4528L102.871 12.4557L102.871 12.4557L102.946 13.4528ZM111.08 14.0889L112.08 14.1211L112.08 14.1008L112.08 14.0806L111.08 14.0889ZM110.928 18.8264L109.928 18.7942L109.927 18.8144L109.928 18.8347L110.928 18.8264ZM108.435 19.2312L108.89 20.1218L109.034 20.0481L109.148 19.9324L108.435 19.2312ZM108.265 21.8567L109.265 21.8737L109.265 21.8733L108.265 21.8567ZM108.757 50.1416L107.769 50.2991L107.916 51.217L108.842 51.1379L108.757 50.1416ZM111.389 51.0556C110.83 51.0603 110.59 50.6313 110.572 50.601C110.523 50.5151 110.514 50.4601 110.523 50.4962C110.537 50.5515 110.56 50.6885 110.583 50.9421C110.626 51.4339 110.654 52.2011 110.663 53.2618L112.663 53.2451C112.654 52.1725 112.626 51.3401 112.575 50.766C112.55 50.4866 112.517 50.2241 112.464 50.0133C112.44 49.9163 112.396 49.7616 112.309 49.6093C112.254 49.5126 111.973 49.0507 111.372 49.0557L111.389 51.0556ZM110.663 53.2618C110.672 54.2978 110.645 55.0324 110.593 55.4929C110.58 55.605 110.567 55.6923 110.554 55.7578C110.548 55.7902 110.542 55.8148 110.537 55.8325C110.533 55.8506 110.53 55.8585 110.53 55.8582C110.53 55.8578 110.531 55.8543 110.534 55.8482C110.536 55.8422 110.541 55.8325 110.547 55.8199C110.559 55.7968 110.585 55.7517 110.63 55.6983C110.722 55.5892 110.945 55.3955 111.297 55.3926L111.313 57.3925C111.729 57.389 112.012 57.1621 112.159 56.9872C112.297 56.8244 112.371 56.6493 112.413 56.5321C112.499 56.2906 112.548 56.0025 112.58 55.7194C112.647 55.1335 112.672 54.2997 112.663 53.2451L110.663 53.2618ZM111.297 55.3926C105.105 55.4442 100.574 55.7788 97.7759 56.4252L98.2261 58.3739C100.793 57.7809 105.133 57.4441 111.313 57.3925L111.297 55.3926ZM97.9927 56.3996C98.3196 56.3969 98.5507 56.5525 98.6708 56.668C98.7812 56.7741 98.8353 56.8783 98.8545 56.9177C98.8941 56.9988 98.9008 57.0495 98.8936 57.0157C98.883 56.966 98.8654 56.8443 98.8482 56.6205C98.815 56.1866 98.7933 55.5105 98.7855 54.5769L96.7856 54.5936C96.7934 55.5374 96.8155 56.2689 96.8541 56.7732C96.8728 57.0184 96.8982 57.2483 96.9375 57.4329C96.9553 57.5162 96.9888 57.6547 97.0568 57.7942C97.0902 57.8628 97.1591 57.9889 97.2845 58.1096C97.4198 58.2396 97.6664 58.4024 98.0094 58.3996L97.9927 56.3996ZM98.7855 54.5769C98.7778 53.658 98.8089 52.9549 98.8711 52.4511C98.9023 52.1992 98.9388 52.018 98.974 51.8949C99.0128 51.7597 99.0342 51.7518 98.9996 51.797L97.4107 50.5823C97.2285 50.8208 97.1216 51.0993 97.0515 51.3437C96.978 51.6002 96.9251 51.8917 96.8862 52.2058C96.8086 52.8339 96.7776 53.6353 96.7856 54.5936L98.7855 54.5769ZM98.6599 52.0803C98.9511 51.9316 99.583 51.7942 100.706 51.7848L100.69 49.7849C99.5089 49.7947 98.479 49.9272 97.7505 50.299L98.6599 52.0803ZM101.696 50.7178C101.601 49.3054 101.515 44.1832 101.441 35.2901L99.4407 35.3068C99.5146 44.1625 99.6002 49.3644 99.7002 50.8519L101.696 50.7178ZM101.441 35.2901C101.403 30.8343 101.401 27.3382 101.433 24.7987C101.465 22.2228 101.533 20.71 101.621 20.1565L99.6453 19.8442C99.5301 20.5723 99.4647 22.2502 99.433 24.7736C99.4008 27.3335 99.4035 30.8456 99.4407 35.3068L101.441 35.2901ZM100.625 19.0004L100.497 19.0014L100.513 21.0014L100.641 21.0003L100.625 19.0004ZM100.497 19.0014C99.2788 19.0116 98.2047 19.1548 97.3042 19.4634L97.9524 21.3554C98.5836 21.1392 99.4273 21.0104 100.513 21.0014L100.497 19.0014ZM97.62 19.4094C98.1284 19.4052 98.3877 19.7594 98.4401 19.8367C98.5143 19.9459 98.5441 20.0404 98.5503 20.0596C98.5671 20.1122 98.5673 20.1347 98.5609 20.0894C98.5503 20.0147 98.5372 19.8706 98.5249 19.6375C98.5008 19.1807 98.4842 18.4789 98.4762 17.5222L96.4763 17.5389C96.4843 18.5022 96.5011 19.2402 96.5277 19.743C96.5407 19.9896 96.5573 20.2053 96.5807 20.3703C96.5913 20.4449 96.6096 20.5573 96.6456 20.6697C96.6613 20.7189 96.701 20.8357 96.7853 20.9599C96.8479 21.0521 97.1175 21.4137 97.6366 21.4094L97.62 19.4094ZM98.4762 17.5222C98.4682 16.5552 98.494 15.8312 98.5474 15.3322C98.5742 15.0811 98.6052 14.915 98.6323 14.8156C98.6694 14.6795 98.6705 14.7735 98.5455 14.9007L97.1195 13.4983C96.8675 13.7545 96.7586 14.0841 96.7025 14.2902C96.6365 14.5329 96.5912 14.8154 96.5587 15.1195C96.4933 15.7309 96.468 16.5433 96.4763 17.5389L98.4762 17.5222ZM98.5455 14.9007C98.4344 15.0136 98.3388 15.0434 98.3789 15.0268C98.397 15.0193 98.4478 15.001 98.5455 14.9757C98.7395 14.9255 99.0344 14.8688 99.4458 14.8087C100.264 14.6893 101.452 14.5692 103.022 14.4499L102.871 12.4557C101.286 12.5761 100.044 12.7002 99.1569 12.8297C98.716 12.8941 98.3399 12.963 98.0443 13.0395C97.8972 13.0776 97.7485 13.123 97.6124 13.1795C97.4984 13.2268 97.294 13.3209 97.1195 13.4983L98.5455 14.9007ZM103.022 14.4499C106.165 14.2112 108.785 14.0841 110.888 14.0665L110.871 12.0666C108.707 12.0847 106.039 12.215 102.871 12.4557L103.022 14.4499ZM110.888 14.0665C110.663 14.0684 110.468 13.9895 110.325 13.8826C110.196 13.7863 110.127 13.6812 110.097 13.6274C110.04 13.5287 110.035 13.4664 110.044 13.5138C110.059 13.5903 110.077 13.7707 110.08 14.0973L112.08 14.0806C112.077 13.7245 112.059 13.3932 112.007 13.1289C111.983 13.0059 111.937 12.816 111.831 12.6323C111.731 12.4564 111.433 12.0619 110.871 12.0666L110.888 14.0665ZM110.081 14.0568L109.928 18.7942L111.927 18.8585L112.08 14.1211L110.081 14.0568ZM109.928 18.8347C109.927 18.8239 109.923 18.6335 110.076 18.4255C110.16 18.3118 110.274 18.2177 110.408 18.1569C110.536 18.0986 110.651 18.0846 110.729 18.084L110.746 20.0839C111.054 20.0814 111.429 19.9604 111.686 19.6121C111.903 19.3182 111.929 18.9995 111.928 18.818L109.928 18.8347ZM110.729 18.084C109.999 18.0901 109.422 18.1055 109.01 18.1319C108.807 18.1449 108.622 18.1618 108.47 18.1859C108.396 18.1977 108.304 18.215 108.211 18.243C108.168 18.2558 107.926 18.3228 107.722 18.53L109.148 19.9324C109.039 20.0427 108.933 20.0973 108.891 20.1174C108.84 20.1416 108.801 20.1538 108.787 20.1583C108.757 20.167 108.751 20.1664 108.783 20.1612C108.844 20.1516 108.957 20.1394 109.138 20.1278C109.494 20.1051 110.026 20.0899 110.746 20.0839L110.729 18.084ZM107.98 18.3405C107.707 18.48 107.581 18.6987 107.544 18.7653C107.493 18.8577 107.464 18.9415 107.449 18.9904C107.418 19.0913 107.4 19.192 107.388 19.2672C107.364 19.4263 107.345 19.6281 107.331 19.8554C107.301 20.3176 107.279 20.9825 107.265 21.84L109.265 21.8733C109.279 21.0239 109.3 20.3977 109.326 19.9847C109.34 19.7745 109.354 19.6427 109.365 19.5721C109.371 19.5325 109.371 19.5444 109.359 19.5825C109.354 19.5999 109.335 19.6588 109.294 19.7328C109.268 19.781 109.152 19.9878 108.89 20.1218L107.98 18.3405ZM107.265 21.8397C107.15 28.5879 107.114 34.4426 107.155 39.4026L109.155 39.3859C109.114 34.4475 109.15 28.6105 109.265 21.8737L107.265 21.8397ZM107.155 39.4026C107.196 44.3158 107.397 47.9618 107.769 50.2991L109.744 49.9841C109.397 47.8045 109.196 44.2856 109.155 39.3859L107.155 39.4026ZM108.842 51.1379C109.355 51.0941 110.197 51.0656 111.389 51.0556L111.372 49.0557C110.174 49.0657 109.267 49.0944 108.672 49.1452L108.842 51.1379ZM125.364 41.2347L124.364 41.243L124.364 41.2565L124.365 41.27L125.364 41.2347ZM125.448 43.602L126.448 43.5937L126.448 43.5802L126.447 43.5667L125.448 43.602ZM125.292 55.5718L126.005 56.2729L126.005 56.2729L125.292 55.5718ZM122.422 56.8758L122.644 57.8508L122.644 57.8508L122.422 56.8758ZM117.753 57.1707L116.763 57.0253L116.752 57.1018L116.753 57.1791L117.753 57.1707ZM118.122 47.6953L119.122 47.687L119.121 47.6737L118.122 47.6953ZM117.81 33.2974L116.81 33.3058L116.81 33.3191L117.81 33.2974ZM118.094 29.0069L118.807 29.7081L118.807 29.7081L118.094 29.0069ZM120.516 27.7707L120.808 28.7271L120.824 28.7221L120.84 28.7167L120.516 27.7707ZM125.249 27.4751L126.243 27.5909L126.25 27.5291L126.249 27.4668L125.249 27.4751ZM125.288 32.083L125.296 33.0829L125.599 33.0804L125.849 32.9104L125.288 32.083ZM125.479 31.9534L126.04 32.7808L126.192 32.6778L126.297 32.5278L125.479 31.9534ZM126.429 30.8574L127.142 31.5586L127.159 31.5416L127.175 31.5239L126.429 30.8574ZM129.102 29.043L129.579 29.9223L129.589 29.9169L129.102 29.043ZM136.266 28.5352L135.792 29.4154L135.818 29.4293L135.844 29.4417L136.266 28.5352ZM138.456 30.117L137.706 30.7782L137.706 30.7782L138.456 30.117ZM139.887 32.8572L138.937 33.1711L138.942 33.1863L138.948 33.2014L139.887 32.8572ZM140.874 36.177L141.852 35.9649L141.852 35.9649L140.874 36.177ZM141.421 40.2686L142.419 40.2058L142.418 40.1957L142.417 40.1855L141.421 40.2686ZM141.687 49.2267L142.687 49.244L142.687 49.2312L142.687 49.2184L141.687 49.2267ZM141.558 56.7161L140.558 56.6988L140.558 56.7116L140.558 56.7244L141.558 56.7161ZM139.453 57.5657L139.266 56.5833L139.251 56.586L139.237 56.5892L139.453 57.5657ZM136.065 58.0419L135.923 59.0319L135.998 59.0425L136.073 59.0419L136.065 58.0419ZM133.95 57.7396L132.955 57.6375L132.857 58.5935L133.809 58.7295L133.95 57.7396ZM133.725 38.4768L132.759 38.7327L132.76 38.7382L133.725 38.4768ZM127.44 36.9292L126.783 36.1754L126.774 36.1833L126.765 36.1915L127.44 36.9292ZM125.795 39.247L126.723 39.62L126.736 39.5881L126.747 39.5553L125.795 39.247ZM125.357 40.3387L124.429 39.9657L124.355 40.1492L124.357 40.347L125.357 40.3387ZM124.365 41.27L124.448 43.6374L126.447 43.5667L126.363 41.1993L124.365 41.27ZM124.448 43.6104L124.488 48.4742L126.488 48.4575L126.448 43.5937L124.448 43.6104ZM124.488 48.4742C124.507 50.7536 124.5 52.4726 124.468 53.6386C124.452 54.2241 124.43 54.6536 124.403 54.9388C124.39 55.0842 124.377 55.1691 124.369 55.2094C124.365 55.2307 124.367 55.2169 124.378 55.1835C124.379 55.1808 124.428 55.0241 124.579 54.8706L126.005 56.2729C126.177 56.0979 126.246 55.9025 126.266 55.844C126.297 55.7547 126.317 55.668 126.331 55.5992C126.359 55.4592 126.379 55.2951 126.395 55.1229C126.427 54.773 126.451 54.2927 126.467 53.6939C126.501 52.4912 126.507 50.7433 126.488 48.4575L124.488 48.4742ZM124.579 54.8706C124.232 55.2236 123.504 55.6042 122.201 55.9007L122.644 57.8508C124.067 57.5272 125.252 57.0385 126.005 56.2729L124.579 54.8706ZM122.201 55.9007C120.874 56.2026 119.822 56.3454 119.026 56.3521L119.043 58.352C120.039 58.3437 121.246 58.169 122.644 57.8508L122.201 55.9007ZM119.026 56.3521C118.611 56.3555 118.351 56.3414 118.214 56.3219C118.135 56.3108 118.163 56.3066 118.236 56.3388C118.273 56.355 118.381 56.4058 118.492 56.5199C118.617 56.6497 118.75 56.87 118.753 57.1624L116.753 57.1791C116.758 57.857 117.326 58.1235 117.431 58.1694C117.611 58.2486 117.799 58.2831 117.934 58.3022C118.224 58.3432 118.605 58.3557 119.043 58.352L119.026 56.3521ZM118.742 57.3162C119.037 55.3109 119.158 52.0853 119.122 47.687L117.122 47.7037C117.158 52.0944 117.034 55.1857 116.763 57.0253L118.742 57.3162ZM119.121 47.6737L118.809 33.2758L116.81 33.3191L117.122 47.717L119.121 47.6737ZM118.81 33.2891C118.799 31.9743 118.817 30.9847 118.862 30.307C118.884 29.9653 118.912 29.7284 118.94 29.5791C118.954 29.5036 118.964 29.4745 118.963 29.4761C118.963 29.4779 118.955 29.5001 118.937 29.5343C118.92 29.5658 118.88 29.6336 118.807 29.7081L117.381 28.3057C117.198 28.4914 117.114 28.7053 117.076 28.813C117.03 28.9443 116.998 29.0829 116.974 29.2131C116.925 29.4751 116.891 29.8014 116.866 30.1748C116.816 30.9272 116.798 31.9753 116.81 33.3058L118.81 33.2891ZM118.807 29.7081C119.095 29.415 119.708 29.0629 120.808 28.7271L120.223 26.8143C119.025 27.1803 118.023 27.6524 117.381 28.3057L118.807 29.7081ZM120.84 28.7167C121.91 28.35 122.867 28.175 123.719 28.1679L123.702 26.168C122.591 26.1773 121.419 26.4041 120.191 26.8246L120.84 28.7167ZM123.719 28.1679C124.214 28.1638 124.515 28.1886 124.667 28.219C124.752 28.2359 124.713 28.2399 124.629 28.1883C124.581 28.1589 124.489 28.0932 124.405 27.9727C124.313 27.841 124.251 27.6713 124.249 27.4835L126.249 27.4668C126.245 26.9365 125.899 26.6212 125.675 26.4836C125.462 26.3531 125.231 26.292 125.059 26.2577C124.699 26.1858 124.231 26.1636 123.702 26.168L123.719 28.1679ZM124.256 27.3594C124.132 28.4253 124.074 29.4912 124.083 30.557L126.083 30.5403C126.075 29.5581 126.128 28.5751 126.243 27.5909L124.256 27.3594ZM124.083 30.557C124.087 31.0785 124.107 31.513 124.149 31.8325C124.169 31.9824 124.202 32.1714 124.27 32.3466C124.302 32.431 124.368 32.5804 124.495 32.7241C124.635 32.8806 124.905 33.0862 125.296 33.0829L125.279 31.083C125.639 31.08 125.879 31.2699 125.99 31.3946C126.089 31.5065 126.128 31.6082 126.136 31.6288C126.155 31.6763 126.146 31.6737 126.132 31.5679C126.106 31.376 126.087 31.0428 126.083 30.5403L124.083 30.557ZM125.849 32.9104L126.04 32.7808L124.917 31.126L124.726 31.2556L125.849 32.9104ZM126.297 32.5278C126.463 32.2918 126.737 31.9711 127.142 31.5586L125.717 30.1562C125.276 30.6041 124.916 31.014 124.66 31.379L126.297 32.5278ZM127.175 31.5239C127.469 31.1948 128.217 30.6606 129.579 29.9222L128.626 28.1639C127.27 28.8989 126.235 29.5742 125.684 30.1909L127.175 31.5239ZM129.589 29.9169C130.886 29.1951 132.041 28.8665 133.069 28.8579L133.052 26.858C131.605 26.8701 130.122 27.3315 128.616 28.1692L129.589 29.9169ZM133.069 28.8579C134.232 28.8482 135.122 29.0544 135.792 29.4154L136.741 27.655C135.696 27.0916 134.45 26.8463 133.052 26.858L133.069 28.8579ZM135.844 29.4417C136.64 29.8125 137.251 30.2626 137.706 30.7782L139.206 29.4558C138.54 28.7008 137.692 28.0964 136.689 27.6288L135.844 29.4417ZM137.706 30.7782C138.144 31.2759 138.567 32.0515 138.937 33.1711L140.836 32.5432C140.418 31.28 139.887 30.2288 139.206 29.4558L137.706 30.7782ZM138.948 33.2014C139.372 34.358 139.687 35.4201 139.897 36.3892L141.852 35.9649C141.618 34.8897 141.275 33.7384 140.826 32.513L138.948 33.2014ZM139.897 36.3892C140.106 37.3507 140.283 38.666 140.424 40.3517L142.417 40.1855C142.273 38.4601 142.087 37.0478 141.852 35.9649L139.897 36.3892ZM140.423 40.3314C140.569 42.6519 140.657 45.6181 140.687 49.2351L142.687 49.2184C142.657 45.5823 142.568 42.5764 142.419 40.2058L140.423 40.3314ZM140.687 49.2094L140.558 56.6988L142.558 56.7333L142.687 49.244L140.687 49.2094ZM140.558 56.7244C140.555 56.3699 140.767 56.1859 140.788 56.1685C140.816 56.1455 140.793 56.171 140.659 56.2251C140.401 56.3295 139.95 56.4529 139.266 56.5833L139.64 58.548C140.361 58.4107 140.965 58.2586 141.408 58.0798C141.624 57.9923 141.865 57.8743 142.067 57.7058C142.263 57.543 142.562 57.2116 142.558 56.7077L140.558 56.7244ZM139.237 56.5892C137.86 56.8933 136.809 57.0357 136.056 57.042L136.073 59.0419C137.027 59.0339 138.235 58.8588 139.669 58.5421L139.237 56.5892ZM136.206 57.052L134.092 56.7497L133.809 58.7295L135.923 59.0319L136.206 57.052ZM134.945 57.8417C135.343 53.9644 135.527 50.2138 135.497 46.5903L133.497 46.607C133.527 50.1512 133.346 53.8279 132.955 57.6375L134.945 57.8417ZM135.497 46.5903C135.467 42.9433 135.209 40.1312 134.691 38.2154L132.76 38.7382C133.21 40.3984 133.467 43.0009 133.497 46.607L135.497 46.5903ZM134.692 38.2209C134.422 37.2024 133.996 36.3267 133.345 35.7007C132.669 35.0509 131.822 34.7405 130.878 34.7484L130.895 36.7483C131.359 36.7445 131.689 36.883 131.959 37.1427C132.254 37.4261 132.544 37.9205 132.759 38.7327L134.692 38.2209ZM130.878 34.7484C129.28 34.7618 127.886 35.214 126.783 36.1754L128.097 37.683C128.774 37.0935 129.677 36.7585 130.895 36.7483L130.878 34.7484ZM126.765 36.1915C125.841 37.0373 125.165 37.9493 124.844 38.9387L126.747 39.5553C126.925 39.0044 127.346 38.3713 128.115 37.6669L126.765 36.1915ZM124.868 38.874L124.429 39.9657L126.284 40.7117L126.723 39.62L124.868 38.874ZM124.357 40.347L124.364 41.243L126.364 41.2263L126.357 40.3303L124.357 40.347ZM167.427 50.1639L166.427 50.1555L166.427 50.1639L166.427 50.1723L167.427 50.1639ZM167.652 23.5371L168.652 23.5456L168.652 23.5372L168.652 23.5288L167.652 23.5371ZM167.432 20.1468L166.605 20.7085L166.717 20.874L166.884 20.9835L167.432 20.1468ZM159.372 20.6621L159.238 19.6711L159.228 19.6725L159.217 19.6742L159.372 20.6621ZM157.646 20.9325L156.654 21.0555L156.781 22.0804L157.801 21.9205L157.646 20.9325ZM157.44 19.2702L156.44 19.2785L156.441 19.336L156.448 19.3931L157.44 19.2702ZM158.419 13.8858L157.521 13.4461L157.511 13.4665L157.502 13.4873L158.419 13.8858ZM158.797 13.1147L158.776 12.1149L158.167 12.1278L157.899 12.6749L158.797 13.1147ZM170.057 12.6367L170.117 13.635L170.126 13.6343L170.057 12.6367ZM186.285 16.8534L187.278 16.9691L187.279 16.9662L186.285 16.8534ZM185.542 19.8677L185.338 20.8466L185.873 20.9581L186.255 20.5689L185.542 19.8677ZM175.942 19.8198L176.655 20.521L176.655 20.521L175.942 19.8198ZM177.718 56.2863L178.718 56.2779L178.716 56.0229L178.592 55.8001L177.718 56.2863ZM175.232 57.4591L175.023 56.4812L175.023 56.4812L175.232 57.4591ZM167.935 57.4559L167.188 58.1207L167.333 58.2835L167.533 58.3713L167.935 57.4559ZM168.427 50.1724L168.652 23.5456L166.652 23.5286L166.427 50.1555L168.427 50.1724ZM168.652 23.5288C168.643 22.4357 168.62 21.5866 168.582 20.9928C168.562 20.6996 168.538 20.4433 168.505 20.2419C168.488 20.1446 168.465 20.0268 168.427 19.9121C168.408 19.855 168.376 19.7716 168.326 19.682C168.282 19.6049 168.178 19.4401 167.98 19.3102L166.884 20.9835C166.702 20.8641 166.614 20.718 166.585 20.6678C166.55 20.6051 166.533 20.5568 166.529 20.5428C166.519 20.5146 166.523 20.5159 166.532 20.5703C166.549 20.6726 166.568 20.8506 166.586 21.1225C166.621 21.6587 166.643 22.4626 166.652 23.5455L168.652 23.5288ZM168.259 19.5852C168.091 19.3369 167.865 19.2111 167.722 19.1485C167.57 19.0816 167.417 19.0444 167.287 19.0211C167.027 18.9747 166.721 18.9607 166.398 18.9634L166.415 20.9634C166.547 20.9623 166.657 20.9649 166.747 20.9703C166.838 20.9757 166.899 20.9834 166.935 20.9899C166.976 20.9973 166.961 20.9988 166.917 20.9791C166.892 20.9683 166.848 20.9464 166.794 20.9072C166.741 20.8677 166.669 20.804 166.605 20.7085L168.259 19.5852ZM166.398 18.9634C165.005 18.9751 162.602 19.2168 159.238 19.6711L159.506 21.6531C162.876 21.1979 165.163 20.9738 166.415 20.9634L166.398 18.9634ZM159.217 19.6742L157.491 19.9446L157.801 21.9205L159.527 21.6501L159.217 19.6742ZM158.639 20.8096L158.433 19.1473L156.448 19.3931L156.654 21.0555L158.639 20.8096ZM158.44 19.2619C158.424 17.324 158.733 15.6728 159.337 14.2843L157.502 13.4873C156.766 15.1821 156.422 17.1206 156.44 19.2785L158.44 19.2619ZM159.318 14.3256L159.695 13.5544L157.899 12.6749L157.521 13.4461L159.318 14.3256ZM158.818 14.1144C162.161 14.0437 165.928 13.8837 170.117 13.6349L169.998 11.6384C165.828 11.8861 162.088 12.0448 158.776 12.1149L158.818 14.1144ZM170.126 13.6343C174.333 13.3441 178.108 13.1855 181.454 13.1576L181.438 11.1576C178.042 11.186 174.226 11.3467 169.989 11.639L170.126 13.6343ZM181.454 13.1576C183.157 13.1434 184.417 13.1542 185.245 13.1887C185.664 13.2062 185.944 13.2286 186.107 13.2517C186.197 13.2644 186.202 13.2708 186.165 13.2581C186.152 13.2538 186.061 13.2237 185.954 13.145C185.86 13.0752 185.572 12.8281 185.568 12.3792L187.568 12.3625C187.564 11.8923 187.262 11.6246 187.141 11.5351C187.007 11.4366 186.876 11.3875 186.81 11.365C186.666 11.3158 186.511 11.2889 186.387 11.2714C186.123 11.234 185.762 11.2085 185.328 11.1904C184.448 11.1538 183.148 11.1434 181.438 11.1576L181.454 13.1576ZM185.568 12.3792C185.578 13.5631 185.487 15.0144 185.292 16.7406L187.279 16.9662C187.48 15.1902 187.579 13.6532 187.568 12.3625L185.568 12.3792ZM185.292 16.7376C185.195 17.5736 185.089 18.205 184.979 18.649C184.924 18.8711 184.874 19.0255 184.832 19.1255C184.785 19.2395 184.773 19.2237 184.829 19.1665L186.255 20.5689C186.46 20.3611 186.59 20.1068 186.679 19.8943C186.773 19.6679 186.852 19.4078 186.921 19.1275C187.059 18.5667 187.177 17.8416 187.278 16.9691L185.292 16.7376ZM185.747 18.8888C184.645 18.6588 182.729 18.5711 180.092 18.5931L180.108 20.5931C182.761 20.5709 184.474 20.6663 185.338 20.8466L185.747 18.8888ZM180.092 18.5931C178.765 18.6042 177.738 18.6288 177.022 18.6678C176.667 18.6872 176.368 18.7111 176.139 18.7421C176.027 18.7572 175.907 18.7773 175.795 18.8066C175.739 18.8211 175.665 18.8433 175.585 18.8777C175.521 18.9054 175.37 18.975 175.229 19.1186L176.655 20.521C176.529 20.6485 176.404 20.7024 176.376 20.7148C176.331 20.7338 176.302 20.7412 176.302 20.7413C176.3 20.7417 176.33 20.7345 176.407 20.724C176.557 20.7038 176.793 20.6833 177.131 20.6649C177.8 20.6284 178.79 20.6041 180.108 20.5931L180.092 18.5931ZM175.229 19.1186C175.1 19.2489 175.033 19.3849 175.003 19.4526C174.967 19.5319 174.943 19.6068 174.926 19.6653C174.893 19.7822 174.869 19.9086 174.851 20.0283C174.814 20.2718 174.784 20.589 174.758 20.9656C174.706 21.7244 174.668 22.807 174.643 24.204C174.591 27.0023 174.588 31.1146 174.633 36.5353L176.633 36.5186C176.588 31.1024 176.591 27.0117 176.642 24.2409C176.668 22.8534 176.705 21.81 176.753 21.1012C176.778 20.7441 176.803 20.4921 176.828 20.3311C176.834 20.2924 176.839 20.2628 176.844 20.2411C176.848 20.2186 176.851 20.2096 176.85 20.2107C176.85 20.2116 176.849 20.2174 176.845 20.227C176.842 20.2363 176.836 20.2528 176.826 20.2743C176.813 20.3027 176.764 20.4095 176.655 20.521L175.229 19.1186ZM174.633 36.5353C174.678 41.9686 174.875 46.3605 175.228 49.6995C175.574 52.9849 176.084 55.4059 176.844 56.7724L178.592 55.8001C178.053 54.8307 177.565 52.7906 177.217 49.4896C176.874 46.2421 176.678 41.9223 176.633 36.5186L174.633 36.5353ZM176.718 56.2946L176.719 56.3586L178.719 56.3419L178.718 56.2779L176.718 56.2946ZM176.719 56.3586C176.716 56.0613 176.881 55.9054 176.891 55.8969C176.9 55.8882 176.854 55.9297 176.692 56.0021C176.374 56.1438 175.833 56.3079 175.023 56.4812L175.441 58.4369C176.291 58.255 176.995 58.0567 177.506 57.8288C177.758 57.7164 178.023 57.5713 178.239 57.3742C178.455 57.1773 178.723 56.8312 178.719 56.3419L176.719 56.3586ZM175.023 56.4812C173.387 56.8309 172.142 56.9968 171.26 57.0042L171.276 59.0041C172.357 58.9951 173.754 58.7976 175.441 58.4369L175.023 56.4812ZM171.26 57.0042C169.976 57.0149 169.02 56.8406 168.338 56.5406L167.533 58.3713C168.564 58.825 169.829 59.0162 171.276 59.0041L171.26 57.0042ZM168.682 56.7912C168.793 56.9157 168.808 57.0134 168.783 56.9333C168.768 56.8847 168.745 56.7923 168.72 56.6419C168.669 56.3433 168.621 55.9041 168.58 55.3092C168.497 54.1247 168.445 52.4105 168.427 50.1556L166.427 50.1723C166.446 52.4399 166.498 54.2023 166.585 55.4484C166.628 56.0689 166.681 56.5835 166.748 56.9773C166.781 57.1731 166.822 57.3615 166.874 57.5283C166.916 57.6637 167.002 57.9115 167.188 58.1207L168.682 56.7912ZM212.546 52.1555L211.77 51.5239L211.769 51.525L212.546 52.1555ZM193.366 31.6428L192.625 30.9715L192.624 30.9719L193.366 31.6428ZM205.357 26.6786L205.39 25.6791L205.369 25.6784L205.349 25.6786L205.357 26.6786ZM208.78 30.3621L207.792 30.206L207.608 31.372L208.788 31.3621L208.78 30.3621ZM211.221 31.4938L210.612 32.2864L210.63 32.301L210.65 32.3146L211.221 31.4938ZM213.736 33.7129L214.499 33.0663L214.499 33.0663L213.736 33.7129ZM215.427 36.9629L214.481 37.287L214.484 37.2959L215.427 36.9629ZM206.788 37.163L206.249 38.0051L206.261 38.0127L206.273 38.0199L206.788 37.163ZM203.389 36.2313L202.498 36.686L202.779 37.2365L203.397 37.2313L203.389 36.2313ZM203.43 33.5429L204.402 33.7773L204.702 32.5322L203.422 32.5429L203.43 33.5429ZM198.522 35.9519L197.799 35.2605L197.79 35.2708L198.522 35.9519ZM199.595 49.4475L200.122 48.5975L200.112 48.5915L200.102 48.5857L199.595 49.4475ZM206.944 48.1701L206.22 47.4807L206.214 47.4868L206.208 47.493L206.944 48.1701ZM215.17 41.5732C215.201 45.4048 214.066 48.7059 211.77 51.5239L213.321 52.787C215.925 49.5906 217.205 45.8313 217.169 41.5565L215.17 41.5732ZM211.769 51.525C209.572 54.2312 206.552 55.6216 202.591 55.6547L202.607 57.6546C207.094 57.6172 210.705 56.0081 213.322 52.7859L211.769 51.525ZM202.591 55.6547C198.633 55.6877 195.626 54.4909 193.442 52.1506L191.98 53.5154C194.617 56.3404 198.202 57.6914 202.607 57.6546L202.591 55.6547ZM193.442 52.1506C191.23 49.7819 190.075 46.6767 190.042 42.7429L188.042 42.7596C188.079 47.1029 189.369 50.7188 191.98 53.5154L193.442 52.1506ZM190.042 42.7429C190.01 38.8234 191.351 35.3604 194.107 32.3137L192.624 30.9719C189.546 34.3742 188.005 38.3168 188.042 42.7596L190.042 42.7429ZM194.107 32.3141C196.851 29.2841 200.566 27.7186 205.365 27.6785L205.349 25.6786C200.078 25.7226 195.799 27.4666 192.625 30.9715L194.107 32.3141ZM205.324 27.678C206.34 27.7119 207.101 27.7577 207.62 27.8131C207.882 27.8411 208.058 27.8692 208.164 27.893C208.218 27.9051 208.232 27.9113 208.22 27.9069C208.213 27.9043 208.189 27.8946 208.154 27.875C208.122 27.8569 208.057 27.8173 207.987 27.7478L209.389 26.3218C209.22 26.1559 209.031 26.076 208.939 26.0405C208.826 25.9969 208.709 25.9655 208.602 25.9416C208.388 25.8935 208.126 25.8558 207.832 25.8245C207.241 25.7612 206.422 25.7135 205.39 25.6791L205.324 27.678ZM207.987 27.7478C207.92 27.6822 207.894 27.6272 207.891 27.6196C207.887 27.611 207.895 27.6268 207.907 27.6793C207.931 27.788 207.952 27.9731 207.954 28.257L209.954 28.2403C209.951 27.8841 209.925 27.547 209.86 27.251C209.801 26.9794 209.681 26.6086 209.389 26.3218L207.987 27.7478ZM207.954 28.257C207.959 28.8316 207.907 29.4801 207.792 30.206L209.767 30.5183C209.896 29.7061 209.96 28.9456 209.954 28.2403L207.954 28.257ZM208.788 31.3621C209.074 31.3597 209.658 31.553 210.612 32.2864L211.831 30.7012C210.809 29.9151 209.765 29.3539 208.771 29.3622L208.788 31.3621ZM210.65 32.3146C211.626 32.9938 212.395 33.6773 212.973 34.3595L214.499 33.0663C213.784 32.2232 212.876 31.4273 211.792 30.673L210.65 32.3146ZM212.973 34.3595C213.51 34.9926 214.023 35.9491 214.481 37.287L216.373 36.6388C215.869 35.1686 215.255 33.9584 214.499 33.0663L212.973 34.3595ZM214.484 37.2959C214.922 38.5359 215.156 39.9576 215.17 41.5732L217.169 41.5565C217.154 39.7589 216.894 38.1126 216.37 36.6299L214.484 37.2959ZM207.328 36.3208C206.218 35.6104 205.068 35.2173 203.892 35.2271L203.909 37.227C204.61 37.2212 205.385 37.452 206.249 38.0051L207.328 36.3208ZM203.892 35.2271L203.38 35.2314L203.397 37.2313L203.909 37.227L203.892 35.2271ZM204.279 35.7767C204.304 35.8243 204.307 35.8481 204.302 35.8263C204.297 35.8083 204.289 35.7704 204.281 35.707C204.265 35.579 204.254 35.3922 204.251 35.1361L202.251 35.1528C202.254 35.4514 202.268 35.723 202.297 35.9573C202.324 36.1682 202.373 36.4422 202.498 36.686L204.279 35.7767ZM204.251 35.1361C204.247 34.659 204.299 34.2069 204.402 33.7773L202.458 33.3085C202.314 33.9049 202.246 34.5205 202.251 35.1528L204.251 35.1361ZM203.422 32.5429C201.337 32.5603 199.458 33.5276 197.8 35.2606L199.245 36.6433C200.632 35.1934 202.025 34.5547 203.438 34.5429L203.422 32.5429ZM197.79 35.2708C196.089 37.0994 195.312 39.5775 195.337 42.5707L197.337 42.5541C197.315 39.9155 197.995 37.9866 199.254 36.633L197.79 35.2708ZM195.337 42.5707C195.367 46.116 196.541 48.8101 199.087 50.3092L200.102 48.5857C198.361 47.5605 197.363 45.6646 197.337 42.5541L195.337 42.5707ZM199.068 50.2974C200.102 50.9385 201.424 51.2003 202.937 51.1876L202.921 49.1877C201.618 49.1986 200.717 48.9669 200.122 48.5975L199.068 50.2974ZM202.937 51.1876C204.73 51.1727 206.316 50.3297 207.68 48.8471L206.208 47.493C205.12 48.6764 204.029 49.1784 202.921 49.1877L202.937 51.1876ZM207.669 48.8595C209.179 47.2722 209.838 45.0119 209.815 42.2579L207.815 42.2746C207.836 44.7258 207.247 46.4013 206.22 47.4807L207.669 48.8595ZM209.815 42.2579C209.792 39.5489 209.092 37.3816 207.304 36.3061L206.273 38.0199C207.144 38.5436 207.794 39.7785 207.815 42.2746L209.815 42.2579ZM237.148 52.2702L236.149 52.3261L236.15 52.3379L236.151 52.3497L237.148 52.2702ZM237.072 50.9267L238.071 50.8708L238.059 50.6601L237.963 50.4721L237.072 50.9267ZM237.007 50.7993L237.898 50.3446L237.103 48.7874L236.164 50.2621L237.007 50.7993ZM233.135 54.6077L232.617 53.7524L232.606 53.7588L233.135 54.6077ZM220.836 45.6861L219.84 45.7711L219.84 45.7785L219.841 45.786L220.836 45.6861ZM221.144 28.9149L220.509 28.1422L220.325 28.2937L220.229 28.5122L221.144 28.9149ZM228.303 27.8311L229.303 27.8228L229.3 27.4086L229.004 27.1181L228.303 27.8311ZM228.254 29.5596L229.252 29.6169L229.253 29.6033L229.253 29.5897L228.254 29.5596ZM228.093 40.9533L227.094 41.0116L227.095 41.0142L228.093 40.9533ZM228.17 42.5527L227.17 42.5611L227.171 42.6601L227.191 42.757L228.17 42.5527ZM228.372 43.7671L227.384 43.9168L227.389 43.951L227.396 43.9848L228.372 43.7671ZM228.897 45.2988L228.006 45.7535L228.013 45.7656L228.897 45.2988ZM235.424 45.1163L234.631 44.5072L234.628 44.5107L235.424 45.1163ZM236.936 42.2236L235.936 42.2319L235.936 42.2703L235.939 42.3086L236.936 42.2236ZM237.196 27.4369L236.318 26.9586L236.294 27.0035L236.274 27.0506L237.196 27.4369ZM239.17 26.2044L238.815 25.2695L238.803 25.274L239.17 26.2044ZM244.479 25.776L245.478 25.8102L245.493 25.3711L245.18 25.0631L244.479 25.776ZM244.376 28.785L243.376 28.7508L243.376 28.7514L244.376 28.785ZM244.419 49.2654L245.408 49.1185L245.404 49.0942L245.399 49.0701L244.419 49.2654ZM246.189 54.3708L247.189 54.3624L247.187 54.0597L247.017 53.8091L246.189 54.3708ZM243.583 56.4406L244.063 57.3178L244.063 57.3178L243.583 56.4406ZM237.947 55.9756L238.893 55.6515L238.893 55.6515L237.947 55.9756ZM238.146 52.2143L238.071 50.8708L236.074 50.9826L236.149 52.3261L238.146 52.2143ZM237.963 50.4721L237.898 50.3446L236.117 51.2539L236.182 51.3814L237.963 50.4721ZM236.164 50.2621C235.233 51.7229 234.053 52.8823 232.617 53.7525L233.653 55.463C235.359 54.4295 236.76 53.0499 237.851 51.3364L236.164 50.2621ZM232.606 53.7588C231.202 54.6331 229.869 55.043 228.594 55.0536L228.611 57.0536C230.323 57.0393 232.011 56.4853 233.663 55.4566L232.606 53.7588ZM228.594 55.0536C226.658 55.0698 225.197 54.3527 224.102 52.8902C222.964 51.372 222.172 48.9803 221.831 45.5861L219.841 45.786C220.198 49.3409 221.049 52.1517 222.501 54.0893C223.994 56.0827 226.067 57.0748 228.611 57.0536L228.594 55.0536ZM221.832 45.601C221.742 44.5396 221.675 41.7262 221.636 37.1031L219.637 37.1198C219.675 41.7123 219.741 44.6153 219.84 45.7711L221.832 45.601ZM221.636 37.1031C221.617 34.8091 221.65 33.0006 221.733 31.6682C221.774 31.0016 221.827 30.4679 221.889 30.0594C221.954 29.6325 222.02 29.4075 222.059 29.3176L220.229 28.5122C220.08 28.8506 219.983 29.2882 219.912 29.7585C219.837 30.2472 219.78 30.8451 219.736 31.5446C219.65 32.9444 219.617 34.8059 219.637 37.1198L221.636 37.1031ZM221.779 29.6876C222.615 29.001 224.119 28.5461 226.517 28.526L226.5 26.5261C223.949 26.5474 221.877 27.0183 220.509 28.1422L221.779 29.6876ZM226.517 28.526C226.98 28.5222 227.309 28.5452 227.526 28.5821C227.633 28.6003 227.69 28.6182 227.711 28.6262C227.737 28.6363 227.679 28.62 227.602 28.5441L229.004 27.1181C228.664 26.7834 228.193 26.6668 227.861 26.6103C227.479 26.5455 227.019 26.5218 226.5 26.5261L226.517 28.526ZM227.303 27.8395C227.303 27.8363 227.3 27.9604 227.292 28.2666C227.283 28.5539 227.271 28.9748 227.254 29.5295L229.253 29.5897C229.286 28.5019 229.304 27.891 229.303 27.8228L227.303 27.8395ZM227.255 29.5023C227.069 32.7534 226.981 35.276 226.996 37.0583L228.996 37.0417C228.982 35.3255 229.066 32.8545 229.252 29.6169L227.255 29.5023ZM226.996 37.0583C227.011 38.8108 227.043 40.1326 227.094 41.0116L229.091 40.8951C229.043 40.0682 229.011 38.7877 228.996 37.0417L226.996 37.0583ZM227.095 41.0142C227.144 41.83 227.168 42.3361 227.17 42.5611L229.17 42.5444C229.168 42.2574 229.14 41.6973 229.091 40.8924L227.095 41.0142ZM227.191 42.757C227.229 42.9389 227.293 43.3172 227.384 43.9168L229.361 43.6174C229.271 43.0238 229.2 42.5926 229.149 42.3484L227.191 42.757ZM227.396 43.9848C227.543 44.6415 227.742 45.2359 228.006 45.7534L229.788 44.8441C229.618 44.5119 229.468 44.0851 229.348 43.5494L227.396 43.9848ZM228.013 45.7656C228.404 46.5073 228.926 47.1148 229.598 47.5309C230.274 47.9488 231.042 48.137 231.865 48.1301L231.848 46.1302C231.348 46.1343 230.962 46.0228 230.651 45.8302C230.337 45.6359 230.04 45.3222 229.781 44.8319L228.013 45.7656ZM231.865 48.1301C233.609 48.1155 235.066 47.2377 236.22 45.7218L234.628 44.5107C233.756 45.6572 232.834 46.1219 231.848 46.1302L231.865 48.1301ZM236.217 45.7253C236.762 45.0159 237.19 44.3799 237.479 43.8257C237.749 43.309 237.981 42.714 237.932 42.1386L235.939 42.3086C235.938 42.2874 235.941 42.4517 235.707 42.8993C235.493 43.3093 235.141 43.8425 234.631 44.5072L236.217 45.7253ZM237.936 42.2152L237.918 40.0393L235.918 40.056L235.936 42.2319L237.936 42.2152ZM237.918 40.0393C237.885 36.1386 237.892 33.1477 237.938 31.0613C237.961 30.0167 237.994 29.2099 238.035 28.6337C238.056 28.3447 238.078 28.126 238.1 27.9702C238.126 27.7852 238.142 27.768 238.119 27.8231L236.274 27.0506C236.188 27.2556 236.146 27.5009 236.119 27.6911C236.088 27.9104 236.063 28.1794 236.04 28.4908C235.996 29.1153 235.962 29.9599 235.939 31.0171C235.892 33.1342 235.885 36.149 235.918 40.056L237.918 40.0393ZM238.074 27.9152C238.056 27.9493 238.098 27.8621 238.377 27.6876C238.635 27.5267 239.014 27.3407 239.537 27.1347L238.803 25.274C238.22 25.5039 237.718 25.7413 237.318 25.9912C236.939 26.2276 236.547 26.5387 236.318 26.9586L238.074 27.9152ZM239.525 27.1392C240.575 26.7405 241.586 26.5442 242.565 26.536L242.548 24.5361C241.308 24.5465 240.062 24.7957 238.815 25.2695L239.525 27.1392ZM242.565 26.536C243.102 26.5316 243.489 26.5494 243.745 26.5814C243.874 26.5975 243.943 26.614 243.969 26.6219C244.017 26.6368 243.906 26.6151 243.778 26.489L245.18 25.0631C244.966 24.8523 244.71 24.7572 244.555 24.7098C244.378 24.6554 244.184 24.6207 243.993 24.5968C243.609 24.5488 243.121 24.5313 242.548 24.5361L242.565 26.536ZM243.479 25.7419L243.376 28.7508L245.375 28.8192L245.478 25.8102L243.479 25.7419ZM243.376 28.7514C243.171 34.8592 243.082 39.5912 243.11 42.9401L245.11 42.9234C245.082 39.6165 245.17 34.9173 245.375 28.8186L243.376 28.7514ZM243.11 42.9401C243.137 46.2383 243.238 48.4541 243.438 49.4607L245.399 49.0701C245.244 48.2876 245.138 46.2809 245.11 42.9234L243.11 42.9401ZM243.43 49.4123C243.76 51.6359 244.387 53.4958 245.362 54.9324L247.017 53.8091C246.264 52.7001 245.711 51.1563 245.408 49.1185L243.43 49.4123ZM245.189 54.3791C245.188 54.1556 245.291 54.0587 245.238 54.1275C245.199 54.1784 245.104 54.2776 244.919 54.4251C244.55 54.7175 243.956 55.0964 243.102 55.5634L244.063 57.3178C244.951 56.8316 245.662 56.3889 246.162 55.9914C246.411 55.7939 246.642 55.581 246.819 55.3527C246.982 55.1424 247.193 54.7993 247.189 54.3624L245.189 54.3791ZM243.102 55.5634C241.427 56.4803 240.108 56.8776 239.106 56.886L239.123 58.8859C240.596 58.8736 242.255 58.3073 244.063 57.3178L243.102 55.5634ZM239.106 56.886C239.349 56.8839 239.488 56.9984 239.505 57.0128C239.521 57.027 239.489 57.0026 239.42 56.8889C239.282 56.6636 239.103 56.2665 238.893 55.6515L237 56.2998C237.227 56.9612 237.462 57.5206 237.713 57.9321C237.838 58.1368 237.995 58.3508 238.194 58.5235C238.393 58.6963 238.709 58.8894 239.123 58.8859L239.106 56.886ZM238.893 55.6515C238.479 54.4444 238.232 53.2914 238.144 52.1906L236.151 52.3497C236.253 53.6367 236.539 54.9541 237 56.2998L238.893 55.6515ZM251.648 52.7252L250.928 53.4193L250.928 53.4193L251.648 52.7252ZM253.193 30.8235L252.526 30.0781L252.522 30.0822L253.193 30.8235ZM267.81 26.0933L268.444 25.3198L268.267 25.1748L268.045 25.1212L267.81 26.0933ZM267.48 32.4963L267.488 33.4963L267.821 33.4935L268.086 33.2913L267.48 32.4963ZM259.051 34.8708L259.658 35.6657L259.658 35.6657L259.051 34.8708ZM257.685 47.6186L256.948 48.2937L256.953 48.3L256.959 48.3061L257.685 47.6186ZM268.571 48.2318L269.026 49.1224L269.026 49.1224L268.571 48.2318ZM268.89 48.1011L269.591 47.3881L269.296 47.0977L268.882 47.1011L268.89 48.1011ZM268.756 55.0785L269.262 55.9409L269.333 55.8995L269.396 55.8471L268.756 55.0785ZM262.486 55.3468C257.778 55.3861 254.475 54.2167 252.368 52.031L250.928 53.4193C253.555 56.1436 257.483 57.3886 262.503 57.3467L262.486 55.3468ZM252.368 52.031C250.197 49.7797 249.079 46.9292 249.05 43.4025L247.05 43.4192C247.083 47.4016 248.364 50.7607 250.928 53.4193L252.368 52.031ZM249.05 43.4025C249.008 38.4018 250.63 34.4928 253.864 31.5648L252.522 30.0822C248.811 33.4417 247.004 37.9243 247.05 43.4192L249.05 43.4025ZM253.86 31.5689C257.179 28.5998 261.236 27.0842 266.09 27.0437L266.073 25.0438C260.773 25.088 256.237 26.759 252.526 30.0781L253.86 31.5689ZM266.09 27.0437C266.576 27.0397 266.951 27.0419 267.221 27.0496C267.357 27.0535 267.458 27.0586 267.529 27.0641C267.615 27.0707 267.615 27.075 267.576 27.0655L268.045 25.1212C267.839 25.0715 267.542 25.058 267.278 25.0504C266.972 25.0417 266.569 25.0397 266.073 25.0438L266.09 27.0437ZM267.176 26.8669C267.006 26.7275 266.991 26.5929 267.028 26.7083C267.052 26.7836 267.084 26.9239 267.115 27.1512C267.175 27.6017 267.212 28.268 267.22 29.1704L269.22 29.1537C269.212 28.2215 269.174 27.459 269.097 26.8866C269.059 26.6024 269.008 26.3328 268.933 26.0996C268.872 25.9065 268.743 25.5648 268.444 25.3198L267.176 26.8669ZM267.22 29.1704C267.227 30.052 267.17 30.7038 267.07 31.1548C266.962 31.6411 266.841 31.7258 266.873 31.7014L268.086 33.2913C268.627 32.8786 268.884 32.2134 269.022 31.5883C269.169 30.9278 269.228 30.1067 269.22 29.1537L267.22 29.1704ZM267.471 31.4964L267.023 31.5001L267.04 33.5L267.488 33.4963L267.471 31.4964ZM267.023 31.5001C263.583 31.5288 260.695 32.3584 258.444 34.0758L259.658 35.6657C261.478 34.277 263.909 33.5262 267.04 33.5L267.023 31.5001ZM258.444 34.0758C257.424 34.8548 256.598 36.0189 255.927 37.4805L257.745 38.3142C258.332 37.0345 258.983 36.1809 259.658 35.6657L258.444 34.0758ZM255.927 37.4805C255.223 39.0157 254.901 40.8137 254.917 42.8415L256.917 42.8248C256.902 41.0128 257.192 39.5202 257.745 38.3142L255.927 37.4805ZM254.917 42.8415C254.935 44.9779 255.599 46.8198 256.948 48.2937L258.423 46.9434C257.447 45.8767 256.932 44.5283 256.917 42.8248L254.917 42.8415ZM256.959 48.3061C258.392 49.8195 260.582 50.4505 263.277 50.428L263.26 48.4281C260.836 48.4483 259.303 47.8731 258.412 46.9311L256.959 48.3061ZM263.277 50.428C265.412 50.4102 267.336 49.9847 269.026 49.1224L268.116 47.3411C266.746 48.0404 265.136 48.4124 263.26 48.4281L263.277 50.428ZM269.026 49.1224C269.061 49.1044 269.09 49.0901 269.113 49.0792C269.137 49.0681 269.151 49.062 269.157 49.0594C269.166 49.0559 269.154 49.0611 269.129 49.0687C269.115 49.0726 269.091 49.0793 269.058 49.0856C269.028 49.0914 268.971 49.1005 268.898 49.1011L268.882 47.1011C268.731 47.1024 268.611 47.1363 268.563 47.1503C268.5 47.1688 268.444 47.1904 268.399 47.2087C268.309 47.2456 268.212 47.2922 268.116 47.3411L269.026 49.1224ZM268.189 48.8141C268.118 48.7448 268.131 48.7164 268.174 48.8394C268.212 48.9478 268.256 49.1198 268.295 49.3727C268.374 49.8778 268.423 50.6005 268.431 51.5611L270.431 51.5444C270.422 50.5424 270.372 49.7084 270.271 49.0631C270.221 48.7406 270.153 48.4389 270.06 48.175C269.973 47.9258 269.834 47.6266 269.591 47.3881L268.189 48.8141ZM268.431 51.5611C268.439 52.5126 268.387 53.223 268.292 53.7182C268.187 54.2667 268.065 54.3522 268.116 54.3098L269.396 55.8471C269.913 55.4168 270.137 54.7207 270.257 54.094C270.387 53.414 270.439 52.5555 270.431 51.5444L268.431 51.5611ZM268.25 54.216C267.072 54.9075 265.193 55.3242 262.486 55.3468L262.503 57.3467C265.343 57.323 267.638 56.8942 269.262 55.9409L268.25 54.216ZM273.878 41.9793L274.878 41.9709L274.878 41.9623L273.878 41.9793ZM273.501 19.7736L272.501 19.782L272.501 19.7906L273.501 19.7736ZM273.767 13.2432L274.48 13.9444L274.48 13.9444L273.767 13.2432ZM276.25 11.7504L276.635 12.6733L276.635 12.6733L276.25 11.7504ZM281.174 11.2613L282.169 11.3634L282.175 11.3083L282.174 11.253L281.174 11.2613ZM280.988 19.6471L279.988 19.6309L279.988 19.6309L280.988 19.6471ZM281.081 30.7828L281.09 31.7827L281.504 31.7793L281.794 31.4839L281.081 30.7828ZM282.351 29.4921L281.672 28.7578L281.654 28.774L281.638 28.7909L282.351 29.4921ZM285.152 27.7407L285.617 28.6259L285.627 28.6205L285.152 27.7407ZM292.315 27.1689L291.857 28.0576L291.866 28.0624L291.876 28.067L292.315 27.1689ZM294.44 28.6872L295.167 28.0007L295.167 28.0007L294.44 28.6872ZM295.87 31.2994L294.924 31.6235L294.928 31.6343L295.87 31.2994ZM296.728 34.4283L295.744 34.6079L295.749 34.6331L295.755 34.6581L296.728 34.4283ZM297.273 38.3279L298.271 38.263L298.27 38.253L298.269 38.2429L297.273 38.3279ZM297.536 46.902L298.536 46.9237L298.536 46.9087L298.536 46.8936L297.536 46.902ZM297.351 55.4158L298.291 55.7591L298.348 55.6034L298.351 55.4376L297.351 55.4158ZM295.183 56.33L294.985 55.3498L294.985 55.3498L295.183 56.33ZM291.922 56.7412L291.781 57.7311L291.855 57.7418L291.931 57.7412L291.922 56.7412ZM289.808 56.4388L288.813 56.3367L288.715 57.2927L289.666 57.4288L289.808 56.4388ZM289.52 37.3046L288.559 37.5814L288.559 37.5814L289.52 37.3046ZM283.491 35.8188L284.168 36.5547L284.168 36.5547L283.491 35.8188ZM281.656 38.2662L282.563 38.6867L282.572 38.6669L282.581 38.6466L281.656 38.2662ZM281.09 39.487L280.183 39.0665L280.082 39.2843L280.091 39.5243L281.09 39.487ZM281.021 54.2721L280.39 53.4964L280.368 53.5148L280.346 53.5344L281.021 54.2721ZM273.482 55.871L272.497 55.7004L272.482 55.7892L272.482 55.8794L273.482 55.871ZM274.878 41.9623L274.501 19.7566L272.501 19.7906L272.879 41.9962L274.878 41.9623ZM274.501 19.7653C274.484 17.7006 274.498 16.1413 274.541 15.0778C274.563 14.5431 274.591 14.1542 274.623 13.8968C274.64 13.7658 274.654 13.6938 274.662 13.664C274.666 13.649 274.663 13.6649 274.648 13.6985C274.64 13.7191 274.593 13.8289 274.48 13.9444L273.054 12.542C272.914 12.6844 272.842 12.8363 272.808 12.9145C272.77 13.0056 272.743 13.0944 272.724 13.1676C272.687 13.3142 272.66 13.4799 272.639 13.6479C272.596 13.9884 272.565 14.4427 272.542 14.9965C272.497 16.1098 272.484 17.7081 272.501 19.782L274.501 19.7653ZM274.48 13.9444C274.85 13.568 275.535 13.1325 276.635 12.6733L275.865 10.8275C274.67 11.3262 273.699 11.8859 273.054 12.542L274.48 13.9444ZM276.635 12.6733C277.683 12.236 278.663 12.0263 279.581 12.0186L279.564 10.0187C278.348 10.0288 277.113 10.3069 275.865 10.8275L276.635 12.6733ZM279.581 12.0186C280.102 12.0143 280.437 12.0332 280.623 12.0614C280.726 12.077 280.713 12.0856 280.648 12.0552C280.614 12.0393 280.512 11.9879 280.408 11.8737C280.29 11.7437 280.177 11.5356 280.174 11.2696L282.174 11.253C282.169 10.5984 281.645 10.3137 281.499 10.245C281.3 10.1518 281.087 10.1088 280.923 10.0839C280.574 10.0312 280.11 10.0141 279.564 10.0187L279.581 12.0186ZM280.18 11.1592C280.134 11.6001 280.072 14.4668 279.988 19.6309L281.988 19.6634C282.073 14.415 282.135 11.6912 282.169 11.3634L280.18 11.1592ZM279.988 19.6309C279.904 24.8345 279.868 28.2609 279.882 29.8967L281.882 29.88C281.868 28.2733 281.904 24.8723 281.988 19.6634L279.988 19.6309ZM279.882 29.8967L279.887 30.4727L281.887 30.456L281.882 29.88L279.882 29.8967ZM279.887 30.4727C279.888 30.6467 279.911 30.9433 280.083 31.2256C280.306 31.5888 280.687 31.7861 281.09 31.7827L281.073 29.7828C281.183 29.7819 281.327 29.8046 281.475 29.8853C281.625 29.9667 281.727 30.0794 281.79 30.1823C281.897 30.3585 281.887 30.4953 281.887 30.456L279.887 30.4727ZM281.794 31.4839L283.064 30.1933L281.638 28.7909L280.368 30.0816L281.794 31.4839ZM283.029 30.2264C283.387 29.8957 284.212 29.3649 285.617 28.6258L284.687 26.8556C283.289 27.5905 282.245 28.2274 281.672 28.7578L283.029 30.2264ZM285.627 28.6205C286.973 27.8936 288.153 27.5636 289.183 27.555L289.166 25.5551C287.721 25.5672 286.219 26.0276 284.677 26.8608L285.627 28.6205ZM289.183 27.555C290.361 27.5452 291.233 27.7358 291.857 28.0576L292.774 26.2801C291.77 25.7622 290.547 25.5436 289.166 25.5551L289.183 27.555ZM291.876 28.067C292.643 28.4426 293.249 28.8817 293.713 29.3737L295.167 28.0007C294.513 27.3073 293.702 26.7342 292.755 26.2707L291.876 28.067ZM293.713 29.3737C294.139 29.8246 294.556 30.5494 294.924 31.6235L296.816 30.9752C296.397 29.7518 295.861 28.7352 295.167 28.0007L293.713 29.3737ZM294.928 31.6343C295.306 32.6985 295.577 33.6892 295.744 34.6079L297.712 34.2487C297.522 33.2077 297.22 32.1124 296.812 30.9644L294.928 31.6343ZM295.755 34.6581C295.96 35.5251 296.136 36.769 296.276 38.4129L298.269 38.2429C298.126 36.561 297.939 35.2052 297.701 34.1985L295.755 34.6581ZM296.275 38.3927C296.42 40.6271 296.508 43.4646 296.536 46.9103L298.536 46.8936C298.507 43.4276 298.419 40.5491 298.271 38.263L296.275 38.3927ZM296.537 46.8803L296.352 55.3941L298.351 55.4376L298.536 46.9237L296.537 46.8803ZM296.412 55.0725C296.47 54.9141 296.559 54.8549 296.539 54.8706C296.523 54.8824 296.463 54.9225 296.327 54.9797C296.055 55.0943 295.619 55.2215 294.985 55.3498L295.381 57.3101C296.067 57.1714 296.653 57.0128 297.104 56.8226C297.33 56.7275 297.556 56.6105 297.752 56.4605C297.944 56.3144 298.17 56.0888 298.291 55.7591L296.412 55.0725ZM294.985 55.3498C293.695 55.6105 292.678 55.7348 291.914 55.7412L291.931 57.7412C292.873 57.7333 294.03 57.5834 295.381 57.3101L294.985 55.3498ZM292.064 55.7513L289.949 55.4489L289.666 57.4288L291.781 57.7311L292.064 55.7513ZM290.802 56.541C291.2 52.6641 291.385 48.9348 291.355 45.3535L289.355 45.3702C289.385 48.8714 289.204 52.5267 288.813 56.3367L290.802 56.541ZM291.355 45.3535C291.325 41.7851 291.046 38.9905 290.481 37.0277L288.559 37.5814C289.048 39.2792 289.326 41.8562 289.355 45.3702L291.355 45.3535ZM290.481 37.0277C290.183 35.9928 289.707 35.1132 288.988 34.4933C288.253 33.8589 287.35 33.5705 286.353 33.5789L286.369 35.5788C286.951 35.5739 287.364 35.7332 287.682 36.0075C288.016 36.2961 288.33 36.786 288.559 37.5814L290.481 37.0277ZM286.353 33.5789C285.037 33.5898 283.851 34.1289 282.814 35.0829L284.168 36.5547C284.91 35.8725 285.637 35.5849 286.369 35.5788L286.353 33.5789ZM282.814 35.0829C281.855 35.9652 281.138 36.8965 280.731 37.8859L282.581 38.6466C282.843 38.0089 283.349 37.3087 284.168 36.5547L282.814 35.0829ZM280.748 37.8457L280.183 39.0665L281.997 39.9075L282.563 38.6867L280.748 37.8457ZM280.091 39.5243C280.2 42.4566 280.269 45.6037 280.297 48.9659L282.297 48.9492C282.269 45.5704 282.2 42.4038 282.089 39.4497L280.091 39.5243ZM280.297 48.9659C280.311 50.6455 280.295 51.9071 280.25 52.7623C280.228 53.1934 280.2 53.4962 280.17 53.6885C280.163 53.7346 280.156 53.7696 280.15 53.7951C280.145 53.8215 280.141 53.8316 280.142 53.8295C280.143 53.828 280.145 53.8208 280.15 53.8092C280.154 53.7979 280.162 53.7784 280.176 53.7535C280.196 53.7158 280.258 53.6036 280.39 53.4964L281.652 55.0477C281.927 54.8239 282.022 54.5177 282.048 54.4354C282.093 54.2946 282.123 54.1417 282.146 53.9973C282.192 53.7036 282.224 53.3206 282.248 52.8659C282.295 51.9496 282.311 50.6402 282.297 48.9492L280.297 48.9659ZM280.346 53.5344C279.368 54.4292 277.362 55.0306 273.988 55.0588L274.004 57.0587C277.456 57.0299 280.133 56.4403 281.696 55.0098L280.346 53.5344ZM273.988 55.0588C273.851 55.0599 273.868 55.0432 273.955 55.0747C274.005 55.093 274.133 55.1475 274.257 55.2842C274.399 55.4414 274.481 55.6489 274.482 55.8627L272.482 55.8794C272.485 56.1572 272.588 56.4205 272.773 56.6254C272.94 56.8097 273.133 56.9037 273.268 56.9532C273.526 57.0474 273.8 57.0604 274.004 57.0587L273.988 55.0588ZM274.468 56.0417C274.812 54.0531 274.94 49.32 274.878 41.9709L272.878 41.9876C272.94 49.4006 272.804 53.9288 272.497 55.7004L274.468 56.0417Z" fill="white"/>
</g>
</g>
</svg>
