<svg width="229" height="90" viewBox="0 0 229 90" fill="none" xmlns="http://www.w3.org/2000/svg">
<g id="Logo">
<path id="Rectangle 1" d="M12.8454 3.59961L194.397 5.33848C200.471 5.39666 205.395 10.3687 205.393 16.4438L205.376 69.6426C205.374 75.7177 200.448 80.5954 194.373 80.5372L12.8219 78.7983C6.74706 78.7402 1.82396 73.7681 1.82586 67.693L1.84249 14.4943C1.84438 8.41912 6.77057 3.54143 12.8454 3.59961Z" fill="#017BFF" stroke="white" stroke-width="2"/>
<g id="&#60;">
<path d="M178.392 44.0743L179.542 44.1739C179.695 44.7336 180.789 47.3074 182.824 51.8954C185.972 59.1218 187.61 62.7369 187.738 62.7409C187.823 62.7436 187.89 62.6602 187.938 62.491C192.918 50.5649 195.694 44.3333 196.265 43.7961L196.521 43.804C198.483 43.8649 200.02 44.5315 201.133 45.804C199.438 49.5505 196.69 56.2526 192.89 65.9101L190.878 70.9062C190.104 71.0956 189.142 71.1511 187.992 71.0728C186.799 70.9931 185.975 70.7114 185.521 70.2278C178.842 57.0865 175.126 48.9034 174.372 45.6784C174.877 44.5415 176.217 44.0068 178.392 44.0743Z" fill="#017BFF"/>
<path d="M178.392 44.0743L178.478 43.078L178.451 43.0756L178.423 43.0747L178.392 44.0743ZM179.542 44.1739L180.506 43.9096L180.322 43.2378L179.628 43.1777L179.542 44.1739ZM182.824 51.8954L183.741 51.496L183.738 51.49L182.824 51.8954ZM187.938 62.491L187.015 62.1057L186.992 62.1609L186.976 62.2185L187.938 62.491ZM196.265 43.7961L196.296 42.7966L195.882 42.7838L195.58 43.0674L196.265 43.7961ZM201.133 45.804L202.044 46.2163L202.31 45.63L201.886 45.1456L201.133 45.804ZM192.89 65.9101L193.818 66.2837L193.821 66.2763L192.89 65.9101ZM190.878 70.9062L191.116 71.8775L191.614 71.7556L191.806 71.2797L190.878 70.9062ZM187.992 71.0728L188.06 70.0751L188.058 70.075L187.992 71.0728ZM185.521 70.2278L184.629 70.6808L184.694 70.8084L184.792 70.9126L185.521 70.2278ZM174.372 45.6784L173.458 45.2726L173.322 45.5793L173.399 45.906L174.372 45.6784ZM178.306 45.0705L179.455 45.1702L179.628 43.1777L178.478 43.078L178.306 45.0705ZM178.577 44.4383C178.676 44.7996 179.023 45.6592 179.557 46.9153C180.107 48.2093 180.892 50.0052 181.91 52.3008L183.738 51.49C182.721 49.1976 181.941 47.4127 181.397 46.1329C180.837 44.8151 180.56 44.108 180.506 43.9096L178.577 44.4383ZM181.907 52.2948C183.482 55.909 184.68 58.6248 185.503 60.4393C185.913 61.3451 186.233 62.0338 186.46 62.4994C186.573 62.7298 186.669 62.9193 186.746 63.057C186.782 63.1224 186.827 63.1992 186.875 63.2688C186.897 63.3002 186.941 63.3615 187.003 63.4255C187.033 63.4568 187.092 63.5139 187.176 63.57C187.244 63.6155 187.433 63.7319 187.707 63.7404L187.769 61.7414C188.039 61.7497 188.223 61.8643 188.286 61.9062C188.364 61.9586 188.417 62.0103 188.44 62.0344C188.488 62.084 188.515 62.124 188.517 62.1269C188.526 62.1395 188.519 62.1313 188.493 62.0832C188.443 61.9943 188.366 61.8443 188.258 61.6223C188.043 61.1831 187.733 60.5156 187.324 59.6138C186.508 57.8131 185.314 55.1081 183.741 51.496L181.907 52.2948ZM187.707 63.7404C188.142 63.7539 188.458 63.5242 188.633 63.3049C188.786 63.1131 188.86 62.9037 188.9 62.7635L186.976 62.2185C186.967 62.2475 186.984 62.1644 187.071 62.0559C187.12 61.995 187.203 61.9109 187.329 61.8436C187.463 61.7727 187.615 61.7366 187.769 61.7414L187.707 63.7404ZM188.861 62.8763C191.35 56.9154 193.285 52.3846 194.668 49.2796C195.36 47.7259 195.91 46.5382 196.32 45.71C196.525 45.2948 196.69 44.9812 196.815 44.7614C196.967 44.4973 197.005 44.4737 196.95 44.5248L195.58 43.0674C195.383 43.2529 195.209 43.5415 195.08 43.7676C194.925 44.038 194.74 44.3925 194.527 44.8234C194.1 45.6875 193.537 46.9037 192.841 48.4658C191.448 51.5925 189.506 56.1406 187.015 62.1057L188.861 62.8763ZM196.234 44.7956L196.49 44.8036L196.552 42.8045L196.296 42.7966L196.234 44.7956ZM196.49 44.8036C198.223 44.8573 199.48 45.433 200.381 46.4624L201.886 45.1456C200.56 43.63 198.742 42.8725 196.552 42.8045L196.49 44.8036ZM200.222 45.3917C198.515 49.1638 195.759 55.8873 191.96 65.544L193.821 66.2763C197.621 56.6179 200.36 49.9373 202.044 46.2163L200.222 45.3917ZM191.963 65.5366L189.951 70.5326L191.806 71.2797L193.818 66.2837L191.963 65.5366ZM190.641 69.9348C190 70.0916 189.149 70.1493 188.06 70.0751L187.924 72.0705C189.135 72.153 190.208 72.0996 191.116 71.8775L190.641 69.9348ZM188.058 70.075C186.935 70 186.437 69.7422 186.25 69.5429L184.792 70.9126C185.514 71.6807 186.663 71.9862 187.925 72.0706L188.058 70.075ZM186.412 69.7747C183.076 63.21 180.485 57.8935 178.635 53.821C176.773 49.7209 175.697 46.9538 175.346 45.4509L173.399 45.906C173.801 47.628 174.96 50.5649 176.814 54.6479C178.681 58.7585 181.287 64.1042 184.629 70.6808L186.412 69.7747ZM175.286 46.0843C175.525 45.5479 176.264 45.0087 178.361 45.0738L178.423 43.0747C176.17 43.0049 174.23 43.5352 173.458 45.2726L175.286 46.0843Z" fill="white"/>
</g>
<g id="/">
<path d="M190.983 43.3587L173.485 31.5306C173.444 31.2893 173.428 31.0486 173.435 30.8088C173.45 30.329 173.545 29.8517 173.72 29.3769L191.215 41.2769C191.256 41.5023 191.273 41.7269 191.267 41.9508C191.252 42.4146 191.158 42.8839 190.983 43.3587Z" fill="#017BFF"/>
<path d="M190.983 43.3587L190.423 44.1871L191.48 44.902L191.921 43.7042L190.983 43.3587ZM173.485 31.5306L172.499 31.6963L172.57 32.119L172.925 32.3591L173.485 31.5306ZM173.72 29.3769L174.282 28.55L173.224 27.83L172.781 29.0314L173.72 29.3769ZM191.215 41.2769L192.199 41.0978L192.124 40.6856L191.778 40.45L191.215 41.2769ZM191.543 42.5302L174.045 30.7022L172.925 32.3591L190.423 44.1871L191.543 42.5302ZM174.471 31.365C174.441 31.1873 174.429 31.0125 174.435 30.8397L172.436 30.7778C172.426 31.0848 172.448 31.3912 172.499 31.6963L174.471 31.365ZM174.435 30.8397C174.446 30.4731 174.519 30.1018 174.658 29.7224L172.781 29.0314C172.571 29.6016 172.454 30.1849 172.436 30.7778L174.435 30.8397ZM173.157 30.2037L190.653 42.1037L191.778 40.45L174.282 28.55L173.157 30.2037ZM190.232 41.456C190.26 41.6137 190.272 41.7679 190.267 41.9198L192.266 41.9818C192.275 41.6859 192.253 41.3909 192.199 41.0978L190.232 41.456ZM190.267 41.9198C190.256 42.2669 190.185 42.6302 190.044 43.0132L191.921 43.7042C192.13 43.1376 192.248 42.5623 192.266 41.9818L190.267 41.9198Z" fill="white"/>
</g>
<g id="v">
<path d="M190.515 11.5438C191.187 11.5684 191.736 11.6605 192.162 11.8203C192.144 12.3239 192.818 14.8824 194.186 19.4955C195.53 24.1318 196.184 26.9296 196.148 27.889C196.147 27.937 196.023 28.0285 195.778 28.1636C195.508 28.3218 195.058 28.4735 194.429 28.6185C193.799 28.7636 193.088 28.8216 192.297 28.7926C191.052 22.791 190.088 18.9491 189.405 17.267C189.385 17.1462 189.337 17.1444 189.261 17.2617C188.801 18.0134 188.067 20.0158 187.059 23.2691C186.051 26.5464 185.48 28.6869 185.347 29.6907C185.318 29.8338 185.05 29.944 184.543 30.0215C184.034 30.123 183.373 30.1587 182.557 30.1289C181.742 30.099 181.195 29.9589 180.916 29.7085C180.941 29.0129 181.906 25.9382 183.811 20.4843C185.715 15.0544 186.767 12.247 186.966 12.0622C187.314 11.7387 188.245 11.5687 189.758 11.5521L190.515 11.5438Z" fill="#017BFF"/>
<path d="M190.515 11.5438L190.552 10.5444L190.528 10.5436L190.504 10.5438L190.515 11.5438ZM192.162 11.8203L193.161 11.8569L193.188 11.1366L192.513 10.8838L192.162 11.8203ZM194.186 19.4955L195.147 19.2173L195.145 19.2112L194.186 19.4955ZM195.778 28.1636L195.295 27.2879L195.284 27.2942L195.272 27.3009L195.778 28.1636ZM194.429 28.6185L194.204 27.644L194.429 28.6185ZM192.297 28.7926L191.318 28.9957L191.477 29.7632L192.26 29.7919L192.297 28.7926ZM189.405 17.267L188.418 17.427L188.436 17.5385L188.478 17.6431L189.405 17.267ZM189.261 17.2617L188.423 16.7161L188.415 16.7279L188.408 16.7398L189.261 17.2617ZM187.059 23.2691L186.104 22.9732L186.104 22.975L187.059 23.2691ZM185.347 29.6907L186.327 29.8911L186.334 29.8567L186.339 29.8219L185.347 29.6907ZM184.543 30.0215L184.391 29.033L184.369 29.0364L184.347 29.0409L184.543 30.0215ZM180.916 29.7085L179.916 29.6719L179.899 30.1399L180.248 30.4527L180.916 29.7085ZM183.811 20.4843L182.868 20.1534L182.867 20.1546L183.811 20.4843ZM186.966 12.0622L186.285 11.3296L186.285 11.3296L186.966 12.0622ZM189.758 11.5521L189.769 12.552L189.758 11.5521ZM190.478 12.5431C191.089 12.5655 191.521 12.6481 191.811 12.7567L192.513 10.8838C191.95 10.673 191.285 10.5713 190.552 10.5444L190.478 12.5431ZM191.163 11.7837C191.153 12.0559 191.224 12.4345 191.3 12.7929C191.387 13.1977 191.517 13.7259 191.687 14.3719C192.029 15.6657 192.543 17.47 193.228 19.7798L195.145 19.2112C194.462 16.9079 193.955 15.1263 193.621 13.8618C193.454 13.2285 193.333 12.7344 193.256 12.3737C193.169 11.9666 193.162 11.8365 193.161 11.8569L191.163 11.7837ZM193.226 19.7738C193.895 22.0848 194.389 23.9243 194.71 25.2987C195.043 26.7202 195.161 27.5288 195.149 27.8524L197.148 27.9256C197.171 27.2898 196.98 26.2198 196.658 24.8435C196.325 23.4201 195.821 21.5426 195.147 19.2173L193.226 19.7738ZM195.149 27.8524C195.156 27.6541 195.222 27.5073 195.265 27.4294C195.309 27.3483 195.355 27.2931 195.38 27.2653C195.407 27.2351 195.429 27.2151 195.44 27.2058C195.452 27.1958 195.459 27.1906 195.459 27.1904C195.459 27.19 195.456 27.1924 195.448 27.1976C195.441 27.2028 195.43 27.2098 195.415 27.2187C195.386 27.2367 195.346 27.2597 195.295 27.2879L196.261 29.0394C196.396 28.9647 196.535 28.8826 196.65 28.7969C196.705 28.7559 196.789 28.6899 196.869 28.601C196.913 28.5516 197.134 28.3094 197.148 27.9256L195.149 27.8524ZM195.272 27.3009C195.141 27.3779 194.817 27.5029 194.204 27.644L194.653 29.593C195.3 29.4441 195.875 29.2658 196.284 29.0264L195.272 27.3009ZM194.204 27.644C193.677 27.7655 193.056 27.8197 192.333 27.7932L192.26 29.7919C193.12 29.8234 193.921 29.7616 194.653 29.593L194.204 27.644ZM193.276 28.5894C192.036 22.6107 191.055 18.6734 190.331 16.8908L188.478 17.6431C189.12 19.2248 190.068 22.9712 191.318 28.9957L193.276 28.5894ZM190.392 17.1069C190.38 17.0351 190.351 16.8799 190.261 16.7159C190.167 16.5468 189.899 16.1944 189.391 16.1757C188.972 16.1604 188.705 16.3962 188.632 16.4635C188.531 16.5578 188.462 16.6564 188.423 16.7161L190.099 17.8072C190.098 17.8083 190.064 17.8632 189.994 17.9286C189.952 17.967 189.712 18.1888 189.317 18.1744C188.833 18.1566 188.585 17.82 188.509 17.6814C188.436 17.5481 188.42 17.4384 188.418 17.427L190.392 17.1069ZM188.408 16.7398C188.121 17.2092 187.793 17.9826 187.427 18.9832C187.052 20.0069 186.611 21.3387 186.104 22.9732L188.015 23.565C188.516 21.9463 188.946 20.6502 189.305 19.6714C189.672 18.6696 189.941 18.0658 190.114 17.7835L188.408 16.7398ZM186.104 22.975C185.101 26.2315 184.502 28.4566 184.356 29.5595L186.339 29.8219C186.458 28.9173 187 26.8613 188.015 23.5633L186.104 22.975ZM184.367 29.4903C184.418 29.2435 184.557 29.0948 184.632 29.0304C184.704 28.9694 184.756 28.9508 184.744 28.9558C184.738 28.9584 184.707 28.9697 184.643 28.9853C184.58 29.0005 184.498 29.0168 184.391 29.033L184.694 31.01C184.976 30.9669 185.261 30.9056 185.504 30.8056C185.626 30.7554 185.783 30.6777 185.929 30.5533C186.079 30.4256 186.262 30.2094 186.327 29.8911L184.367 29.4903ZM184.347 29.0409C183.946 29.1209 183.37 29.158 182.594 29.1295L182.521 31.1282C183.375 31.1595 184.123 31.125 184.738 31.0021L184.347 29.0409ZM182.594 29.1295C182.229 29.1162 181.965 29.0791 181.783 29.0326C181.593 28.9839 181.558 28.9411 181.583 28.9642L180.248 30.4527C180.552 30.7263 180.93 30.8787 181.287 30.9701C181.653 31.0638 182.07 31.1117 182.521 31.1282L182.594 29.1295ZM181.915 29.7451C181.915 29.7487 181.915 29.7335 181.921 29.6927C181.927 29.6538 181.936 29.6015 181.949 29.534C181.977 29.3982 182.019 29.2198 182.078 28.9949C182.196 28.5454 182.373 27.9423 182.613 27.1803C183.091 25.658 183.804 23.5375 184.755 20.8141L182.867 20.1546C181.913 22.885 181.192 25.0288 180.704 26.5813C180.461 27.3567 180.273 27.9935 180.144 28.4866C180.023 28.945 179.927 29.371 179.916 29.6719L181.915 29.7451ZM184.755 20.8152C185.706 18.1021 186.442 16.0507 186.964 14.6571C187.226 13.9589 187.43 13.4348 187.579 13.0781C187.654 12.8983 187.71 12.7734 187.749 12.6946C187.769 12.6545 187.778 12.6389 187.777 12.6394C187.777 12.6399 187.77 12.6529 187.755 12.6731C187.744 12.6883 187.707 12.738 187.646 12.7947L186.285 11.3296C186.16 11.4458 186.083 11.5756 186.059 11.6157C186.021 11.6803 185.985 11.7493 185.953 11.8142C185.889 11.9456 185.815 12.1127 185.734 12.307C185.57 12.6983 185.356 13.2501 185.091 13.9556C184.562 15.3694 183.82 17.4366 182.868 20.1534L184.755 20.8152ZM187.646 12.7947C187.599 12.8387 187.673 12.7545 188.105 12.6758C188.491 12.6051 189.04 12.56 189.769 12.552L189.747 10.5521C188.963 10.5607 188.289 10.609 187.745 10.7083C187.246 10.7996 186.68 10.9621 186.285 11.3296L187.646 12.7947ZM189.769 12.552L190.526 12.5437L190.504 10.5438L189.747 10.5521L189.769 12.552Z" fill="white"/>
</g>
<g id="MD DEV">
<g id="MD De">
<path d="M10.5241 73.7124C9.58547 73.7203 8.81643 73.5987 8.21698 73.3477C8.15716 66.1799 8.69052 55.9564 9.81707 42.6772L10.338 36.0807C9.73468 35.3604 9.14944 34.2559 8.58233 32.7672C8.05788 31.2782 7.79317 30.235 7.78818 29.6377L7.85058 29.4452C7.97715 29.2735 9.04253 29.1152 11.0467 28.9705C13.0509 28.8258 15.2476 28.7434 17.6369 28.7235C20.0688 28.7032 21.3923 28.7988 21.6074 29.0104C21.8225 29.2219 22.8689 31.9013 24.7466 37.0485C26.624 42.153 28.0224 46.1094 28.9418 48.9179C29.0289 49.1305 29.1365 49.2362 29.2645 49.2352C29.3925 49.2341 29.6021 48.7843 29.8932 47.8859C30.1841 46.9448 31.3947 43.7345 33.525 38.2552C35.655 32.7333 37.0796 29.6066 37.7989 28.8752C38.1796 28.4881 40.2473 28.2788 44.0018 28.2475C47.7564 28.2161 49.6345 28.3071 49.6363 28.5204C49.6424 29.2458 49.3542 30.5069 48.7719 32.3038C48.2322 34.1004 47.7734 35.3629 47.3954 36.0914C49.0016 49.6038 49.8481 61.5652 49.935 71.9755C49.9385 72.4021 49.0671 72.7934 47.3207 73.1493C45.6173 73.5476 44.2109 73.7513 43.1016 73.7606C41.9923 73.7698 41.437 73.6891 41.4356 73.5185C41.549 71.7681 41.5895 68.9517 41.5571 65.0691C41.5243 61.1439 41.3788 56.4943 41.1206 51.1203C40.8514 44.4236 40.5675 41.0766 40.2688 41.0791L39.888 41.4663C39.0479 43.052 37.9608 45.7278 36.6269 49.4937C35.3356 53.2593 34.2544 56.6391 33.3834 59.6332L32.0763 64.0602C31.8669 64.5313 31.2289 64.7713 30.1622 64.7802C29.1383 64.7888 28.2844 64.7319 27.6007 64.6096C26.9597 64.4869 26.6173 64.3618 26.5736 64.2342C26.4417 63.7659 25.0879 60.0437 22.5122 53.0677C19.9362 46.0489 18.4543 42.3065 18.0664 41.8404C17.9362 41.5855 17.8285 41.4583 17.7432 41.4591C17.6579 41.4598 17.5951 41.6096 17.5549 41.9086C16.8194 45.7976 16.4831 51.5179 16.5461 59.0697C16.6088 66.5787 16.7518 70.9297 16.9751 72.1225C15.917 73.1554 13.7667 73.6854 10.5241 73.7124ZM77.2575 59.587C78.4845 58.3394 79.5159 56.6667 80.3518 54.569C81.1873 52.4286 81.5951 50.1638 81.5751 47.7746C81.5552 45.3853 81.1116 43.3623 80.2444 41.7055C79.3769 40.006 78.3636 38.7344 77.2045 37.8907C76.045 37.0043 74.7164 36.2901 73.2185 35.7479C70.9074 34.9138 68.7066 34.5055 66.616 34.523C66.0614 34.5276 65.7842 34.5512 65.7846 34.5939C65.4884 34.895 65.3811 39.9308 65.4626 49.7011C65.5442 59.4714 65.7355 64.5047 66.0367 64.8008C66.1227 64.8855 66.4217 64.9256 66.9337 64.9214C67.4884 64.9167 68.2977 64.7606 69.3619 64.4531C70.4687 64.1452 71.744 63.5798 73.1879 62.7571C74.674 61.8913 76.0306 60.8346 77.2575 59.587ZM57.4284 60.9685L57.4094 35.6878C56.934 34.9664 56.326 33.6915 55.5854 31.8629C54.8444 29.9917 54.4725 28.8854 54.4697 28.5441C54.4665 28.1601 54.486 27.9466 54.5283 27.9036C54.9514 27.4734 57.4669 27.239 62.0747 27.2006C70.9491 27.1265 77.8123 28.9253 82.6645 32.5969C87.5593 36.2682 90.0327 41.2184 90.0847 47.4475C90.1103 50.5194 89.6434 53.3608 88.6838 55.9715C87.7238 58.5396 86.4194 60.7266 84.7704 62.5324C83.1637 64.2952 81.3421 65.8678 79.3056 67.2502C77.3113 68.5895 75.1868 69.6526 72.932 70.4395C68.5069 71.9271 64.4811 72.6861 60.8545 72.7164C59.1479 72.7306 58.1656 72.6108 57.9074 72.3569C57.6493 72.1031 57.4896 68.307 57.4284 60.9685ZM130.068 59.1463C131.295 57.8986 132.327 56.226 133.162 54.1283C133.998 51.9879 134.406 49.7231 134.386 47.3338C134.366 44.9446 133.922 42.9215 133.055 41.2647C132.188 39.5652 131.174 38.2936 130.015 37.4499C128.856 36.5636 127.527 35.8493 126.029 35.3071C123.718 34.4731 121.517 34.0648 119.427 34.0822C118.872 34.0868 118.595 34.1105 118.595 34.1531C118.299 34.4543 118.192 39.49 118.273 49.2604C118.355 59.0307 118.546 64.0639 118.847 64.3601C118.933 64.4447 119.232 64.4849 119.744 64.4806C120.299 64.476 121.108 64.3199 122.173 64.0123C123.279 63.7044 124.555 63.1391 125.999 62.3163C127.485 61.4506 128.841 60.3939 130.068 59.1463ZM110.239 60.5278L110.22 35.2471C109.745 34.5257 109.137 33.2507 108.396 31.4222C107.655 29.5509 107.283 28.4447 107.28 28.1034C107.277 27.7194 107.297 27.5059 107.339 27.4628C107.762 27.0326 110.278 26.7983 114.885 26.7598C123.76 26.6858 130.623 28.4846 135.475 32.1562C140.37 35.8275 142.843 40.7777 142.895 47.0068C142.921 50.0787 142.454 52.92 141.494 55.5308C140.534 58.0989 139.23 60.2858 137.581 62.0917C135.974 63.8545 134.153 65.4271 132.116 66.8094C130.122 68.1488 127.997 69.2119 125.743 69.9987C121.318 71.4864 117.292 72.2453 113.665 72.2756C111.959 72.2899 110.976 72.1701 110.718 71.9162C110.46 71.6623 110.3 67.8662 110.239 60.5278ZM162.821 49.4646C162.81 48.2273 162.144 47.6142 160.821 47.6252C159.072 47.6398 157.543 48.5486 156.236 50.3516C154.928 52.1546 154.285 54.3147 154.306 56.8319C154.311 57.4292 154.399 57.7272 154.569 57.7257C156.105 57.6703 157.868 56.7808 159.859 55.0575C161.85 53.2915 162.837 51.4272 162.821 49.4646ZM168.558 69.7694C167.116 70.7628 164.283 71.2772 160.059 71.3124C155.835 71.3477 152.582 70.1161 150.3 67.6177C148.017 65.1193 146.859 61.7796 146.824 57.5984C146.789 53.3745 148.102 49.7154 150.764 46.6211C153.469 43.4838 157.275 41.8946 162.181 41.8537C164.186 41.8369 166.025 42.3549 167.698 43.4077C169.414 44.4601 170.283 46.3302 170.305 49.0181C170.327 51.6634 169.176 54.2971 166.851 56.9192C164.569 59.541 161.428 61.5513 157.429 62.9501C157.433 63.462 157.949 63.8844 158.976 64.2172C160.045 64.5069 161.091 64.6476 162.115 64.639C165.358 64.6119 167.913 64.0146 169.78 62.847C169.823 62.804 169.887 62.7821 169.972 62.7814C170.057 62.7807 170.103 63.1856 170.11 63.9963C170.131 66.4708 169.613 68.3952 168.558 69.7694Z" fill="#017BFF"/>
<path d="M8.21698 73.3477L7.21701 73.356L7.22252 74.0154L7.83075 74.2701L8.21698 73.3477ZM9.81707 42.6772L10.8135 42.7618L10.814 42.756L9.81707 42.6772ZM10.338 36.0807L11.3349 36.1594L11.3671 35.7519L11.1046 35.4385L10.338 36.0807ZM8.58233 32.7672L7.63912 33.0994L7.64333 33.1114L7.64784 33.1232L8.58233 32.7672ZM7.78818 29.6377L6.83689 29.3294L6.78686 29.4838L6.78822 29.6461L7.78818 29.6377ZM7.85058 29.4452L7.0456 28.8519L6.94932 28.9825L6.89929 29.1369L7.85058 29.4452ZM11.0467 28.9705L10.9747 27.9731L10.9747 27.9731L11.0467 28.9705ZM24.7466 37.0485L23.8072 37.3912L23.8081 37.3936L24.7466 37.0485ZM28.9418 48.9179L27.9915 49.229L28.0027 49.2635L28.0165 49.297L28.9418 48.9179ZM29.8932 47.8859L30.8446 48.1942L30.8487 48.1811L29.8932 47.8859ZM33.525 38.2552L34.457 38.6176L34.458 38.6151L33.525 38.2552ZM37.7989 28.8752L38.5118 29.5764L38.5118 29.5764L37.7989 28.8752ZM48.7719 32.3038L47.8206 31.9955L47.8172 32.0058L47.8141 32.0161L48.7719 32.3038ZM47.3954 36.0914L46.5078 35.6309L46.3661 35.904L46.4024 36.2094L47.3954 36.0914ZM47.3207 73.1493L47.121 72.1695L47.107 72.1723L47.093 72.1756L47.3207 73.1493ZM41.4356 73.5185L40.4377 73.4538L40.4353 73.4903L40.4356 73.5268L41.4356 73.5185ZM41.1206 51.1203L40.1214 51.1605L40.1218 51.1683L41.1206 51.1203ZM40.2688 41.0791L40.2605 40.0791L39.8463 40.0826L39.5558 40.3779L40.2688 41.0791ZM39.888 41.4663L39.175 40.7651L39.0727 40.8691L39.0044 40.9981L39.888 41.4663ZM36.6269 49.4937L35.6842 49.1598L35.681 49.1694L36.6269 49.4937ZM33.3834 59.6332L34.3425 59.9163L34.3436 59.9125L33.3834 59.6332ZM32.0763 64.0602L32.9901 64.4664L33.0168 64.4064L33.0354 64.3434L32.0763 64.0602ZM27.6007 64.6096L27.4128 65.5919L27.4247 65.594L27.6007 64.6096ZM26.5736 64.2342L25.611 64.5053L25.6186 64.532L25.6276 64.5583L26.5736 64.2342ZM22.5122 53.0677L21.5735 53.4122L21.5741 53.414L22.5122 53.0677ZM18.0664 41.8404L17.1757 42.295L17.2264 42.3943L17.2977 42.4801L18.0664 41.8404ZM17.5549 41.9086L18.5375 42.0945L18.5425 42.0683L18.546 42.0418L17.5549 41.9086ZM16.9751 72.1225L17.6736 72.8381L18.0564 72.4644L17.958 71.9385L16.9751 72.1225ZM10.5158 72.7125C9.65718 72.7196 9.03518 72.6062 8.60321 72.4253L7.83075 74.2701C8.59767 74.5912 9.51376 74.7209 10.5325 74.7124L10.5158 72.7125ZM9.21695 73.3393C9.15752 66.2184 9.68775 56.0315 10.8135 42.7618L8.82065 42.5927C7.6933 55.8814 7.1568 66.1414 7.21701 73.356L9.21695 73.3393ZM10.814 42.756L11.3349 36.1594L9.34114 36.0019L8.82018 42.5985L10.814 42.756ZM11.1046 35.4385C10.6056 34.8427 10.0678 33.8576 9.51681 32.4112L7.64784 33.1232C8.23103 34.6541 8.86379 35.878 9.57144 36.7228L11.1046 35.4385ZM9.52553 32.435C8.99651 30.933 8.79156 30.0379 8.78815 29.6294L6.78822 29.6461C6.79478 30.4322 7.11925 31.6234 7.63912 33.0994L9.52553 32.435ZM8.73947 29.946L8.80187 29.7535L6.89929 29.1369L6.83689 29.3294L8.73947 29.946ZM8.65556 30.0385C8.57873 30.1427 8.49898 30.2044 8.45718 30.2335C8.41235 30.2648 8.37769 30.2817 8.36444 30.2878C8.33996 30.2993 8.3415 30.2957 8.38832 30.2827C8.47943 30.2575 8.64064 30.2241 8.89145 30.1869C9.38654 30.1134 10.1243 30.0397 11.1188 29.9679L10.9747 27.9731C9.96499 28.046 9.16793 28.1239 8.59764 28.2086C8.31576 28.2504 8.06163 28.2979 7.85474 28.3552C7.75257 28.3835 7.63446 28.4215 7.51966 28.475C7.43333 28.5153 7.21409 28.6233 7.0456 28.8519L8.65556 30.0385ZM11.1188 29.9679C13.0982 29.825 15.2734 29.7433 17.6452 29.7235L17.6286 27.7235C15.2219 27.7436 13.0036 27.8266 10.9747 27.9731L11.1188 29.9679ZM17.6452 29.7235C18.8525 29.7134 19.7598 29.7325 20.3814 29.7774C20.6949 29.8001 20.9094 29.8275 21.0425 29.8541C21.1096 29.8675 21.1327 29.8762 21.127 29.8741C21.1231 29.8726 21.1007 29.8642 21.0674 29.8456C21.036 29.8281 20.9743 29.7903 20.9062 29.7234L22.3086 28.2974C22.1325 28.1242 21.9327 28.0397 21.8226 27.9989C21.6939 27.9512 21.5593 27.9178 21.4341 27.8928C21.1825 27.8426 20.8738 27.8078 20.5255 27.7826C19.8236 27.7319 18.8532 27.7133 17.6286 27.7235L17.6452 29.7235ZM20.9062 29.7234C20.8601 29.678 20.8319 29.6401 20.8224 29.6271C20.8161 29.6185 20.8117 29.612 20.8092 29.6082C20.8066 29.6043 20.8052 29.6021 20.8051 29.6019C20.805 29.6018 20.8078 29.6064 20.8137 29.617C20.8194 29.6274 20.8269 29.6415 20.8364 29.66C20.876 29.7376 20.9326 29.8587 21.0081 30.0317C21.158 30.3751 21.362 30.8765 21.6221 31.5423C22.1411 32.8713 22.8691 34.8196 23.8072 37.3912L25.6861 36.7058C24.7465 34.1302 24.0124 32.1651 23.485 30.8148C23.2219 30.1409 23.0067 29.6111 22.8412 29.2318C22.759 29.0434 22.6839 28.8803 22.6177 28.7507C22.5849 28.6864 22.5486 28.6191 22.5099 28.556C22.4814 28.5096 22.4129 28.4 22.3086 28.2974L20.9062 29.7234ZM23.8081 37.3936C25.6841 42.4945 27.0776 46.4378 27.9915 49.229L29.8922 48.6067C28.9671 45.7811 27.5638 41.8114 25.6852 36.7033L23.8081 37.3936ZM28.0165 49.297C28.1269 49.5665 28.4744 50.2418 29.2728 50.2351L29.2561 48.2352C29.5043 48.2331 29.69 48.3463 29.789 48.4437C29.8688 48.5221 29.8836 48.5788 29.8672 48.5387L28.0165 49.297ZM29.2728 50.2351C29.5842 50.2325 29.8082 50.0963 29.923 50.0087C30.0419 49.9179 30.1249 49.8182 30.1762 49.7496C30.2796 49.6116 30.361 49.4548 30.4241 49.3194C30.5553 49.0379 30.6954 48.6543 30.8445 48.1942L28.942 47.5776C28.7999 48.016 28.6897 48.3064 28.6113 48.4747C28.5696 48.5642 28.5564 48.5762 28.5753 48.5509C28.5845 48.5387 28.6278 48.4812 28.7096 48.4188C28.7874 48.3595 28.9767 48.2375 29.2561 48.2352L29.2728 50.2351ZM30.8487 48.1811C31.1261 47.2834 32.3186 44.1176 34.457 38.6176L32.593 37.8929C30.4707 43.3515 29.2421 46.6061 28.9378 47.5906L30.8487 48.1811ZM34.458 38.6151C35.5202 35.8615 36.4006 33.7204 37.1009 32.1834C37.4514 31.4142 37.7512 30.8086 38.0013 30.3586C38.2638 29.8862 38.4334 29.6562 38.5118 29.5764L37.0859 28.1741C36.8047 28.46 36.5265 28.8951 36.2531 29.3872C35.9672 29.9016 35.6428 30.56 35.281 31.3541C34.5567 32.9438 33.6598 35.127 32.592 37.8954L34.458 38.6151ZM38.5118 29.5764C38.4293 29.6604 38.369 29.677 38.4135 29.658C38.4465 29.6439 38.5165 29.6193 38.6374 29.5898C38.8794 29.5308 39.2395 29.4731 39.7359 29.4228C40.7239 29.3228 42.1435 29.263 44.0102 29.2474L43.9935 27.2475C42.1057 27.2632 40.6141 27.3237 39.5345 27.433C38.9971 27.4874 38.5342 27.5565 38.1641 27.6466C37.9789 27.6917 37.7956 27.7472 37.628 27.8187C37.4718 27.8854 37.2636 27.9933 37.0859 28.1741L38.5118 29.5764ZM44.0102 29.2474C45.8832 29.2318 47.2683 29.247 48.178 29.291C48.6387 29.3134 48.9455 29.3417 49.1234 29.3705C49.2211 29.3864 49.2264 29.3942 49.1859 29.3784C49.1697 29.3722 49.0771 29.3366 48.9717 29.2484C48.8648 29.1588 48.6396 28.9202 48.6364 28.5288L50.6363 28.5121C50.6328 28.094 50.3927 27.8297 50.2563 27.7154C50.1214 27.6024 49.9845 27.543 49.9095 27.5139C49.7513 27.4525 49.5803 27.4185 49.443 27.3962C49.1508 27.3489 48.7531 27.3166 48.2748 27.2934C47.3063 27.2465 45.875 27.2318 43.9935 27.2475L44.0102 29.2474ZM48.6364 28.5288C48.6409 29.0709 48.4065 30.1877 47.8206 31.9955L49.7231 32.6121C50.302 30.8261 50.6439 29.4206 50.6363 28.5121L48.6364 28.5288ZM47.8141 32.0161C47.2755 33.8091 46.8388 34.9927 46.5078 35.6309L48.2831 36.5519C48.7079 35.7331 49.1888 34.3916 49.7296 32.5915L47.8141 32.0161ZM46.4024 36.2094C48.0055 49.6958 48.8485 61.6193 48.935 71.9838L50.9349 71.9671C50.8477 61.511 49.9977 49.5118 48.3884 35.9734L46.4024 36.2094ZM48.935 71.9838C48.9328 71.7157 49.0764 71.5718 49.0877 71.5611C49.0943 71.5549 49.0442 71.6005 48.8745 71.6767C48.5408 71.8265 47.9726 71.9959 47.121 72.1695L47.5204 74.1292C48.4152 73.9468 49.1559 73.7427 49.6937 73.5012C49.9597 73.3817 50.2359 73.2272 50.4595 73.0166C50.6878 72.8014 50.939 72.4485 50.9349 71.9671L48.935 71.9838ZM47.093 72.1756C45.4254 72.5654 44.0991 72.7522 43.0933 72.7606L43.11 74.7605C44.3228 74.7504 45.8091 74.5297 47.5483 74.1231L47.093 72.1756ZM43.0933 72.7606C42.5505 72.7651 42.1965 72.7464 41.997 72.7174C41.8871 72.7014 41.893 72.6915 41.952 72.7182C41.9824 72.7319 42.084 72.7803 42.1892 72.8917C42.3093 73.0189 42.4332 73.2315 42.4355 73.5101L40.4356 73.5268C40.4412 74.202 40.9972 74.4815 41.129 74.541C41.3272 74.6305 41.5415 74.6722 41.7093 74.6966C42.0652 74.7483 42.5435 74.7653 43.11 74.7605L43.0933 72.7606ZM42.4335 73.5831C42.5494 71.7936 42.5894 68.9458 42.557 65.0608L40.5571 65.0775C40.5895 68.9576 40.5485 71.7427 40.4377 73.4538L42.4335 73.5831ZM42.557 65.0608C42.5241 61.1186 42.3781 56.4551 42.1195 51.0723L40.1218 51.1683C40.3796 56.5336 40.5245 61.1693 40.5571 65.0775L42.557 65.0608ZM42.1198 51.0801C41.9851 47.7285 41.8461 45.1995 41.7022 43.503C41.6306 42.6594 41.5558 41.9964 41.4752 41.5336C41.4362 41.3098 41.3883 41.0869 41.323 40.902C41.2926 40.816 41.2371 40.6751 41.1388 40.5372C41.0644 40.4329 40.7821 40.0747 40.2605 40.0791L40.2771 42.079C39.7929 42.0831 39.5478 41.7508 39.5105 41.6985C39.4492 41.6126 39.4307 41.5499 39.4372 41.5683C39.4456 41.5921 39.471 41.6826 39.5049 41.8768C39.5699 42.2502 39.6389 42.8421 39.7093 43.672C39.8494 45.3226 39.987 47.8155 40.1214 51.1605L42.1198 51.0801ZM39.5558 40.3779L39.175 40.7651L40.601 42.1674L40.9818 41.7802L39.5558 40.3779ZM39.0044 40.9981C38.1272 42.6538 37.0197 45.3897 35.6843 49.1599L37.5695 49.8276C38.902 46.066 39.9686 43.4502 40.7717 41.9344L39.0044 40.9981ZM35.681 49.1694C34.3859 52.946 33.2997 56.3412 32.4232 59.3538L34.3436 59.9125C35.2092 56.937 36.2853 53.5726 37.5728 49.8181L35.681 49.1694ZM32.4243 59.35L31.1172 63.7771L33.0354 64.3434L34.3425 59.9163L32.4243 59.35ZM31.1625 63.654C31.1982 63.5737 31.2409 63.6003 31.0887 63.6576C30.9236 63.7197 30.6285 63.7763 30.1539 63.7803L30.1706 65.7802C30.7626 65.7753 31.3198 65.7075 31.7928 65.5295C32.2786 65.3468 32.745 65.0179 32.9901 64.4664L31.1625 63.654ZM30.1539 63.7803C29.1656 63.7885 28.3784 63.7328 27.7768 63.6252L27.4247 65.594C28.1905 65.731 29.1109 65.789 30.1706 65.7802L30.1539 63.7803ZM27.7887 63.6274C27.4867 63.5696 27.3024 63.5196 27.2065 63.4845C27.1564 63.4662 27.1686 63.4656 27.2101 63.4928C27.2327 63.5075 27.2809 63.5415 27.3355 63.6001C27.3901 63.6587 27.4684 63.7607 27.5196 63.91L25.6276 64.5583C25.7461 64.9044 25.9997 65.0909 26.1146 65.1661C26.2527 65.2564 26.3987 65.3187 26.5199 65.363C26.7663 65.4531 27.0738 65.5269 27.4128 65.5918L27.7887 63.6274ZM27.5361 63.963C27.39 63.4444 26.012 59.6597 23.4503 52.7213L21.5741 53.414C24.1637 60.4278 25.4933 64.0875 25.611 64.5053L27.5361 63.963ZM23.451 52.7231C22.1621 49.2113 21.1442 46.5117 20.3985 44.6286C20.0261 43.6882 19.7182 42.9427 19.4763 42.3982C19.3556 42.1267 19.2472 41.8956 19.1523 41.7111C19.0694 41.55 18.9608 41.3519 18.835 41.2007L17.2977 42.4801C17.2689 42.4454 17.2915 42.4662 17.374 42.6263C17.4444 42.7632 17.5355 42.9558 17.6486 43.2103C17.8741 43.718 18.1704 44.4342 18.539 45.365C19.2753 47.2243 20.2864 49.9053 21.5735 53.4122L23.451 52.7231ZM18.957 41.3857C18.8781 41.231 18.7776 41.0569 18.6508 40.9073C18.5701 40.8121 18.259 40.4547 17.7348 40.4591L17.7515 42.459C17.5171 42.461 17.348 42.3743 17.2636 42.3191C17.1803 42.2646 17.1354 42.2125 17.1251 42.2004C17.1061 42.1779 17.1245 42.1948 17.1757 42.295L18.957 41.3857ZM17.7348 40.4591C17.0205 40.4651 16.7525 41.0837 16.7097 41.1858C16.6269 41.3835 16.5874 41.5997 16.5638 41.7755L18.546 42.0418C18.5626 41.9185 18.5746 41.9104 18.5545 41.9582C18.5448 41.9816 18.5018 42.0815 18.3964 42.1887C18.2757 42.3114 18.0554 42.4565 17.7515 42.459L17.7348 40.4591ZM16.5724 41.7228C15.8183 45.7097 15.483 51.5085 15.5461 59.078L17.5461 59.0613C17.4832 51.5274 17.8205 45.8855 18.5375 42.0945L16.5724 41.7228ZM15.5461 59.078C15.5775 62.8358 15.629 65.8101 15.7009 67.9975C15.7716 70.1501 15.8636 71.6197 15.9921 72.3065L17.958 71.9385C17.8633 71.4326 17.7721 70.1302 17.6998 67.9318C17.6287 65.7683 17.5774 62.8126 17.5461 59.0613L15.5461 59.078ZM16.2765 71.407C15.9233 71.7518 15.3115 72.0817 14.3295 72.3237C13.3559 72.5636 12.0916 72.6993 10.5158 72.7125L10.5325 74.7124C12.1992 74.6985 13.6312 74.5556 14.8081 74.2656C15.9764 73.9777 16.9687 73.5262 17.6736 72.8381L16.2765 71.407ZM77.2575 59.587L76.5446 58.8858L76.5446 58.8858L77.2575 59.587ZM80.3518 54.569L81.2808 54.9392L81.2833 54.9326L80.3518 54.569ZM80.2444 41.7055L79.3537 42.1601L79.3584 42.1692L80.2444 41.7055ZM77.2045 37.8907L76.5971 38.6851L76.6065 38.6923L76.616 38.6992L77.2045 37.8907ZM73.2185 35.7479L73.5588 34.8076L73.5579 34.8073L73.2185 35.7479ZM65.7846 34.5939L66.4975 35.2951L66.788 34.9997L66.7845 34.5855L65.7846 34.5939ZM66.0367 64.8008L66.7378 64.0879L66.0367 64.8008ZM69.3619 64.4531L69.0938 63.4896L69.0842 63.4924L69.3619 64.4531ZM73.1879 62.7571L73.683 63.626L73.6912 63.6212L73.1879 62.7571ZM57.4284 60.9685L56.4284 60.9693L56.4284 60.9769L57.4284 60.9685ZM57.4094 35.6878L58.4094 35.6871L58.4092 35.3876L58.2444 35.1376L57.4094 35.6878ZM55.5854 31.8629L54.6556 32.2311L54.6586 32.2383L55.5854 31.8629ZM54.5283 27.9036L55.2413 28.6048L55.2413 28.6048L54.5283 27.9036ZM82.6645 32.5969L82.0611 33.3944L82.0645 33.3969L82.6645 32.5969ZM88.6838 55.9715L89.6205 56.3217L89.6224 56.3165L88.6838 55.9715ZM84.7704 62.5324L84.0319 61.8581L84.0313 61.8588L84.7704 62.5324ZM79.3056 67.2502L79.8631 68.0803L79.8672 68.0776L79.3056 67.2502ZM72.932 70.4395L73.2506 71.3874L73.2614 71.3837L72.932 70.4395ZM57.9074 72.3569L57.2063 73.0699L57.2063 73.0699L57.9074 72.3569ZM77.9705 60.2882C79.3136 58.9225 80.4093 57.1262 81.2807 54.9392L79.4228 54.1989C78.6225 56.2073 77.6554 57.7563 76.5446 58.8858L77.9705 60.2882ZM81.2833 54.9326C82.1669 52.669 82.596 50.2775 82.5751 47.7662L80.5751 47.7829C80.5941 50.0501 80.2076 52.1882 79.4202 54.2054L81.2833 54.9326ZM82.5751 47.7662C82.5542 45.2611 82.0888 43.0727 81.1304 41.2417L79.3584 42.1692C80.1345 43.6518 80.5562 45.5095 80.5751 47.7829L82.5751 47.7662ZM81.1351 41.2508C80.2187 39.4556 79.1142 38.0439 77.793 37.0822L76.616 38.6992C77.613 39.4249 78.535 40.5563 79.3538 42.1601L81.1351 41.2508ZM77.8118 37.0962C76.5643 36.1426 75.1439 35.3813 73.5588 34.8076L72.8781 36.6882C74.2888 37.1988 75.5258 37.8661 76.5971 38.6851L77.8118 37.0962ZM73.5579 34.8073C71.1545 33.9399 68.8356 33.5044 66.6077 33.523L66.6243 35.5229C68.5776 35.5066 70.6603 35.8878 72.879 36.6885L73.5579 34.8073ZM66.6077 33.523C66.3246 33.5253 66.0854 33.5326 65.9071 33.5478C65.8256 33.5547 65.7131 33.5667 65.6033 33.593C65.5571 33.6041 65.4418 33.6332 65.316 33.7023C65.2579 33.7342 64.7796 33.9976 64.7846 34.6022L66.7845 34.5855C66.787 34.8774 66.6639 35.0998 66.5489 35.2347C66.4439 35.3579 66.334 35.425 66.2789 35.4553C66.1703 35.5149 66.081 35.5351 66.0693 35.5379C66.0288 35.5476 66.0202 35.5454 66.0772 35.5405C66.1761 35.5321 66.3528 35.5252 66.6243 35.5229L66.6077 33.523ZM65.0716 33.8927C64.8682 34.0995 64.795 34.3476 64.7748 34.4139C64.7398 34.5285 64.7151 34.6503 64.6961 34.7634C64.6576 34.9932 64.6267 35.2877 64.6007 35.6321C64.5482 36.3265 64.5091 37.311 64.4822 38.5752C64.4282 41.1083 64.4219 44.8217 64.4627 49.7094L66.4626 49.6928C66.4218 44.8101 66.4284 41.1205 66.4817 38.6179C66.5084 37.3642 66.5466 36.4226 66.595 35.7829C66.6194 35.4602 66.6449 35.2355 66.6686 35.0941C66.6807 35.0216 66.6886 34.9948 66.6877 34.9978C66.6871 34.9996 66.6792 35.026 66.6602 35.066C66.6452 35.0975 66.5974 35.1935 66.4975 35.2951L65.0716 33.8927ZM64.4627 49.7094C64.5035 54.5972 64.5718 58.31 64.668 60.8418C64.7161 62.1054 64.7716 63.0891 64.8356 63.7825C64.8674 64.1265 64.9032 64.4204 64.9455 64.6495C64.9664 64.7623 64.9932 64.8837 65.0301 64.9976C65.0514 65.0636 65.1287 65.3105 65.3355 65.5138L66.7378 64.0879C66.8394 64.1877 66.8887 64.2829 66.9043 64.3142C66.924 64.3538 66.9323 64.3802 66.9329 64.3819C66.9339 64.3848 66.9256 64.3582 66.9122 64.2859C66.8862 64.1449 66.8569 63.9207 66.8272 63.5985C66.7681 62.9596 66.7142 62.0188 66.6666 60.7658C66.5715 58.2644 66.5033 54.5754 66.4626 49.6928L64.4627 49.7094ZM65.3355 65.5138C65.5185 65.6938 65.7245 65.7722 65.8328 65.8073C65.9584 65.848 66.084 65.871 66.1923 65.8855C66.4099 65.9148 66.6665 65.9236 66.942 65.9213L66.9254 63.9214C66.689 63.9234 66.54 63.9143 66.4586 63.9033C66.4174 63.8978 66.4201 63.8952 66.4494 63.9047C66.4654 63.9099 66.5003 63.9222 66.5457 63.9461C66.5896 63.9693 66.6618 64.0131 66.7378 64.0879L65.3355 65.5138ZM66.942 65.9213C67.6391 65.9155 68.5567 65.7267 69.6395 65.4138L69.0842 63.4924C68.0388 63.7945 67.3376 63.918 66.9254 63.9214L66.942 65.9213ZM69.6299 65.4165C70.8426 65.0791 72.1964 64.473 73.683 63.6259L72.6928 61.8882C71.2916 62.6867 70.0948 63.2112 69.0939 63.4897L69.6299 65.4165ZM73.6912 63.6212C75.2555 62.7099 76.6823 61.5981 77.9705 60.2882L76.5446 58.8858C75.3788 60.0712 74.0925 61.0728 72.6845 61.893L73.6912 63.6212ZM58.4284 60.9678L58.4094 35.6871L56.4094 35.6886L56.4284 60.9693L58.4284 60.9678ZM58.2444 35.1376C57.8283 34.5062 57.2514 33.3124 56.5123 31.4875L54.6586 32.2383C55.4006 34.0705 56.0397 35.4267 56.5744 36.2381L58.2444 35.1376ZM56.5152 31.4947C56.1473 30.5656 55.8764 29.8399 55.6986 29.3111C55.6095 29.0461 55.5477 28.842 55.5091 28.6929C55.4644 28.5203 55.4693 28.4892 55.4696 28.5358L53.4697 28.5525C53.4715 28.7697 53.5239 29.0048 53.5729 29.1941C53.628 29.407 53.706 29.6604 53.8029 29.9485C53.997 30.5259 54.2826 31.289 54.6557 32.2311L56.5152 31.4947ZM55.4696 28.5358C55.4681 28.3555 55.4725 28.2447 55.4778 28.1872C55.4806 28.1563 55.4814 28.1674 55.473 28.2023C55.4687 28.2201 55.4573 28.264 55.433 28.3209C55.4204 28.3504 55.4012 28.3907 55.3731 28.4366C55.3454 28.4817 55.303 28.542 55.2413 28.6048L53.8154 27.2024C53.5966 27.4248 53.5395 27.6888 53.5287 27.7334C53.5049 27.8324 53.4931 27.929 53.4861 28.0048C53.4718 28.1608 53.468 28.3488 53.4697 28.5525L55.4696 28.5358ZM55.2413 28.6048C55.1534 28.6941 55.0919 28.706 55.1588 28.679C55.21 28.6583 55.305 28.6278 55.4586 28.593C55.7651 28.5237 56.2146 28.4577 56.825 28.4009C58.0407 28.2876 59.7885 28.2197 62.0831 28.2006L62.0664 26.2006C59.7532 26.2199 57.9393 26.2884 56.6395 26.4095C55.9922 26.4698 55.4455 26.5455 55.0174 26.6423C54.8036 26.6906 54.5967 26.7492 54.4113 26.8239C54.2417 26.8923 54.009 27.0055 53.8154 27.2024L55.2413 28.6048ZM62.0831 28.2006C70.8343 28.1275 77.4494 29.9047 82.0611 33.3944L83.2679 31.7995C78.1753 27.9459 71.0639 26.1255 62.0664 26.2006L62.0831 28.2006ZM82.0645 33.3969C86.7046 36.8772 89.0353 41.5319 89.0847 47.4559L91.0846 47.4392C91.0301 40.9049 88.414 35.6593 83.2645 31.797L82.0645 33.3969ZM89.0847 47.4559C89.1095 50.4198 88.659 53.1401 87.7452 55.6265L89.6224 56.3165C90.6277 53.5814 91.1112 50.619 91.0846 47.4392L89.0847 47.4559ZM87.7471 55.6214C86.8265 58.0842 85.5849 60.1574 84.0319 61.8581L85.5088 63.2067C87.2539 61.2957 88.6212 58.995 89.6205 56.3217L87.7471 55.6214ZM84.0313 61.8588C82.4792 63.5617 80.7176 65.0831 78.7439 66.4228L79.8672 68.0776C81.9666 66.6525 83.8482 65.0287 85.5095 63.206L84.0313 61.8588ZM78.748 66.42C76.8242 67.7121 74.7763 68.7368 72.6025 69.4953L73.2614 71.3837C75.5973 70.5685 77.7985 69.467 79.8631 68.0803L78.748 66.42ZM72.6133 69.4916C68.2611 70.9548 64.3419 71.6872 60.8462 71.7164L60.8629 73.7163C64.6203 73.685 68.7527 72.8995 73.2506 71.3874L72.6133 69.4916ZM60.8462 71.7164C60.01 71.7234 59.3873 71.6968 58.9589 71.6445C58.7437 71.6183 58.6051 71.5887 58.5253 71.5647C58.4209 71.5333 58.4988 71.536 58.6086 71.644L57.2063 73.0699C57.4451 73.3049 57.7426 73.4177 57.9484 73.4797C58.1787 73.5491 58.4408 73.5962 58.7168 73.6298C59.2707 73.6974 59.9925 73.7236 60.8629 73.7163L60.8462 71.7164ZM58.6086 71.644C58.6996 71.7335 58.7479 71.8183 58.767 71.8543C58.7891 71.8959 58.8 71.9261 58.8032 71.9351C58.8091 71.9518 58.8049 71.9437 58.7949 71.8949C58.7755 71.8003 58.7519 71.6404 58.727 71.3998C58.6779 70.924 58.6329 70.2203 58.5932 69.2774C58.5141 67.3966 58.4589 64.6264 58.4283 60.9602L56.4284 60.9769C56.4591 64.6491 56.5144 67.4462 56.595 69.3615C56.6351 70.3167 56.6822 71.0683 56.7376 71.605C56.765 71.8706 56.7966 72.1063 56.8356 72.2965C56.8548 72.3902 56.8806 72.4968 56.9172 72.6006C56.9411 72.6684 57.0178 72.8846 57.2063 73.0699L58.6086 71.644ZM130.068 59.1463L129.355 58.4451L129.355 58.4451L130.068 59.1463ZM133.162 54.1283L134.091 54.4984L134.094 54.4919L133.162 54.1283ZM133.055 41.2647L132.164 41.7194L132.169 41.7284L133.055 41.2647ZM130.015 37.4499L129.408 38.2444L129.417 38.2515L129.427 38.2584L130.015 37.4499ZM126.029 35.3071L126.369 34.3668L126.369 34.3665L126.029 35.3071ZM118.595 34.1531L119.308 34.8543L119.599 34.559L119.595 34.1448L118.595 34.1531ZM118.847 64.3601L119.549 63.6471L118.847 64.3601ZM122.173 64.0123L121.905 63.0489L121.895 63.0516L122.173 64.0123ZM125.999 62.3163L126.494 63.1852L126.502 63.1804L125.999 62.3163ZM110.239 60.5278L109.239 60.5285L109.239 60.5361L110.239 60.5278ZM110.22 35.2471L111.22 35.2463L111.22 34.9469L111.055 34.6968L110.22 35.2471ZM108.396 31.4222L107.466 31.7903L107.469 31.7976L108.396 31.4222ZM107.339 27.4628L108.052 28.164L108.052 28.164L107.339 27.4628ZM135.475 32.1562L134.872 32.9536L134.875 32.9562L135.475 32.1562ZM141.494 55.5308L142.431 55.8809L142.433 55.8758L141.494 55.5308ZM137.581 62.0917L136.843 61.4174L136.842 61.418L137.581 62.0917ZM132.116 66.8094L132.674 67.6396L132.678 67.6368L132.116 66.8094ZM125.743 69.9987L126.061 70.9467L126.072 70.9429L125.743 69.9987ZM110.718 71.9162L110.017 72.6292L110.017 72.6292L110.718 71.9162ZM130.781 59.8474C132.124 58.4817 133.22 56.6854 134.091 54.4984L132.233 53.7581C131.433 55.7666 130.466 57.3156 129.355 58.4451L130.781 59.8474ZM134.094 54.4919C134.978 52.2283 135.407 49.8368 135.386 47.3255L133.386 47.3422C133.405 49.6094 133.018 51.7475 132.231 53.7646L134.094 54.4919ZM135.386 47.3255C135.365 44.8204 134.899 42.632 133.941 40.801L132.169 41.7284C132.945 43.2111 133.367 45.0688 133.386 47.3422L135.386 47.3255ZM133.946 40.8101C133.029 39.0149 131.925 37.6031 130.604 36.6415L129.427 38.2584C130.424 38.9841 131.346 40.1156 132.164 41.7194L133.946 40.8101ZM130.622 36.6555C129.375 35.7018 127.955 34.9406 126.369 34.3668L125.689 36.2474C127.099 36.7581 128.336 37.4254 129.408 38.2444L130.622 36.6555ZM126.369 34.3665C123.965 33.4991 121.646 33.0636 119.418 33.0822L119.435 35.0822C121.388 35.0659 123.471 35.447 125.69 36.2478L126.369 34.3665ZM119.418 33.0822C119.135 33.0846 118.896 33.0918 118.718 33.107C118.636 33.114 118.524 33.1259 118.414 33.1522C118.368 33.1633 118.252 33.1925 118.127 33.2615C118.069 33.2935 117.59 33.5569 117.595 34.1615L119.595 34.1448C119.598 34.4366 119.475 34.659 119.36 34.794C119.255 34.9172 119.145 34.9843 119.09 35.0145C118.981 35.0741 118.892 35.0944 118.88 35.0972C118.839 35.1069 118.831 35.1047 118.888 35.0998C118.987 35.0913 119.163 35.0844 119.435 35.0822L119.418 33.0822ZM117.882 33.452C117.679 33.6587 117.606 33.9069 117.585 33.9732C117.551 34.0877 117.526 34.2095 117.507 34.3226C117.468 34.5524 117.437 34.8469 117.411 35.1914C117.359 35.8858 117.32 36.8703 117.293 38.1345C117.239 40.6676 117.233 44.381 117.273 49.2687L119.273 49.252C119.233 44.3694 119.239 40.6798 119.292 38.1771C119.319 36.9235 119.357 35.9819 119.406 35.3421C119.43 35.0194 119.456 34.7948 119.479 34.6534C119.491 34.5809 119.499 34.5541 119.498 34.557C119.498 34.5588 119.49 34.5853 119.471 34.6252C119.456 34.6568 119.408 34.7528 119.308 34.8543L117.882 33.452ZM117.273 49.2687C117.314 54.1564 117.382 57.8692 117.479 60.401C117.527 61.6646 117.582 62.6483 117.646 63.3418C117.678 63.6857 117.714 63.9797 117.756 64.2088C117.777 64.3215 117.804 64.443 117.841 64.5569C117.862 64.6228 117.939 64.8697 118.146 65.0731L119.549 63.6471C119.65 63.747 119.699 63.8422 119.715 63.8734C119.735 63.9131 119.743 63.9394 119.744 63.9412C119.745 63.9441 119.736 63.9175 119.723 63.8452C119.697 63.7042 119.668 63.48 119.638 63.1577C119.579 62.5189 119.525 61.5781 119.477 60.325C119.382 57.8236 119.314 54.1346 119.273 49.252L117.273 49.2687ZM118.146 65.0731C118.329 65.2531 118.535 65.3314 118.643 65.3665C118.769 65.4072 118.895 65.4302 119.003 65.4448C119.221 65.474 119.477 65.4829 119.753 65.4806L119.736 63.4806C119.5 63.4826 119.351 63.4735 119.269 63.4626C119.228 63.4571 119.231 63.4544 119.26 63.4639C119.276 63.4691 119.311 63.4814 119.356 63.5053C119.4 63.5286 119.472 63.5723 119.549 63.6471L118.146 65.0731ZM119.753 65.4806C120.45 65.4748 121.367 65.286 122.45 64.973L121.895 63.0516C120.849 63.3538 120.148 63.4772 119.736 63.4806L119.753 65.4806ZM122.441 64.9757C123.653 64.6384 125.007 64.0323 126.494 63.1852L125.503 61.4475C124.102 62.2459 122.905 62.7705 121.905 63.0489L122.441 64.9757ZM126.502 63.1804C128.066 62.2691 129.493 61.1573 130.781 59.8474L129.355 58.4451C128.189 59.6304 126.903 60.632 125.495 61.4523L126.502 63.1804ZM111.239 60.527L111.22 35.2463L109.22 35.2478L109.239 60.5285L111.239 60.527ZM111.055 34.6968C110.639 34.0654 110.062 32.8717 109.323 31.0468L107.469 31.7976C108.211 33.6297 108.85 34.9859 109.385 35.7973L111.055 34.6968ZM109.326 31.054C108.958 30.1249 108.687 29.3992 108.509 28.8704C108.42 28.6053 108.358 28.4012 108.32 28.2522C108.275 28.0796 108.28 28.0484 108.28 28.095L106.28 28.1117C106.282 28.3289 106.335 28.5641 106.384 28.7534C106.439 28.9662 106.517 29.2196 106.614 29.5077C106.808 30.0852 107.093 30.8482 107.466 31.7903L109.326 31.054ZM108.28 28.095C108.279 27.9147 108.283 27.804 108.288 27.7464C108.291 27.7155 108.292 27.7266 108.284 27.7615C108.279 27.7793 108.268 27.8232 108.244 27.8801C108.231 27.9097 108.212 27.95 108.184 27.9958C108.156 28.041 108.114 28.1013 108.052 28.164L106.626 26.7617C106.407 26.9841 106.35 27.248 106.339 27.2926C106.316 27.3917 106.304 27.4882 106.297 27.564C106.282 27.72 106.279 27.908 106.28 28.1117L108.28 28.095ZM108.052 28.164C107.964 28.2534 107.903 28.2652 107.969 28.2382C108.021 28.2176 108.116 28.187 108.269 28.1523C108.576 28.083 109.025 28.017 109.636 27.9601C110.851 27.8469 112.599 27.779 114.894 27.7598L114.877 25.7599C112.564 25.7792 110.75 25.8477 109.45 25.9687C108.803 26.029 108.256 26.1047 107.828 26.2015C107.614 26.2499 107.407 26.3085 107.222 26.3832C107.052 26.4515 106.82 26.5647 106.626 26.7617L108.052 28.164ZM114.894 27.7598C123.645 27.6868 130.26 29.464 134.872 32.9536L136.079 31.3588C130.986 27.5051 123.875 25.6848 114.877 25.7599L114.894 27.7598ZM134.875 32.9562C139.515 36.4364 141.846 41.0912 141.895 47.0151L143.895 46.9984C143.841 40.4642 141.225 35.2185 136.075 31.3562L134.875 32.9562ZM141.895 47.0151C141.92 49.9791 141.47 52.6994 140.556 55.1858L142.433 55.8758C143.438 53.1407 143.922 50.1783 143.895 46.9984L141.895 47.0151ZM140.558 55.1807C139.637 57.6435 138.396 59.7167 136.843 61.4174L138.319 62.766C140.065 60.855 141.432 58.5543 142.431 55.8809L140.558 55.1807ZM136.842 61.418C135.29 63.121 133.528 64.6424 131.555 65.982L132.678 67.6368C134.777 66.2118 136.659 64.588 138.32 62.7653L136.842 61.418ZM131.559 65.9793C129.635 67.2714 127.587 68.296 125.413 69.0546L126.072 70.9429C128.408 70.1278 130.609 69.0262 132.674 67.6396L131.559 65.9793ZM125.424 69.0509C121.072 70.514 117.153 71.2465 113.657 71.2757L113.674 73.2756C117.431 73.2442 121.563 72.4587 126.061 70.9466L125.424 69.0509ZM113.657 71.2757C112.821 71.2826 112.198 71.256 111.77 71.2038C111.554 71.1776 111.416 71.148 111.336 71.124C111.232 71.0925 111.309 71.0952 111.419 71.2032L110.017 72.6292C110.256 72.8641 110.553 72.977 110.759 73.039C110.989 73.1083 111.251 73.1554 111.527 73.1891C112.081 73.2566 112.803 73.2828 113.674 73.2756L113.657 71.2757ZM111.419 71.2032C111.51 71.2927 111.559 71.3775 111.578 71.4136C111.6 71.4551 111.611 71.4854 111.614 71.4943C111.62 71.511 111.616 71.5029 111.606 71.4542C111.586 71.3595 111.563 71.1997 111.538 70.959C111.489 70.4833 111.444 69.7796 111.404 68.8367C111.325 66.9558 111.27 64.1857 111.239 60.5195L109.239 60.5361C109.27 64.2083 109.325 67.0054 109.406 68.9207C109.446 69.8759 109.493 70.6275 109.548 71.1642C109.576 71.4299 109.607 71.6655 109.646 71.8557C109.665 71.9494 109.691 72.0561 109.728 72.1598C109.752 72.2277 109.828 72.4439 110.017 72.6292L111.419 71.2032ZM154.569 57.7257L154.578 58.7257L154.591 58.7256L154.605 58.7251L154.569 57.7257ZM159.859 55.0575L160.514 55.8137L160.523 55.8056L159.859 55.0575ZM168.558 69.7694L169.125 70.593L169.255 70.5035L169.351 70.3785L168.558 69.7694ZM150.764 46.6211L150.007 45.9682L150.006 45.9689L150.764 46.6211ZM167.698 43.4077L167.166 44.2541L167.175 44.2601L167.698 43.4077ZM166.851 56.9192L166.103 56.2558L166.097 56.2626L166.851 56.9192ZM157.429 62.9501L157.099 62.0061L156.423 62.2425L156.429 62.9584L157.429 62.9501ZM158.976 64.2172L158.667 65.1685L158.69 65.176L158.714 65.1824L158.976 64.2172ZM169.78 62.847L170.311 63.6949L170.411 63.6323L170.493 63.5482L169.78 62.847ZM163.821 49.4562C163.814 48.6658 163.593 47.8956 162.99 47.3408C162.4 46.7977 161.612 46.6186 160.813 46.6252L160.829 48.6252C161.353 48.6208 161.56 48.7428 161.636 48.8127C161.699 48.8711 161.817 49.0261 161.821 49.4729L163.821 49.4562ZM160.813 46.6252C158.661 46.6432 156.864 47.7821 155.426 49.7645L157.045 50.9387C158.223 49.3151 159.483 48.6364 160.829 48.6252L160.813 46.6252ZM155.426 49.7645C153.977 51.7626 153.283 54.1384 153.306 56.8403L155.306 56.8236C155.286 54.491 155.879 52.5465 157.045 50.9387L155.426 49.7645ZM153.306 56.8403C153.308 57.163 153.332 57.4999 153.416 57.7861C153.458 57.9273 153.537 58.1374 153.703 58.3278C153.895 58.5476 154.197 58.7289 154.578 58.7257L154.561 56.7258C154.691 56.7247 154.825 56.7535 154.949 56.8141C155.069 56.873 155.154 56.9493 155.211 57.0136C155.265 57.0762 155.296 57.1318 155.311 57.1636C155.327 57.1961 155.334 57.2173 155.335 57.2206C155.336 57.2244 155.328 57.1962 155.32 57.1206C155.312 57.0485 155.307 56.9508 155.306 56.8236L153.306 56.8403ZM154.605 58.7251C156.482 58.6573 158.462 57.5896 160.514 55.8136L159.205 54.3014C157.274 55.9721 155.728 56.6832 154.533 56.7264L154.605 58.7251ZM160.523 55.8056C162.649 53.9195 163.84 51.8005 163.821 49.4562L161.821 49.4729C161.834 51.0539 161.051 52.6635 159.195 54.3094L160.523 55.8056ZM167.991 68.9458C167.438 69.3266 166.529 69.6702 165.173 69.9163C163.832 70.1597 162.129 70.2951 160.05 70.3124L160.067 72.3124C162.212 72.2945 164.038 72.155 165.53 71.8841C167.007 71.6159 168.236 71.2056 169.125 70.593L167.991 68.9458ZM160.05 70.3124C156.035 70.346 153.083 69.182 151.038 66.9433L149.561 68.2922C152.081 71.0502 155.635 72.3494 160.067 72.3124L160.05 70.3124ZM151.038 66.9433C148.959 64.6674 147.857 61.5852 147.824 57.59L145.824 57.6067C145.86 61.974 147.076 65.5713 149.561 68.2922L151.038 66.9433ZM147.824 57.59C147.791 53.5992 149.024 50.1771 151.522 47.2733L150.006 45.9689C147.18 49.2537 145.787 53.1499 145.824 57.6067L147.824 57.59ZM151.522 47.274C154.003 44.3955 157.513 42.8927 162.189 42.8536L162.173 40.8537C157.037 40.8966 152.935 42.572 150.007 45.9682L151.522 47.274ZM162.189 42.8536C164.006 42.8385 165.657 43.3047 167.166 44.254L168.231 42.5613C166.394 41.4051 164.366 40.8354 162.173 40.8537L162.189 42.8536ZM167.175 44.2601C168.501 45.0734 169.284 46.5536 169.305 49.0265L171.305 49.0098C171.281 46.1068 170.326 43.8467 168.221 42.5553L167.175 44.2601ZM169.305 49.0265C169.325 51.3531 168.318 53.7574 166.103 56.2558L167.599 57.5826C170.034 54.8367 171.33 51.9736 171.305 49.0098L169.305 49.0265ZM166.097 56.2626C163.951 58.7276 160.97 60.6522 157.099 62.0061L157.759 63.894C161.886 62.4504 165.186 60.3544 167.605 57.5758L166.097 56.2626ZM156.429 62.9584C156.434 63.5955 156.772 64.086 157.185 64.4244C157.581 64.7484 158.1 64.9845 158.667 65.1685L159.284 63.2659C158.825 63.1171 158.573 62.9757 158.453 62.8773C158.35 62.7933 158.428 62.8166 158.429 62.9417L156.429 62.9584ZM158.714 65.1824C159.864 65.494 161.001 65.6483 162.124 65.639L162.107 63.639C161.181 63.6468 160.225 63.5199 159.237 63.252L158.714 65.1824ZM162.124 65.639C165.469 65.6111 168.229 64.9962 170.311 63.6949L169.25 61.999C167.596 63.033 165.246 63.6128 162.107 63.639L162.124 65.639ZM170.493 63.5482C170.284 63.7609 170.049 63.7808 169.98 63.7813L169.964 61.7814C169.724 61.7834 169.361 61.847 169.067 62.1458L170.493 63.5482ZM169.98 63.7813C169.543 63.785 169.288 63.5152 169.202 63.4C169.115 63.2846 169.083 63.1837 169.078 63.166C169.062 63.1187 169.067 63.1141 169.077 63.1975C169.094 63.3461 169.107 63.6072 169.11 64.0046L171.11 63.9879C171.107 63.5747 171.093 63.228 171.064 62.9716C171.051 62.8526 171.028 62.6962 170.98 62.5478C170.957 62.4796 170.908 62.3409 170.802 62.2002C170.697 62.0599 170.422 61.7776 169.964 61.7814L169.98 63.7813ZM169.11 64.0046C169.13 66.3491 168.637 68.025 167.765 69.1604L169.351 70.3785C170.59 68.7655 171.132 66.5926 171.11 63.9879L169.11 64.0046Z" fill="white"/>
</g>
</g>
</g>
</svg>
