<svg width="241" height="85" viewBox="0 0 241 85" fill="none" xmlns="http://www.w3.org/2000/svg">
<g id="Logo">
<g id="Rectangle 1">
<path d="M0.560922 36.9972C0.815477 16.5642 17.586 0.206358 38.019 0.460913L203.047 2.51684C223.48 2.7714 239.837 19.5419 239.583 39.9749L239.483 48.0029C239.228 68.4358 222.458 84.7936 202.025 84.5391L36.9971 82.4832C16.5642 82.2286 0.206354 65.4581 0.460909 45.0251L0.560922 36.9972Z" fill="#017BFF"/>
<path d="M0.560922 36.9972C0.815477 16.5642 17.586 0.206358 38.019 0.460913L203.047 2.51684C223.48 2.7714 239.837 19.5419 239.583 39.9749L239.483 48.0029C239.228 68.4358 222.458 84.7936 202.025 84.5391L36.9971 82.4832C16.5642 82.2286 0.206354 65.4581 0.460909 45.0251L0.560922 36.9972Z" fill="url(#paint0_linear)"/>
</g>
<g id="MD DEV">
<g id="MD DEV_2">
<path d="M18.928 65.624C17.9893 65.624 17.2213 65.496 16.624 65.24C16.624 58.072 17.2427 47.8533 18.48 34.584L19.056 27.992C18.4587 27.2667 17.8827 26.1573 17.328 24.664C16.816 23.1707 16.56 22.1253 16.56 21.528L16.624 21.336C16.752 21.1653 17.8187 21.016 19.824 20.888C21.8293 20.76 24.0267 20.696 26.416 20.696C28.848 20.696 30.1707 20.8027 30.384 21.016C30.5973 21.2293 31.6213 23.9173 33.456 29.08C35.2907 34.2 36.656 38.168 37.552 40.984C37.6373 41.1973 37.744 41.304 37.872 41.304C38 41.304 38.2133 40.856 38.512 39.96C38.8107 39.0213 40.048 35.8213 42.224 30.36C44.4 24.856 45.8507 21.7413 46.576 21.016C46.96 20.632 49.0293 20.44 52.784 20.44C56.5387 20.44 58.416 20.5467 58.416 20.76C58.416 21.4853 58.1173 22.744 57.52 24.536C56.9653 26.328 56.496 27.5867 56.112 28.312C57.6053 41.8373 58.352 53.8053 58.352 64.216C58.352 64.6427 57.4773 65.0267 55.728 65.368C54.0213 65.752 52.6133 65.944 51.504 65.944C50.3947 65.944 49.84 65.8587 49.84 65.688C49.968 63.9387 50.032 61.1227 50.032 57.24C50.032 53.3147 49.9253 48.664 49.712 43.288C49.4987 36.5893 49.2427 33.24 48.944 33.24L48.56 33.624C47.7067 35.2027 46.5973 37.8693 45.232 41.624C43.9093 45.3787 42.8 48.7493 41.904 51.736L40.56 56.152C40.3467 56.6213 39.7067 56.856 38.64 56.856C37.616 56.856 36.7627 56.792 36.08 56.664C35.44 56.536 35.0987 56.408 35.056 56.28C34.928 55.8107 33.6053 52.0773 31.088 45.08C28.5707 38.04 27.12 34.2853 26.736 33.816C26.608 33.56 26.5013 33.432 26.416 33.432C26.3307 33.432 26.2667 33.5813 26.224 33.88C25.456 37.7627 25.072 43.48 25.072 51.032C25.072 58.5413 25.1787 62.8933 25.392 64.088C24.3253 65.112 22.1707 65.624 18.928 65.624ZM85.777 52.056C87.0143 50.8187 88.0597 49.1547 88.913 47.064C89.7663 44.9307 90.193 42.6693 90.193 40.28C90.193 37.8907 89.7663 35.864 88.913 34.2C88.0597 32.4933 87.057 31.2133 85.905 30.36C84.753 29.464 83.4303 28.7387 81.937 28.184C79.633 27.3307 77.4357 26.904 75.345 26.904C74.7903 26.904 74.513 26.9253 74.513 26.968C74.2143 27.2667 74.065 32.3013 74.065 42.072C74.065 51.8427 74.2143 56.8773 74.513 57.176C74.5983 57.2613 74.897 57.304 75.409 57.304C75.9637 57.304 76.7743 57.1547 77.841 56.856C78.9503 56.5573 80.2303 56.0027 81.681 55.192C83.1743 54.3387 84.5397 53.2933 85.777 52.056ZM65.937 53.272L66.129 27.992C65.6597 27.2667 65.0623 25.9867 64.337 24.152C63.6117 22.2747 63.249 21.1653 63.249 20.824C63.249 20.44 63.2703 20.2267 63.313 20.184C63.7397 19.7573 66.257 19.544 70.865 19.544C79.7397 19.544 86.5877 21.4 91.409 25.112C96.273 28.824 98.705 33.7947 98.705 40.024C98.705 43.096 98.2143 45.9333 97.233 48.536C96.2517 51.096 94.929 53.272 93.265 55.064C91.6437 56.8133 89.809 58.3707 87.761 59.736C85.7557 61.0587 83.6223 62.104 81.361 62.872C76.9237 64.3227 72.8917 65.048 69.265 65.048C67.5583 65.048 66.577 64.92 66.321 64.664C66.065 64.408 65.937 60.6107 65.937 53.272Z" fill="#017BFF"/>
<path d="M138.59 52.056C139.827 50.8187 140.872 49.1547 141.726 47.064C142.579 44.9307 143.006 42.6693 143.006 40.28C143.006 37.8907 142.579 35.864 141.726 34.2C140.872 32.4933 139.87 31.2133 138.718 30.36C137.566 29.464 136.243 28.7387 134.75 28.184C132.446 27.3307 130.248 26.904 128.158 26.904C127.603 26.904 127.326 26.9253 127.326 26.968C127.027 27.2667 126.878 32.3013 126.878 42.072C126.878 51.8427 127.027 56.8773 127.326 57.176C127.411 57.2613 127.71 57.304 128.222 57.304C128.776 57.304 129.587 57.1547 130.654 56.856C131.763 56.5573 133.043 56.0027 134.494 55.192C135.987 54.3387 137.352 53.2933 138.59 52.056ZM118.75 53.272L118.942 27.992C118.472 27.2667 117.875 25.9867 117.15 24.152C116.424 22.2747 116.062 21.1653 116.062 20.824C116.062 20.44 116.083 20.2267 116.126 20.184C116.552 19.7573 119.07 19.544 123.678 19.544C132.552 19.544 139.4 21.4 144.222 25.112C149.086 28.824 151.518 33.7947 151.518 40.024C151.518 43.096 151.027 45.9333 150.046 48.536C149.064 51.096 147.742 53.272 146.078 55.064C144.456 56.8133 142.622 58.3707 140.574 59.736C138.568 61.0587 136.435 62.104 134.174 62.872C129.736 64.3227 125.704 65.048 122.078 65.048C120.371 65.048 119.39 64.92 119.134 64.664C118.878 64.408 118.75 60.6107 118.75 53.272ZM159.39 37.976L159.454 31.064C159.454 29.2293 159.411 28.2267 159.326 28.056C158.856 27.5867 158.238 26.456 157.47 24.664C156.744 22.872 156.382 21.72 156.382 21.208C156.851 20.7387 164.339 20.504 178.846 20.504C182.43 20.504 184.222 20.5893 184.222 20.76C184.222 21.656 184.008 22.6373 183.582 23.704C183.198 24.7707 182.771 25.624 182.302 26.264C181.875 26.904 181.555 27.2027 181.342 27.16C181.171 27.0747 180.296 27.032 178.718 27.032C177.182 27.032 175.027 27.1387 172.253 27.352C169.48 27.5227 167.966 27.736 167.71 27.992C167.454 28.248 167.326 30.5947 167.326 35.032L167.39 37.72C169.096 37.6773 171.614 37.656 174.942 37.656C178.27 37.656 179.934 37.72 179.934 37.848C179.934 39.384 179.422 41.1333 178.398 43.096C178.014 43.7787 177.779 44.0987 177.694 44.056C176.584 44.056 174.686 44.1627 171.998 44.376C169.31 44.5467 167.752 44.76 167.326 45.016C167.283 45.0587 167.262 46.8507 167.262 50.392C167.262 53.9333 167.368 55.8107 167.582 56.024C168.264 56.7067 171.934 57.048 178.59 57.048C181.278 57.048 183.091 56.984 184.03 56.856C184.968 56.6853 185.438 56.6213 185.438 56.664C185.438 57.688 185.096 58.904 184.414 60.312C183.731 61.72 183.006 62.7867 182.238 63.512C181.811 63.9387 177.971 64.152 170.718 64.152C163.507 64.152 159.774 63.9813 159.518 63.64C159.262 63.4267 159.134 61.3787 159.134 57.496C159.134 53.5707 159.176 49.432 159.262 45.08C158.494 44.3973 157.747 43.3307 157.022 41.88C156.339 40.4293 155.998 39.192 155.998 38.168C155.998 38.1253 157.128 38.0613 159.39 37.976ZM201.79 66.072C201.363 66.072 201.107 66.0293 201.022 65.944C199.614 64.664 196.99 58.2427 193.15 46.68C189.31 35.1173 187.39 27.1813 187.39 22.872C187.39 22.7867 187.689 22.616 188.286 22.36C190.078 21.5493 191.699 21.144 193.15 21.144C194.643 21.144 195.39 21.208 195.39 21.336C195.561 23.4267 196.819 28.952 199.166 37.912C201.555 46.872 203.603 53.08 205.31 56.536C205.694 57.304 206.078 57.496 206.462 57.112C206.59 56.984 206.675 56.8347 206.718 56.664C207.87 54.488 209.513 50.072 211.646 43.416C213.822 36.7173 214.91 31.2133 214.91 26.904C214.91 26.392 214.419 25.8373 213.438 25.24C212.499 24.6427 211.646 24.3013 210.878 24.216C210.835 24.1307 210.814 23.896 210.814 23.512C210.814 23.128 210.921 22.5307 211.134 21.72C211.347 20.8667 211.539 20.376 211.71 20.248C215.635 19.1813 219.561 18.648 223.486 18.648C224.126 18.7333 224.446 18.8187 224.446 18.904C224.446 22.5733 223.443 28.0773 221.438 35.416C219.475 42.712 217.449 49.24 215.358 55C213.267 60.7173 211.902 63.896 211.262 64.536C209.385 65.56 206.227 66.072 201.79 66.072Z" fill="white"/>
</g>
</g>
</g>
<defs>
<linearGradient id="paint0_linear" x1="20.5" y1="-29" x2="220" y2="81" gradientUnits="userSpaceOnUse">
<stop offset="0.347158" stop-color="white"/>
<stop offset="0.566173" stop-color="white" stop-opacity="0.402061"/>
<stop offset="0.924713" stop-color="white" stop-opacity="0"/>
</linearGradient>
</defs>
</svg>
