<svg width="112" height="74" viewBox="0 0 112 74" fill="none" xmlns="http://www.w3.org/2000/svg">
<path id="MD" d="M0.12 72.424C2.936 63.912 5.624 55.56 8.184 47.368C9.272 43.912 10.392 40.296 11.544 36.52C12.696 32.744 13.848 29 15 25.288C16.152 21.576 17.208 17.992 18.168 14.536C19.192 11.08 20.088 7.88 20.856 4.936C24.376 4.936 27.704 4.744 30.84 4.36C33.976 3.976 37.368 3.624 41.016 3.304C40.824 4.712 40.6 6.31199 40.344 8.10399C40.152 9.832 39.896 11.656 39.576 13.576C39.32 15.496 39.032 17.48 38.712 19.528C38.392 21.576 38.008 24.2 37.56 27.4C37.112 30.6 36.504 34.6 35.736 39.4H36.984C38.84 34.536 40.376 30.504 41.592 27.304C42.808 24.04 43.8 21.384 44.568 19.336C45.336 17.288 46.104 15.304 46.872 13.384C47.704 11.4 48.472 9.544 49.176 7.816C49.944 6.024 50.648 4.456 51.288 3.112C52.888 2.984 54.392 2.824 55.8 2.632C57.208 2.43999 58.616 2.248 60.024 2.056C61.432 1.8 62.84 1.576 64.248 1.384C65.72 1.12799 67.32 0.839994 69.048 0.519995C68.408 4.232 67.8 8.04 67.224 11.944C66.648 15.848 66.136 19.752 65.688 23.656C65.24 27.496 64.792 31.304 64.344 35.08C63.96 38.856 63.608 42.44 63.288 45.832C62.52 53.768 61.848 61.512 61.272 69.064L44.568 72.04C44.568 71.72 44.6 70.856 44.664 69.448C44.792 68.04 44.92 66.312 45.048 64.264C45.24 62.216 45.464 59.944 45.72 57.448C46.04 54.952 46.328 52.456 46.584 49.96C46.904 47.464 47.224 45.064 47.544 42.76C47.864 40.392 48.184 38.376 48.504 36.712H47.64C46.744 39.4 45.752 42.248 44.664 45.256C43.576 48.2 42.456 51.208 41.304 54.28C40.216 57.352 39.128 60.36 38.04 63.304C36.952 66.248 35.992 69.064 35.16 71.752C32.92 71.816 31 71.912 29.4 72.04C27.8 72.104 25.944 72.2 23.832 72.328L26.904 36.712H25.464C25.336 37.544 25.016 38.952 24.504 40.936C23.992 42.856 23.384 45.096 22.68 47.656C22.04 50.152 21.336 52.776 20.568 55.528C19.8 58.216 19.064 60.744 18.36 63.112C17.72 65.416 17.176 67.336 16.728 68.872C16.28 70.344 16.024 71.176 15.96 71.368L0.12 72.424ZM111.302 23.944C111.302 27.272 110.822 30.824 109.862 34.6C108.902 38.312 107.558 42.024 105.83 45.736C104.102 49.384 101.958 52.904 99.3975 56.296C96.9015 59.624 94.0535 62.568 90.8535 65.128C87.6535 67.624 84.1335 69.64 80.2935 71.176C76.5175 72.712 72.4855 73.48 68.1975 73.48C67.3015 73.48 66.4055 73.416 65.5095 73.288C64.6135 73.224 63.7175 73.128 62.8215 73C64.5495 64.168 66.2455 55.56 67.9095 47.176C68.5495 43.656 69.2215 40.008 69.9255 36.232C70.6295 32.392 71.3015 28.616 71.9415 24.904C72.5815 21.192 73.1895 17.64 73.7655 14.248C74.4055 10.856 74.9175 7.784 75.3015 5.032C78.0535 4.52 80.8375 4.04 83.6535 3.592C86.4695 3.144 89.3495 2.92 92.2935 2.92C95.7495 2.92 98.6615 3.464 101.03 4.55199C103.462 5.64 105.414 7.144 106.886 9.064C108.422 10.984 109.542 13.224 110.246 15.784C110.95 18.344 111.302 21.064 111.302 23.944ZM88.6455 16.456C87.9415 20.232 87.2055 23.848 86.4375 27.304C85.6695 30.76 84.9015 34.248 84.1335 37.768C83.3655 41.288 82.5975 44.968 81.8295 48.808C81.0615 52.648 80.3255 56.84 79.6215 61.384C81.1575 60.36 82.6295 58.984 84.0375 57.256C85.5095 55.464 86.8855 53.416 88.1655 51.112C89.4455 48.808 90.5975 46.376 91.6215 43.816C92.7095 41.256 93.6375 38.76 94.4055 36.328C95.1735 33.896 95.7495 31.624 96.1335 29.512C96.5815 27.4 96.8055 25.576 96.8055 24.04C96.8055 21.672 96.1335 19.816 94.7895 18.472C93.5095 17.128 91.4615 16.456 88.6455 16.456Z" fill="white"/>
</svg>
